g big_7
v 0.5104402 -0.4218632 0.6053028
v 0.5104402 0.4218633 -0.7254952
v 0.5104402 -0.4218632 -0.7254952
v 0.5104402 0.4218633 0.6053028
v 0.3524367 0.4218633 0.7400091
v 0.3524367 -0.4218632 0.7400091
v -0.3524369 0.4218633 0.7400091
v -0.3524369 -0.4218632 0.7400091
v -0.5104392 -0.4218632 0.6053028
v -0.5104392 0.4218633 0.6053028
v -0.5104392 -0.4218632 -0.7254952
v -0.5104392 0.4218633 -0.7254952
v 0.450887 0.5111292 0.5276732
v 0.3113185 0.5111292 0.6466604
v -0.311319 0.5111292 0.6466604
v 0.450887 0.5111292 -0.6478648
v 0.5104402 0.4218633 -0.7254952
v 0.3113185 0.5111292 -0.7668518
v -0.4508899 0.5111292 0.5276732
v -0.5104392 0.4218633 -0.7254952
v -0.4508899 0.5111292 -0.6478648
v -0.311319 0.5111292 -0.7668518
v 0.3524367 0.4218633 -0.8602002
v -0.3524369 0.4218633 -0.8602002
v -0.3524369 -0.4218632 -0.8602002
v -0.5104392 -0.4218632 -0.7254952
v 0.3524367 -0.4218632 -0.8602002
v 0.5104402 -0.4218632 -0.7254952
v -0.311319 -0.5111294 -0.7668518
v 0.3113185 -0.5111294 -0.7668518
v 0.450887 -0.5111294 -0.6478648
v 0.450887 -0.5111294 0.5276732
v 0.5104402 -0.4218632 0.6053028
v 0.3113185 -0.5111294 0.6466604
v 0.3524367 -0.4218632 0.7400091
v -0.311319 -0.5111294 0.6466604
v -0.3524369 -0.4218632 0.7400091
v -0.4508899 -0.5111294 0.5276732
v -0.5104392 -0.4218632 0.6053028
v -0.4508899 -0.5111294 -0.6478648
vt 0.625 0
vt 0.875 0.25
vt 0.875 0
vt 0.625 0.25
vt 0.572009 0.25
vt 0.572009 0
vt 0.4102343 0.25
vt 0.4102343 0
vt 0.375 0
vt 0.375 0.25
vt 0.125 0
vt 0.125 0.25
vt 0.625 0.25
vt 0.572009 0.25
vt 0.4102343 0.25
vt 0.625 0.5
vt 0.625 0.5
vt 0.572009 0.5
vt 0.375 0.25
vt 0.375 0.5
vt 0.375 0.5
vt 0.4102343 0.5
vt 0.572009 0.5
vt 0.4102343 0.5
vt 0.4102343 0.75
vt 0.375 0.75
vt 0.572009 0.75
vt 0.625 0.75
vt 0.4102343 0.75
vt 0.572009 0.75
vt 0.625 0.75
vt 0.625 1
vt 0.625 1
vt 0.572009 1
vt 0.572009 1
vt 0.4102343 1
vt 0.4102343 1
vt 0.375 1
vt 0.375 1
vt 0.375 0.75
vn 0.9926441 -0.04863283 0.1108717
vn 0.9926441 0.04863273 -0.1108718
vn 0.9926441 -0.04863276 -0.1108718
vn 0.9926441 0.04863281 0.1108717
vn 0.1543648 0.08288109 0.9845315
vn 0.1543648 -0.08288112 0.9845315
vn -0.1543649 0.082881 0.9845315
vn -0.1543649 -0.08288101 0.9845315
vn -0.9926442 -0.04863029 0.1108712
vn -0.9926442 0.04863027 0.1108712
vn -0.9926442 -0.04863019 -0.1108713
vn -0.9926442 0.04863018 -0.1108713
vn 0.3988678 0.9164892 0.03085758
vn 0.01194867 0.9967469 0.07970477
vn -0.0119486 0.9967469 0.07970452
vn 0.3988682 0.9164889 -0.03085752
vn 0.9926441 0.04863273 -0.1108718
vn 0.01194859 0.9967469 -0.07970476
vn -0.3988715 0.9164875 0.03085753
vn -0.9926442 0.04863018 -0.1108713
vn -0.3988719 0.9164874 -0.0308575
vn -0.01194853 0.9967469 -0.07970454
vn 0.1543636 0.08288104 -0.9845316
vn -0.1543638 0.08288093 -0.9845316
vn -0.1543638 -0.08288091 -0.9845316
vn -0.9926442 -0.04863019 -0.1108713
vn 0.1543636 -0.08288103 -0.9845316
vn 0.9926441 -0.04863276 -0.1108718
vn -0.01194855 -0.9967469 -0.07970476
vn 0.01194862 -0.9967469 -0.07970501
vn 0.398869 -0.9164886 -0.03085759
vn 0.3988685 -0.9164888 0.03085765
vn 0.9926441 -0.04863283 0.1108717
vn 0.01194869 -0.9967469 0.07970499
vn 0.1543648 -0.08288112 0.9845315
vn -0.01194863 -0.9967469 0.07970477
vn -0.1543649 -0.08288101 0.9845315
vn -0.3988725 -0.9164871 0.03085764
vn -0.9926442 -0.04863029 0.1108712
vn -0.3988729 -0.9164869 -0.03085756
g big_7_0
f 3/3/3 2/2/2 1/1/1
f 2/2/2 4/4/4 1/1/1
f 1/1/1 4/4/4 5/5/5
f 6/6/6 1/1/1 5/5/5
f 6/6/6 5/5/5 7/7/7
f 8/8/8 6/6/6 7/7/7
f 8/8/8 7/7/7 9/9/9
f 7/7/7 10/10/10 9/9/9
f 9/9/9 10/10/10 11/11/11
f 10/10/10 12/12/12 11/11/11
f 4/4/4 13/13/13 5/5/5
f 5/5/5 14/14/14 7/7/7
f 13/13/13 14/14/14 5/5/5
f 7/7/7 15/15/15 10/10/10
f 14/14/14 15/15/15 7/7/7
f 16/16/16 13/13/13 4/4/4
f 17/17/17 16/16/16 4/4/4
f 14/14/14 13/13/13 18/18/18
f 13/13/13 16/16/16 18/18/18
f 15/15/15 14/14/14 18/18/18
f 18/18/18 16/16/16 17/17/17
f 15/15/15 19/19/19 10/10/10
f 10/10/10 19/19/19 20/20/20
f 21/21/21 19/19/19 15/15/15
f 19/19/19 21/21/21 20/20/20
f 22/22/22 15/15/15 18/18/18
f 22/22/22 21/21/21 15/15/15
f 23/23/23 18/18/18 17/17/17
f 22/22/22 18/18/18 23/23/23
f 21/21/21 22/22/22 24/24/24
f 20/20/20 21/21/21 24/24/24
f 24/24/24 22/22/22 23/23/23
f 24/24/24 25/25/25 20/20/20
f 24/24/24 23/23/23 25/25/25
f 25/25/25 26/26/26 20/20/20
f 23/23/23 17/17/17 27/27/27
f 23/23/23 27/27/27 25/25/25
f 17/17/17 28/28/28 27/27/27
f 25/25/25 29/29/29 26/26/26
f 27/27/27 30/30/30 25/25/25
f 30/30/30 29/29/29 25/25/25
f 28/28/28 31/31/31 27/27/27
f 31/31/31 30/30/30 27/27/27
f 32/32/32 31/31/31 28/28/28
f 33/33/33 32/32/32 28/28/28
f 30/30/30 31/31/31 34/34/34
f 31/31/31 32/32/32 34/34/34
f 34/34/34 32/32/32 33/33/33
f 29/29/29 30/30/30 34/34/34
f 35/35/35 34/34/34 33/33/33
f 36/36/36 34/34/34 35/35/35
f 36/36/36 29/29/29 34/34/34
f 37/37/37 36/36/36 35/35/35
f 38/38/38 36/36/36 37/37/37
f 36/36/36 38/38/38 29/29/29
f 39/39/39 38/38/38 37/37/37
f 26/26/26 40/40/40 39/39/39
f 29/29/29 40/40/40 26/26/26
f 40/40/40 38/38/38 39/39/39
f 38/38/38 40/40/40 29/29/29
