g big_2
v 0.4932013 -0.4076161 0.6060314
v 0.4932013 0.407616 -0.6060314
v 0.4932013 -0.4076161 -0.6060314
v 0.4932013 0.407616 0.6060314
v 0.3405363 0.407616 0.753352
v 0.3405363 -0.4076161 0.753352
v -0.3405363 0.407616 0.753352
v -0.3405363 -0.4076161 0.753352
v -0.4932013 -0.4076161 0.6060314
v -0.4932013 0.407616 0.6060314
v -0.4932013 -0.4076161 -0.6060314
v -0.4932013 0.407616 -0.6060314
v 0.4356624 0.4938681 0.5353281
v 0.300805 0.4938681 0.6654614
v -0.300805 0.4938681 0.6654614
v 0.4356624 0.4938681 -0.5353276
v 0.4932013 0.407616 -0.6060314
v 0.300805 0.4938681 -0.6654609
v -0.4356619 0.4938681 0.5353281
v -0.4932013 0.407616 -0.6060314
v -0.4356619 0.4938681 -0.5353276
v -0.300805 0.4938681 -0.6654609
v 0.3405363 0.407616 -0.753352
v -0.3405363 0.407616 -0.753352
v -0.3405363 -0.4076161 -0.753352
v -0.4932013 -0.4076161 -0.6060314
v 0.3405363 -0.4076161 -0.753352
v 0.4932013 -0.4076161 -0.6060314
v -0.300805 -0.4938681 -0.6654609
v 0.300805 -0.4938681 -0.6654609
v 0.4356624 -0.4938681 -0.5353276
v 0.4356624 -0.4938681 0.5353281
v 0.4932013 -0.4076161 0.6060314
v 0.300805 -0.4938681 0.6654614
v 0.3405363 -0.4076161 0.753352
v -0.300805 -0.4938681 0.6654614
v -0.3405363 -0.4076161 0.753352
v -0.4356619 -0.4938681 0.5353281
v -0.4932013 -0.4076161 0.6060314
v -0.4356619 -0.4938681 -0.5353276
vt 0.625 0
vt 0.875 0.25
vt 0.875 0
vt 0.625 0.25
vt 0.572009 0.25
vt 0.572009 0
vt 0.4102343 0.25
vt 0.4102343 0
vt 0.375 0
vt 0.375 0.25
vt 0.125 0
vt 0.125 0.25
vt 0.625 0.25
vt 0.572009 0.25
vt 0.4102343 0.25
vt 0.625 0.5
vt 0.625 0.5
vt 0.572009 0.5
vt 0.375 0.25
vt 0.375 0.5
vt 0.375 0.5
vt 0.4102343 0.5
vt 0.572009 0.5
vt 0.4102343 0.5
vt 0.4102343 0.75
vt 0.375 0.75
vt 0.572009 0.75
vt 0.625 0.75
vt 0.4102343 0.75
vt 0.572009 0.75
vt 0.625 0.75
vt 0.625 1
vt 0.625 1
vt 0.572009 1
vt 0.572009 1
vt 0.4102343 1
vt 0.4102343 1
vt 0.375 1
vt 0.375 1
vt 0.375 0.75
vn 0.9920718 -0.04996213 0.1153136
vn 0.9920718 0.0499621 -0.1153136
vn 0.9920718 -0.0499621 -0.1153136
vn 0.9920718 0.04996212 0.1153136
vn 0.1739092 0.08069983 0.9814495
vn 0.1739092 -0.08069985 0.9814495
vn -0.1739092 0.08069984 0.9814495
vn -0.1739092 -0.08069985 0.9814495
vn -0.9920718 -0.04996245 0.1153135
vn -0.9920718 0.04996247 0.1153135
vn -0.9920718 -0.04996246 -0.1153136
vn -0.9920718 0.04996247 -0.1153136
vn 0.3888073 0.9207833 0.03141982
vn 0.01424357 0.9964705 0.08272768
vn -0.01424359 0.9964705 0.08272766
vn 0.3888075 0.920783 -0.03141975
vn 0.9920718 0.0499621 -0.1153136
vn 0.01424356 0.9964705 -0.08272761
vn -0.3888065 0.9207836 0.03141971
vn -0.9920718 0.04996247 -0.1153136
vn -0.3888067 0.9207835 -0.03141964
vn -0.01424358 0.9964705 -0.0827276
vn 0.1739091 0.08070025 -0.9814495
vn -0.1739091 0.08070029 -0.9814495
vn -0.1739091 -0.08070029 -0.9814495
vn -0.9920718 -0.04996246 -0.1153136
vn 0.1739091 -0.08070024 -0.9814495
vn 0.9920718 -0.0499621 -0.1153136
vn -0.01424359 -0.9964705 -0.08272757
vn 0.01424356 -0.9964705 -0.08272756
vn 0.3888074 -0.9207832 -0.03141972
vn 0.3888072 -0.9207833 0.0314198
vn 0.9920718 -0.04996213 0.1153136
vn 0.01424357 -0.9964705 0.08272763
vn 0.1739092 -0.08069985 0.9814495
vn -0.01424358 -0.9964705 0.08272764
vn -0.1739092 -0.08069985 0.9814495
vn -0.3888063 -0.9207836 0.03141971
vn -0.9920718 -0.04996245 0.1153135
vn -0.3888066 -0.9207835 -0.03141967
g big_2_0
f 3/3/3 2/2/2 1/1/1
f 2/2/2 4/4/4 1/1/1
f 1/1/1 4/4/4 5/5/5
f 6/6/6 1/1/1 5/5/5
f 6/6/6 5/5/5 7/7/7
f 8/8/8 6/6/6 7/7/7
f 8/8/8 7/7/7 9/9/9
f 7/7/7 10/10/10 9/9/9
f 9/9/9 10/10/10 11/11/11
f 10/10/10 12/12/12 11/11/11
f 4/4/4 13/13/13 5/5/5
f 5/5/5 14/14/14 7/7/7
f 13/13/13 14/14/14 5/5/5
f 7/7/7 15/15/15 10/10/10
f 14/14/14 15/15/15 7/7/7
f 16/16/16 13/13/13 4/4/4
f 17/17/17 16/16/16 4/4/4
f 14/14/14 13/13/13 18/18/18
f 13/13/13 16/16/16 18/18/18
f 15/15/15 14/14/14 18/18/18
f 18/18/18 16/16/16 17/17/17
f 15/15/15 19/19/19 10/10/10
f 10/10/10 19/19/19 20/20/20
f 21/21/21 19/19/19 15/15/15
f 19/19/19 21/21/21 20/20/20
f 22/22/22 15/15/15 18/18/18
f 22/22/22 21/21/21 15/15/15
f 23/23/23 18/18/18 17/17/17
f 22/22/22 18/18/18 23/23/23
f 21/21/21 22/22/22 24/24/24
f 20/20/20 21/21/21 24/24/24
f 24/24/24 22/22/22 23/23/23
f 24/24/24 25/25/25 20/20/20
f 24/24/24 23/23/23 25/25/25
f 25/25/25 26/26/26 20/20/20
f 23/23/23 17/17/17 27/27/27
f 23/23/23 27/27/27 25/25/25
f 17/17/17 28/28/28 27/27/27
f 25/25/25 29/29/29 26/26/26
f 27/27/27 30/30/30 25/25/25
f 30/30/30 29/29/29 25/25/25
f 28/28/28 31/31/31 27/27/27
f 31/31/31 30/30/30 27/27/27
f 32/32/32 31/31/31 28/28/28
f 33/33/33 32/32/32 28/28/28
f 30/30/30 31/31/31 34/34/34
f 31/31/31 32/32/32 34/34/34
f 34/34/34 32/32/32 33/33/33
f 29/29/29 30/30/30 34/34/34
f 35/35/35 34/34/34 33/33/33
f 36/36/36 34/34/34 35/35/35
f 36/36/36 29/29/29 34/34/34
f 37/37/37 36/36/36 35/35/35
f 38/38/38 36/36/36 37/37/37
f 36/36/36 38/38/38 29/29/29
f 39/39/39 38/38/38 37/37/37
f 26/26/26 40/40/40 39/39/39
f 29/29/29 40/40/40 26/26/26
f 40/40/40 38/38/38 39/39/39
f 38/38/38 40/40/40 29/29/29
