g big_2
v -0.4932013 -0.4076161 0.6060314
v -0.4932013 0.407616 0.6060314
v -0.3405363 0.407616 0.753352
v -0.3405363 -0.4076161 0.753352
v -0.4932013 -0.4076161 -0.6060314
v -0.4932013 0.407616 -0.6060314
v 0.3405363 -0.4076161 0.753352
v 0.3405363 0.407616 0.753352
v 0.4932013 -0.4076161 0.6060314
v 0.4932013 0.407616 0.6060314
v 0.4932013 0.407616 -0.6060314
v 0.4932013 -0.4076161 -0.6060314
v -0.300805 0.4938681 0.6654614
v -0.4356619 0.4938681 0.5353281
v -0.4932013 0.407616 -0.6060314
v -0.4356619 0.4938681 -0.5353276
v -0.3405363 0.407616 -0.753352
v -0.3405363 -0.4076161 -0.753352
v -0.4932013 -0.4076161 -0.6060314
v 0.3405363 0.407616 -0.753352
v 0.3405363 -0.4076161 -0.753352
v 0.4932013 0.407616 -0.6060314
v 0.4932013 -0.4076161 -0.6060314
v -0.300805 0.4938681 -0.6654609
v 0.300805 0.4938681 -0.6654609
v 0.300805 0.4938681 0.6654614
v 0.4356624 0.4938681 0.5353281
v 0.4356624 0.4938681 -0.5353276
v -0.300805 -0.4938681 -0.6654609
v -0.4356619 -0.4938681 -0.5353276
v -0.4932013 -0.4076161 0.6060314
v -0.4356619 -0.4938681 0.5353281
v -0.3405363 -0.4076161 0.753352
v -0.300805 -0.4938681 0.6654614
v 0.300805 -0.4938681 0.6654614
v 0.300805 -0.4938681 -0.6654609
v 0.3405363 -0.4076161 0.753352
v 0.4356624 -0.4938681 -0.5353276
v 0.4356624 -0.4938681 0.5353281
v 0.4932013 -0.4076161 0.6060314
vt 0.375 0
vt 0.375 0.25
vt 0.4102343 0.25
vt 0.4102343 0
vt 0.125 0
vt 0.125 0.25
vt 0.572009 0
vt 0.572009 0.25
vt 0.625 0
vt 0.625 0.25
vt 0.875 0.25
vt 0.875 0
vt 0.4102343 0.25
vt 0.375 0.25
vt 0.375 0.5
vt 0.375 0.5
vt 0.4102343 0.5
vt 0.4102343 0.75
vt 0.375 0.75
vt 0.572009 0.5
vt 0.572009 0.75
vt 0.625 0.5
vt 0.625 0.75
vt 0.4102343 0.5
vt 0.572009 0.5
vt 0.572009 0.25
vt 0.625 0.25
vt 0.625 0.5
vt 0.4102343 0.75
vt 0.375 0.75
vt 0.375 1
vt 0.375 1
vt 0.4102343 1
vt 0.4102343 1
vt 0.572009 1
vt 0.572009 0.75
vt 0.572009 1
vt 0.625 0.75
vt 0.625 1
vt 0.625 1
vn -0.9920719 -0.04996246 0.1153135
vn -0.9920719 0.04996248 0.1153135
vn -0.1739092 0.08069983 0.9814495
vn -0.1739092 -0.08069984 0.9814495
vn -0.9920719 -0.04996246 -0.1153136
vn -0.9920719 0.04996248 -0.1153136
vn 0.1739092 -0.08069984 0.9814495
vn 0.1739092 0.08069982 0.9814495
vn 0.9920719 -0.04996213 0.1153136
vn 0.9920719 0.04996212 0.1153136
vn 0.9920719 0.0499621 -0.1153136
vn 0.9920719 -0.0499621 -0.1153136
vn -0.01424359 0.9964704 0.08272766
vn -0.3888064 0.9207835 0.03141971
vn -0.9920719 0.04996248 -0.1153136
vn -0.3888067 0.9207835 -0.03141964
vn -0.173909 0.08070028 -0.9814495
vn -0.1739091 -0.08070028 -0.9814495
vn -0.9920719 -0.04996246 -0.1153136
vn 0.173909 0.08070024 -0.9814495
vn 0.173909 -0.08070023 -0.9814495
vn 0.9920719 0.0499621 -0.1153136
vn 0.9920719 -0.0499621 -0.1153136
vn -0.01424358 0.9964704 -0.08272759
vn 0.01424356 0.9964704 -0.0827276
vn 0.01424357 0.9964704 0.08272767
vn 0.3888072 0.9207832 0.03141982
vn 0.3888075 0.9207831 -0.03141975
vn -0.01424358 -0.9964704 -0.08272757
vn -0.3888066 -0.9207835 -0.03141967
vn -0.9920719 -0.04996246 0.1153135
vn -0.3888063 -0.9207836 0.03141971
vn -0.1739092 -0.08069984 0.9814495
vn -0.01424358 -0.9964704 0.08272763
vn 0.01424357 -0.9964704 0.08272762
vn 0.01424356 -0.9964704 -0.08272755
vn 0.1739092 -0.08069984 0.9814495
vn 0.3888074 -0.9207831 -0.03141972
vn 0.3888072 -0.9207832 0.0314198
vn 0.9920719 -0.04996213 0.1153136
g big_2_0
f 3/3/3 2/2/2 1/1/1
f 4/4/4 3/3/3 1/1/1
f 1/1/1 2/2/2 5/5/5
f 2/2/2 6/6/6 5/5/5
f 4/4/4 7/7/7 3/3/3
f 7/7/7 8/8/8 3/3/3
f 7/7/7 9/9/9 8/8/8
f 9/9/9 10/10/10 8/8/8
f 11/11/11 10/10/10 9/9/9
f 12/12/12 11/11/11 9/9/9
f 3/3/3 13/13/13 2/2/2
f 13/13/13 14/14/14 2/2/2
f 2/2/2 14/14/14 15/15/15
f 14/14/14 16/16/16 15/15/15
f 16/16/16 14/14/14 13/13/13
f 15/15/15 16/16/16 17/17/17
f 17/17/17 18/18/18 15/15/15
f 18/18/18 19/19/19 15/15/15
f 17/17/17 20/20/20 18/18/18
f 20/20/20 21/21/21 18/18/18
f 20/20/20 22/22/22 21/21/21
f 22/22/22 23/23/23 21/21/21
f 17/17/17 24/24/24 20/20/20
f 16/16/16 24/24/24 17/17/17
f 24/24/24 16/16/16 13/13/13
f 24/24/24 13/13/13 25/25/25
f 24/24/24 25/25/25 20/20/20
f 20/20/20 25/25/25 22/22/22
f 13/13/13 26/26/26 25/25/25
f 26/26/26 13/13/13 3/3/3
f 8/8/8 26/26/26 3/3/3
f 27/27/27 26/26/26 8/8/8
f 26/26/26 27/27/27 25/25/25
f 10/10/10 27/27/27 8/8/8
f 28/28/28 27/27/27 10/10/10
f 22/22/22 28/28/28 10/10/10
f 25/25/25 28/28/28 22/22/22
f 27/27/27 28/28/28 25/25/25
f 18/18/18 29/29/29 19/19/19
f 29/29/29 30/30/30 19/19/19
f 19/19/19 30/30/30 31/31/31
f 30/30/30 32/32/32 31/31/31
f 32/32/32 30/30/30 29/29/29
f 31/31/31 32/32/32 33/33/33
f 32/32/32 34/34/34 33/33/33
f 34/34/34 32/32/32 29/29/29
f 34/34/34 29/29/29 35/35/35
f 29/29/29 36/36/36 35/35/35
f 34/34/34 35/35/35 37/37/37
f 33/33/33 34/34/34 37/37/37
f 36/36/36 29/29/29 18/18/18
f 21/21/21 36/36/36 18/18/18
f 38/38/38 36/36/36 21/21/21
f 36/36/36 38/38/38 35/35/35
f 23/23/23 38/38/38 21/21/21
f 39/39/39 38/38/38 23/23/23
f 38/38/38 39/39/39 35/35/35
f 40/40/40 39/39/39 23/23/23
f 35/35/35 39/39/39 40/40/40
f 37/37/37 35/35/35 40/40/40
