g big_6
v -0.4932013 -0.4076161 0.5619341
v -0.4932013 0.7868586 0.5619341
v -0.3405363 0.7868586 0.753352
v -0.3405363 -0.4076161 0.753352
v -0.4932013 -0.4076161 -0.5619339
v -0.4932013 0.7868586 -0.5619339
v 0.3405363 -0.4076161 0.753352
v 0.3405363 0.7868586 0.753352
v 0.4932013 -0.4076161 0.5619341
v 0.4932013 0.7868586 0.5619341
v 0.4932013 0.7868586 -0.5619339
v 0.4932013 -0.4076161 -0.5619339
v -0.300805 0.8731107 0.6654614
v -0.4356619 0.8731107 0.4963754
v -0.4932013 0.7868586 -0.5619339
v -0.4356619 0.8731107 -0.4963749
v -0.3405363 0.7868586 -0.753352
v -0.3405363 -0.4076161 -0.753352
v -0.4932013 -0.4076161 -0.5619339
v 0.3405363 0.7868586 -0.753352
v 0.3405363 -0.4076161 -0.753352
v 0.4932013 0.7868586 -0.5619339
v 0.4932013 -0.4076161 -0.5619339
v -0.300805 0.8731107 -0.6654609
v 0.300805 0.8731107 -0.6654609
v 0.300805 0.8731107 0.6654614
v 0.4356624 0.8731107 0.4963754
v 0.4356624 0.8731107 -0.4963749
v -0.300805 -0.4938681 -0.6654609
v -0.4356619 -0.4938681 -0.4963749
v -0.4932013 -0.4076161 0.5619341
v -0.4356619 -0.4938681 0.4963754
v -0.3405363 -0.4076161 0.753352
v -0.300805 -0.4938681 0.6654614
v 0.300805 -0.4938681 0.6654614
v 0.300805 -0.4938681 -0.6654609
v 0.3405363 -0.4076161 0.753352
v 0.4356624 -0.4938681 -0.4963749
v 0.4356624 -0.4938681 0.4963754
v 0.4932013 -0.4076161 0.5619341
vt 0.375 0
vt 0.375 0.25
vt 0.4102343 0.25
vt 0.4102343 0
vt 0.125 0
vt 0.125 0.25
vt 0.572009 0
vt 0.572009 0.25
vt 0.625 0
vt 0.625 0.25
vt 0.875 0.25
vt 0.875 0
vt 0.4102343 0.25
vt 0.375 0.25
vt 0.375 0.5
vt 0.375 0.5
vt 0.4102343 0.5
vt 0.4102343 0.75
vt 0.375 0.75
vt 0.572009 0.5
vt 0.572009 0.75
vt 0.625 0.5
vt 0.625 0.75
vt 0.4102343 0.5
vt 0.572009 0.5
vt 0.572009 0.25
vt 0.625 0.25
vt 0.625 0.5
vt 0.4102343 0.75
vt 0.375 0.75
vt 0.375 1
vt 0.375 1
vt 0.4102343 1
vt 0.4102343 1
vt 0.572009 1
vt 0.572009 0.75
vt 0.572009 1
vt 0.625 0.75
vt 0.625 1
vt 0.625 1
vn -0.9923474 -0.03641617 0.1179849
vn -0.9923474 0.03641615 0.1179849
vn -0.2231704 0.05617065 0.9731597
vn -0.2231704 -0.05617065 0.9731597
vn -0.9923474 -0.03641615 -0.1179849
vn -0.9923474 0.03641614 -0.1179849
vn 0.2231704 -0.05617061 0.9731597
vn 0.2231704 0.05617061 0.9731597
vn 0.9923474 -0.03641591 0.1179849
vn 0.9923474 0.0364159 0.1179849
vn 0.9923474 0.03641589 -0.117985
vn 0.9923474 -0.0364159 -0.117985
vn -0.01970092 0.9962243 0.08455257
vn -0.3700193 0.9285229 0.03051004
vn -0.9923474 0.03641614 -0.1179849
vn -0.3700196 0.9285228 -0.03050997
vn -0.2231703 0.0561709 -0.9731597
vn -0.2231703 -0.0561709 -0.9731597
vn -0.9923474 -0.03641615 -0.1179849
vn 0.2231703 0.05617087 -0.9731597
vn 0.2231703 -0.05617087 -0.9731597
vn 0.9923474 0.03641589 -0.117985
vn 0.9923474 -0.0364159 -0.117985
vn -0.01970093 0.9962243 -0.08455253
vn 0.0197009 0.9962243 -0.08455251
vn 0.01970088 0.9962243 0.08455256
vn 0.3700194 0.9285229 0.03051006
vn 0.3700196 0.9285228 -0.03051
vn -0.01970091 -0.9962243 -0.08455243
vn -0.3700192 -0.928523 -0.03050994
vn -0.9923474 -0.03641617 0.1179849
vn -0.370019 -0.9285231 0.03050998
vn -0.2231704 -0.05617065 0.9731597
vn -0.0197009 -0.9962243 0.08455247
vn 0.01970089 -0.9962243 0.08455247
vn 0.01970088 -0.9962243 -0.08455241
vn 0.2231704 -0.05617061 0.9731597
vn 0.3700193 -0.9285229 -0.03050995
vn 0.3700191 -0.928523 0.03051003
vn 0.9923474 -0.03641591 0.1179849
g big_6_0
f 3/3/3 2/2/2 1/1/1
f 4/4/4 3/3/3 1/1/1
f 1/1/1 2/2/2 5/5/5
f 2/2/2 6/6/6 5/5/5
f 4/4/4 7/7/7 3/3/3
f 7/7/7 8/8/8 3/3/3
f 7/7/7 9/9/9 8/8/8
f 9/9/9 10/10/10 8/8/8
f 11/11/11 10/10/10 9/9/9
f 12/12/12 11/11/11 9/9/9
f 3/3/3 13/13/13 2/2/2
f 13/13/13 14/14/14 2/2/2
f 2/2/2 14/14/14 15/15/15
f 14/14/14 16/16/16 15/15/15
f 16/16/16 14/14/14 13/13/13
f 15/15/15 16/16/16 17/17/17
f 17/17/17 18/18/18 15/15/15
f 18/18/18 19/19/19 15/15/15
f 17/17/17 20/20/20 18/18/18
f 20/20/20 21/21/21 18/18/18
f 20/20/20 22/22/22 21/21/21
f 22/22/22 23/23/23 21/21/21
f 17/17/17 24/24/24 20/20/20
f 16/16/16 24/24/24 17/17/17
f 24/24/24 16/16/16 13/13/13
f 24/24/24 13/13/13 25/25/25
f 24/24/24 25/25/25 20/20/20
f 20/20/20 25/25/25 22/22/22
f 13/13/13 26/26/26 25/25/25
f 26/26/26 13/13/13 3/3/3
f 8/8/8 26/26/26 3/3/3
f 27/27/27 26/26/26 8/8/8
f 26/26/26 27/27/27 25/25/25
f 10/10/10 27/27/27 8/8/8
f 28/28/28 27/27/27 10/10/10
f 22/22/22 28/28/28 10/10/10
f 25/25/25 28/28/28 22/22/22
f 27/27/27 28/28/28 25/25/25
f 18/18/18 29/29/29 19/19/19
f 29/29/29 30/30/30 19/19/19
f 19/19/19 30/30/30 31/31/31
f 30/30/30 32/32/32 31/31/31
f 32/32/32 30/30/30 29/29/29
f 31/31/31 32/32/32 33/33/33
f 32/32/32 34/34/34 33/33/33
f 34/34/34 32/32/32 29/29/29
f 34/34/34 29/29/29 35/35/35
f 29/29/29 36/36/36 35/35/35
f 34/34/34 35/35/35 37/37/37
f 33/33/33 34/34/34 37/37/37
f 36/36/36 29/29/29 18/18/18
f 21/21/21 36/36/36 18/18/18
f 38/38/38 36/36/36 21/21/21
f 36/36/36 38/38/38 35/35/35
f 23/23/23 38/38/38 21/21/21
f 39/39/39 38/38/38 23/23/23
f 38/38/38 39/39/39 35/35/35
f 40/40/40 39/39/39 23/23/23
f 35/35/35 39/39/39 40/40/40
f 37/37/37 35/35/35 40/40/40
