g big_face
v -0.5190046 -7.105427E-17 3.572293
v -0.7142973 -7.105427E-17 3.408347
v 1.371234 -7.105427E-17 3.408347
v 1.175941 -7.105427E-17 3.572293
v 1.371234 -7.105427E-17 -3.64342
v -0.7142973 -7.105427E-17 -3.64342
v 1.175941 -7.105427E-17 -3.808002
v -0.5190046 -7.105427E-17 -3.808002
vt 0 0
vt 0 0.06795821
vt 1 0.06795821
vt 1 0
vt 1 0.9317643
vt 0 0.9317643
vt 1 1
vt 0 1
vn 0 1 0
vn 0 1 0
vn 0 1 0
vn 0 1 0
vn 0 1 0
vn 0 1 0
vn 0 1 0
vn 0 1 0
g big_face_0
f 3/3/3 2/2/2 1/1/1
f 4/4/4 3/3/3 1/1/1
f 3/3/3 5/5/5 2/2/2
f 5/5/5 6/6/6 2/2/2
f 5/5/5 7/7/7 6/6/6
f 7/7/7 8/8/8 6/6/6
