g big_1
v 0.2246118 -0.1856352 0.1675407
v 0.2246118 0.1856352 -0.1675407
v 0.2246118 -0.1856352 -0.1675407
v 0.2246118 0.1856352 0.1675407
v 0.1550851 0.1856352 0.2246118
v 0.1550851 -0.1856352 0.2246118
v -0.1550853 0.1856352 0.2246118
v -0.1550853 -0.1856352 0.2246118
v -0.2246118 -0.1856352 0.1675407
v -0.2246118 0.1856352 0.1675407
v -0.2246118 -0.1856352 -0.1675407
v -0.2246118 0.1856352 -0.1675407
v 0.1984071 0.2249158 0.1479941
v 0.1369921 0.2249158 0.1984071
v -0.1369922 0.2249158 0.1984071
v 0.1984071 0.2249158 -0.147994
v 0.2246118 0.1856352 -0.1675407
v 0.1369921 0.2249158 -0.198407
v -0.1984071 0.2249158 0.1479941
v -0.2246118 0.1856352 -0.1675407
v -0.1984071 0.2249158 -0.147994
v -0.1369922 0.2249158 -0.198407
v 0.1550851 0.1856352 -0.2246118
v -0.1550853 0.1856352 -0.2246118
v -0.1550853 -0.1856352 -0.2246118
v -0.2246118 -0.1856352 -0.1675407
v 0.1550851 -0.1856352 -0.2246118
v 0.2246118 -0.1856352 -0.1675407
v -0.1369922 -0.2249157 -0.198407
v 0.1369921 -0.2249157 -0.198407
v 0.1984071 -0.2249157 -0.147994
v 0.1984071 -0.2249157 0.1479941
v 0.2246118 -0.1856352 0.1675407
v 0.1369921 -0.2249157 0.1984071
v 0.1550851 -0.1856352 0.2246118
v -0.1369922 -0.2249157 0.1984071
v -0.1550853 -0.1856352 0.2246118
v -0.1984071 -0.2249157 0.1479941
v -0.2246118 -0.1856352 0.1675407
v -0.1984071 -0.2249157 -0.147994
vt 0.625 0
vt 0.875 0.25
vt 0.875 0
vt 0.625 0.25
vt 0.572009 0.25
vt 0.572009 0
vt 0.4102343 0.25
vt 0.4102343 0
vt 0.375 0
vt 0.375 0.25
vt 0.125 0
vt 0.125 0.25
vt 0.625 0.25
vt 0.572009 0.25
vt 0.4102343 0.25
vt 0.625 0.5
vt 0.625 0.5
vt 0.572009 0.5
vt 0.375 0.25
vt 0.375 0.5
vt 0.375 0.5
vt 0.4102343 0.5
vt 0.572009 0.5
vt 0.4102343 0.5
vt 0.4102343 0.75
vt 0.375 0.75
vt 0.572009 0.75
vt 0.625 0.75
vt 0.4102343 0.75
vt 0.572009 0.75
vt 0.625 0.75
vt 0.625 1
vt 0.625 1
vt 0.572009 1
vt 0.572009 1
vt 0.4102343 1
vt 0.4102343 1
vt 0.375 1
vt 0.375 1
vt 0.375 0.75
vn 0.9828426 -0.05407356 0.1763419
vn 0.9828426 0.0540736 -0.1763419
vn 0.9828426 -0.05407359 -0.1763418
vn 0.9828426 0.05407357 0.1763419
vn 0.1505957 0.05490674 0.9870695
vn 0.1505956 -0.05490673 0.9870695
vn -0.1505957 0.05490669 0.9870695
vn -0.1505957 -0.05490668 0.9870695
vn -0.9828427 -0.05407353 0.1763415
vn -0.9828426 0.05407356 0.1763415
vn -0.9828427 -0.05407359 -0.1763415
vn -0.9828426 0.0540736 -0.1763415
vn 0.375484 0.9249141 0.05954565
vn 0.01628092 0.9919704 0.1254171
vn -0.01628089 0.9919704 0.1254171
vn 0.375484 0.9249141 -0.05954568
vn 0.9828426 0.0540736 -0.1763419
vn 0.01628092 0.9919705 -0.125417
vn -0.3754842 0.9249141 0.05954549
vn -0.9828426 0.0540736 -0.1763415
vn -0.3754842 0.9249139 -0.05954556
vn -0.01628092 0.9919704 -0.125417
vn 0.1505959 0.05490699 -0.9870695
vn -0.150596 0.05490696 -0.9870695
vn -0.150596 -0.05490698 -0.9870695
vn -0.9828427 -0.05407359 -0.1763415
vn 0.1505959 -0.05490701 -0.9870695
vn 0.9828426 -0.05407359 -0.1763418
vn -0.01628086 -0.9919705 -0.1254167
vn 0.01628086 -0.9919705 -0.1254166
vn 0.375483 -0.9249145 -0.05954542
vn 0.375483 -0.9249145 0.05954541
vn 0.9828426 -0.05407356 0.1763419
vn 0.01628085 -0.9919705 0.1254167
vn 0.1505956 -0.05490673 0.9870695
vn -0.01628085 -0.9919705 0.1254167
vn -0.1505957 -0.05490668 0.9870695
vn -0.3754831 -0.9249145 0.05954532
vn -0.9828427 -0.05407353 0.1763415
vn -0.375483 -0.9249145 -0.05954532
g big_1_0
f 3/3/3 2/2/2 1/1/1
f 2/2/2 4/4/4 1/1/1
f 1/1/1 4/4/4 5/5/5
f 6/6/6 1/1/1 5/5/5
f 6/6/6 5/5/5 7/7/7
f 8/8/8 6/6/6 7/7/7
f 8/8/8 7/7/7 9/9/9
f 7/7/7 10/10/10 9/9/9
f 9/9/9 10/10/10 11/11/11
f 10/10/10 12/12/12 11/11/11
f 4/4/4 13/13/13 5/5/5
f 5/5/5 14/14/14 7/7/7
f 13/13/13 14/14/14 5/5/5
f 7/7/7 15/15/15 10/10/10
f 14/14/14 15/15/15 7/7/7
f 16/16/16 13/13/13 4/4/4
f 17/17/17 16/16/16 4/4/4
f 14/14/14 13/13/13 18/18/18
f 13/13/13 16/16/16 18/18/18
f 15/15/15 14/14/14 18/18/18
f 18/18/18 16/16/16 17/17/17
f 15/15/15 19/19/19 10/10/10
f 10/10/10 19/19/19 20/20/20
f 21/21/21 19/19/19 15/15/15
f 19/19/19 21/21/21 20/20/20
f 22/22/22 15/15/15 18/18/18
f 22/22/22 21/21/21 15/15/15
f 23/23/23 18/18/18 17/17/17
f 22/22/22 18/18/18 23/23/23
f 21/21/21 22/22/22 24/24/24
f 20/20/20 21/21/21 24/24/24
f 24/24/24 22/22/22 23/23/23
f 24/24/24 25/25/25 20/20/20
f 24/24/24 23/23/23 25/25/25
f 25/25/25 26/26/26 20/20/20
f 23/23/23 17/17/17 27/27/27
f 23/23/23 27/27/27 25/25/25
f 17/17/17 28/28/28 27/27/27
f 25/25/25 29/29/29 26/26/26
f 27/27/27 30/30/30 25/25/25
f 30/30/30 29/29/29 25/25/25
f 28/28/28 31/31/31 27/27/27
f 31/31/31 30/30/30 27/27/27
f 32/32/32 31/31/31 28/28/28
f 33/33/33 32/32/32 28/28/28
f 30/30/30 31/31/31 34/34/34
f 31/31/31 32/32/32 34/34/34
f 34/34/34 32/32/32 33/33/33
f 29/29/29 30/30/30 34/34/34
f 35/35/35 34/34/34 33/33/33
f 36/36/36 34/34/34 35/35/35
f 36/36/36 29/29/29 34/34/34
f 37/37/37 36/36/36 35/35/35
f 38/38/38 36/36/36 37/37/37
f 36/36/36 38/38/38 29/29/29
f 39/39/39 38/38/38 37/37/37
f 26/26/26 40/40/40 39/39/39
f 29/29/29 40/40/40 26/26/26
f 40/40/40 38/38/38 39/39/39
f 38/38/38 40/40/40 29/29/29
