g big_face
v -0.2738627 0 1.13677
v 0.3260924 0 1.052431
v 0.2738627 0 1.13677
v -0.3260924 0 1.052431
v 0.3260924 0 -1.072258
v -0.3260924 0 -1.072258
v 0.2738627 0 -1.157235
v -0.2738627 0 -1.157235
vt 0 0
vt 1 0.06795821
vt 1 0
vt 0 0.06795821
vt 1 0.9317643
vt 0 0.9317643
vt 1 1
vt 0 1
vn 0 1 0
vn 0 1 0
vn 0 1 0
vn 0 1 0
vn 0 1 0
vn 0 1 0
vn 0 1 0
vn 0 1 0
g big_face_0
f 3/3/3 2/2/2 1/1/1
f 2/2/2 4/4/4 1/1/1
f 2/2/2 5/5/5 4/4/4
f 5/5/5 6/6/6 4/4/4
f 5/5/5 7/7/7 6/6/6
f 7/7/7 8/8/8 6/6/6
