g big_3
v 0.6464145 -0.5385576 0.4821685
v 0.6464145 0.5299301 -0.4821687
v 0.6464145 -0.5385576 -0.4821687
v 0.6464145 0.5299301 0.4821685
v 0.4463265 0.5299301 0.6464155
v 0.4463265 -0.5385576 0.6464155
v -0.4463258 0.5299301 0.6464155
v -0.4463258 -0.5385576 0.6464155
v -0.6464135 -0.5385576 0.4821685
v -0.6464135 0.5299301 0.4821685
v -0.6464135 -0.5385576 -0.4821687
v -0.6464135 0.5299301 -0.4821687
v 0.5710001 0.642976 0.4259166
v 0.3942558 0.642976 0.5710008
v -0.3942558 0.642976 0.5710008
v 0.5710001 0.642976 -0.4259162
v 0.6464145 0.5299301 -0.4821687
v 0.3942558 0.642976 -0.5710005
v -0.571 0.642976 0.4259166
v -0.6464135 0.5299301 -0.4821687
v -0.571 0.642976 -0.4259162
v -0.3942558 0.642976 -0.5710005
v 0.4463265 0.5299301 -0.6464154
v -0.4463258 0.5299301 -0.6464154
v -0.4463258 -0.5385576 -0.6464154
v -0.6464135 -0.5385576 -0.4821687
v 0.4463265 -0.5385576 -0.6464154
v 0.6464145 -0.5385576 -0.4821687
v -0.3942558 -0.6516035 -0.5710005
v 0.3942558 -0.6516035 -0.5710005
v 0.5710001 -0.6516035 -0.4259162
v 0.5710001 -0.6516035 0.4259166
v 0.6464145 -0.5385576 0.4821685
v 0.3942558 -0.6516035 0.5710008
v 0.4463265 -0.5385576 0.6464155
v -0.3942558 -0.6516035 0.5710008
v -0.4463258 -0.5385576 0.6464155
v -0.571 -0.6516035 0.4259166
v -0.6464135 -0.5385576 0.4821685
v -0.571 -0.6516035 -0.4259162
vt 0.625 0
vt 0.875 0.25
vt 0.875 0
vt 0.625 0.25
vt 0.572009 0.25
vt 0.572009 0
vt 0.4102343 0.25
vt 0.4102343 0
vt 0.375 0
vt 0.375 0.25
vt 0.125 0
vt 0.125 0.25
vt 0.625 0.25
vt 0.572009 0.25
vt 0.4102343 0.25
vt 0.625 0.5
vt 0.625 0.5
vt 0.572009 0.5
vt 0.375 0.25
vt 0.375 0.5
vt 0.375 0.5
vt 0.4102343 0.5
vt 0.572009 0.5
vt 0.4102343 0.5
vt 0.4102343 0.75
vt 0.375 0.75
vt 0.572009 0.75
vt 0.625 0.75
vt 0.4102343 0.75
vt 0.572009 0.75
vt 0.625 0.75
vt 0.625 1
vt 0.625 1
vt 0.572009 1
vt 0.572009 1
vt 0.4102343 1
vt 0.4102343 1
vt 0.375 1
vt 0.375 1
vt 0.375 0.75
vn 0.9828433 -0.05407336 0.1763381
vn 0.9828433 0.05407334 -0.1763382
vn 0.9828433 -0.05407333 -0.1763382
vn 0.9828433 0.05407336 0.1763381
vn 0.1505962 0.05490622 0.9870695
vn 0.1505962 -0.05490623 0.9870695
vn -0.1505962 0.05490622 0.9870695
vn -0.1505962 -0.05490621 0.9870695
vn -0.9828433 -0.05407291 0.176338
vn -0.9828433 0.05407291 0.176338
vn -0.9828433 -0.0540729 -0.1763381
vn -0.9828433 0.0540729 -0.1763381
vn 0.3754863 0.9249132 0.05954495
vn 0.01628079 0.9919705 0.1254164
vn -0.01628083 0.9919705 0.1254162
vn 0.3754865 0.9249132 -0.05954481
vn 0.9828433 0.05407334 -0.1763382
vn 0.01628078 0.9919705 -0.1254164
vn -0.3754873 0.9249128 0.05954497
vn -0.9828433 0.0540729 -0.1763381
vn -0.3754875 0.9249126 -0.05954485
vn -0.01628082 0.9919705 -0.1254162
vn 0.1505959 0.05490648 -0.9870695
vn -0.1505959 0.05490648 -0.9870695
vn -0.1505959 -0.05490645 -0.9870695
vn -0.9828433 -0.0540729 -0.1763381
vn 0.1505959 -0.05490645 -0.9870695
vn 0.9828433 -0.05407333 -0.1763382
vn -0.01628081 -0.9919705 -0.1254161
vn 0.01628077 -0.9919705 -0.1254163
vn 0.3754863 -0.9249132 -0.05954478
vn 0.3754861 -0.9249132 0.05954491
vn 0.9828433 -0.05407336 0.1763381
vn 0.01628079 -0.9919705 0.1254163
vn 0.1505962 -0.05490623 0.9870695
vn -0.01628084 -0.9919705 0.1254162
vn -0.1505962 -0.05490621 0.9870695
vn -0.3754874 -0.9249128 0.05954494
vn -0.9828433 -0.05407291 0.176338
vn -0.3754876 -0.9249126 -0.05954477
g big_3_0
f 3/3/3 2/2/2 1/1/1
f 2/2/2 4/4/4 1/1/1
f 1/1/1 4/4/4 5/5/5
f 6/6/6 1/1/1 5/5/5
f 6/6/6 5/5/5 7/7/7
f 8/8/8 6/6/6 7/7/7
f 8/8/8 7/7/7 9/9/9
f 7/7/7 10/10/10 9/9/9
f 9/9/9 10/10/10 11/11/11
f 10/10/10 12/12/12 11/11/11
f 4/4/4 13/13/13 5/5/5
f 5/5/5 14/14/14 7/7/7
f 13/13/13 14/14/14 5/5/5
f 7/7/7 15/15/15 10/10/10
f 14/14/14 15/15/15 7/7/7
f 16/16/16 13/13/13 4/4/4
f 17/17/17 16/16/16 4/4/4
f 14/14/14 13/13/13 18/18/18
f 13/13/13 16/16/16 18/18/18
f 15/15/15 14/14/14 18/18/18
f 18/18/18 16/16/16 17/17/17
f 15/15/15 19/19/19 10/10/10
f 10/10/10 19/19/19 20/20/20
f 21/21/21 19/19/19 15/15/15
f 19/19/19 21/21/21 20/20/20
f 22/22/22 15/15/15 18/18/18
f 22/22/22 21/21/21 15/15/15
f 23/23/23 18/18/18 17/17/17
f 22/22/22 18/18/18 23/23/23
f 21/21/21 22/22/22 24/24/24
f 20/20/20 21/21/21 24/24/24
f 24/24/24 22/22/22 23/23/23
f 24/24/24 25/25/25 20/20/20
f 24/24/24 23/23/23 25/25/25
f 25/25/25 26/26/26 20/20/20
f 23/23/23 17/17/17 27/27/27
f 23/23/23 27/27/27 25/25/25
f 17/17/17 28/28/28 27/27/27
f 25/25/25 29/29/29 26/26/26
f 27/27/27 30/30/30 25/25/25
f 30/30/30 29/29/29 25/25/25
f 28/28/28 31/31/31 27/27/27
f 31/31/31 30/30/30 27/27/27
f 32/32/32 31/31/31 28/28/28
f 33/33/33 32/32/32 28/28/28
f 30/30/30 31/31/31 34/34/34
f 31/31/31 32/32/32 34/34/34
f 34/34/34 32/32/32 33/33/33
f 29/29/29 30/30/30 34/34/34
f 35/35/35 34/34/34 33/33/33
f 36/36/36 34/34/34 35/35/35
f 36/36/36 29/29/29 34/34/34
f 37/37/37 36/36/36 35/35/35
f 38/38/38 36/36/36 37/37/37
f 36/36/36 38/38/38 29/29/29
f 39/39/39 38/38/38 37/37/37
f 26/26/26 40/40/40 39/39/39
f 29/29/29 40/40/40 26/26/26
f 40/40/40 38/38/38 39/39/39
f 38/38/38 40/40/40 29/29/29
