g big_3
v -0.6464135 -0.5385576 0.4821685
v -0.6464135 0.5299301 0.4821685
v -0.4463258 0.5299301 0.6464155
v -0.4463258 -0.5385576 0.6464155
v -0.6464135 -0.5385576 -0.4821687
v -0.6464135 0.5299301 -0.4821687
v 0.4463265 -0.5385576 0.6464155
v 0.4463265 0.5299301 0.6464155
v 0.6464145 -0.5385576 0.4821685
v 0.6464145 0.5299301 0.4821685
v 0.6464145 0.5299301 -0.4821687
v 0.6464145 -0.5385576 -0.4821687
v -0.3942558 0.642976 0.5710008
v -0.571 0.642976 0.4259166
v -0.6464135 0.5299301 -0.4821687
v -0.571 0.642976 -0.4259162
v -0.4463258 0.5299301 -0.6464154
v -0.4463258 -0.5385576 -0.6464154
v -0.6464135 -0.5385576 -0.4821687
v 0.4463265 0.5299301 -0.6464154
v 0.4463265 -0.5385576 -0.6464154
v 0.6464145 0.5299301 -0.4821687
v 0.6464145 -0.5385576 -0.4821687
v -0.3942558 0.642976 -0.5710005
v 0.3942558 0.642976 -0.5710005
v 0.3942558 0.642976 0.5710008
v 0.5710001 0.642976 0.4259166
v 0.5710001 0.642976 -0.4259162
v -0.3942558 -0.6516035 -0.5710005
v -0.571 -0.6516035 -0.4259162
v -0.6464135 -0.5385576 0.4821685
v -0.571 -0.6516035 0.4259166
v -0.4463258 -0.5385576 0.6464155
v -0.3942558 -0.6516035 0.5710008
v 0.3942558 -0.6516035 0.5710008
v 0.3942558 -0.6516035 -0.5710005
v 0.4463265 -0.5385576 0.6464155
v 0.5710001 -0.6516035 -0.4259162
v 0.5710001 -0.6516035 0.4259166
v 0.6464145 -0.5385576 0.4821685
vt 0.375 0
vt 0.375 0.25
vt 0.4102343 0.25
vt 0.4102343 0
vt 0.125 0
vt 0.125 0.25
vt 0.572009 0
vt 0.572009 0.25
vt 0.625 0
vt 0.625 0.25
vt 0.875 0.25
vt 0.875 0
vt 0.4102343 0.25
vt 0.375 0.25
vt 0.375 0.5
vt 0.375 0.5
vt 0.4102343 0.5
vt 0.4102343 0.75
vt 0.375 0.75
vt 0.572009 0.5
vt 0.572009 0.75
vt 0.625 0.5
vt 0.625 0.75
vt 0.4102343 0.5
vt 0.572009 0.5
vt 0.572009 0.25
vt 0.625 0.25
vt 0.625 0.5
vt 0.4102343 0.75
vt 0.375 0.75
vt 0.375 1
vt 0.375 1
vt 0.4102343 1
vt 0.4102343 1
vt 0.572009 1
vt 0.572009 0.75
vt 0.572009 1
vt 0.625 0.75
vt 0.625 1
vt 0.625 1
vn -0.9828433 -0.05407291 0.176338
vn -0.9828433 0.05407291 0.176338
vn -0.1505962 0.05490622 0.9870694
vn -0.1505962 -0.05490621 0.9870694
vn -0.9828433 -0.0540729 -0.1763381
vn -0.9828433 0.0540729 -0.1763381
vn 0.1505962 -0.05490623 0.9870694
vn 0.1505962 0.05490622 0.9870694
vn 0.9828433 -0.05407336 0.1763381
vn 0.9828433 0.05407336 0.1763381
vn 0.9828433 0.05407334 -0.1763382
vn 0.9828433 -0.05407333 -0.1763382
vn -0.01628083 0.9919706 0.1254162
vn -0.3754873 0.9249128 0.05954497
vn -0.9828433 0.0540729 -0.1763381
vn -0.3754876 0.9249127 -0.05954485
vn -0.1505959 0.05490648 -0.9870694
vn -0.1505959 -0.05490645 -0.9870694
vn -0.9828433 -0.0540729 -0.1763381
vn 0.1505959 0.05490647 -0.9870694
vn 0.1505959 -0.05490645 -0.9870694
vn 0.9828433 0.05407334 -0.1763382
vn 0.9828433 -0.05407333 -0.1763382
vn -0.01628082 0.9919706 -0.1254162
vn 0.01628078 0.9919706 -0.1254164
vn 0.01628079 0.9919706 0.1254164
vn 0.3754863 0.9249132 0.05954495
vn 0.3754865 0.9249132 -0.05954481
vn -0.01628081 -0.9919706 -0.1254161
vn -0.3754876 -0.9249127 -0.05954478
vn -0.9828433 -0.05407291 0.176338
vn -0.3754874 -0.9249128 0.05954494
vn -0.1505962 -0.05490621 0.9870694
vn -0.01628084 -0.9919706 0.1254162
vn 0.01628079 -0.9919706 0.1254163
vn 0.01628077 -0.9919706 -0.1254163
vn 0.1505962 -0.05490623 0.9870694
vn 0.3754863 -0.9249132 -0.05954478
vn 0.3754861 -0.9249133 0.05954492
vn 0.9828433 -0.05407336 0.1763381
g big_3_0
f 3/3/3 2/2/2 1/1/1
f 4/4/4 3/3/3 1/1/1
f 1/1/1 2/2/2 5/5/5
f 2/2/2 6/6/6 5/5/5
f 4/4/4 7/7/7 3/3/3
f 7/7/7 8/8/8 3/3/3
f 7/7/7 9/9/9 8/8/8
f 9/9/9 10/10/10 8/8/8
f 11/11/11 10/10/10 9/9/9
f 12/12/12 11/11/11 9/9/9
f 3/3/3 13/13/13 2/2/2
f 13/13/13 14/14/14 2/2/2
f 2/2/2 14/14/14 15/15/15
f 14/14/14 16/16/16 15/15/15
f 16/16/16 14/14/14 13/13/13
f 15/15/15 16/16/16 17/17/17
f 17/17/17 18/18/18 15/15/15
f 18/18/18 19/19/19 15/15/15
f 17/17/17 20/20/20 18/18/18
f 20/20/20 21/21/21 18/18/18
f 20/20/20 22/22/22 21/21/21
f 22/22/22 23/23/23 21/21/21
f 17/17/17 24/24/24 20/20/20
f 16/16/16 24/24/24 17/17/17
f 24/24/24 16/16/16 13/13/13
f 24/24/24 13/13/13 25/25/25
f 24/24/24 25/25/25 20/20/20
f 20/20/20 25/25/25 22/22/22
f 13/13/13 26/26/26 25/25/25
f 26/26/26 13/13/13 3/3/3
f 8/8/8 26/26/26 3/3/3
f 27/27/27 26/26/26 8/8/8
f 26/26/26 27/27/27 25/25/25
f 10/10/10 27/27/27 8/8/8
f 28/28/28 27/27/27 10/10/10
f 22/22/22 28/28/28 10/10/10
f 25/25/25 28/28/28 22/22/22
f 27/27/27 28/28/28 25/25/25
f 18/18/18 29/29/29 19/19/19
f 29/29/29 30/30/30 19/19/19
f 19/19/19 30/30/30 31/31/31
f 30/30/30 32/32/32 31/31/31
f 32/32/32 30/30/30 29/29/29
f 31/31/31 32/32/32 33/33/33
f 32/32/32 34/34/34 33/33/33
f 34/34/34 32/32/32 29/29/29
f 34/34/34 29/29/29 35/35/35
f 29/29/29 36/36/36 35/35/35
f 34/34/34 35/35/35 37/37/37
f 33/33/33 34/34/34 37/37/37
f 36/36/36 29/29/29 18/18/18
f 21/21/21 36/36/36 18/18/18
f 38/38/38 36/36/36 21/21/21
f 36/36/36 38/38/38 35/35/35
f 23/23/23 38/38/38 21/21/21
f 39/39/39 38/38/38 23/23/23
f 38/38/38 39/39/39 35/35/35
f 40/40/40 39/39/39 23/23/23
f 35/35/35 39/39/39 40/40/40
f 37/37/37 35/35/35 40/40/40
