g big_face
v -0.2892821 0 1.02773
v 0.3260924 0 0.9433906
v 0.2738627 0 1.02773
v -0.3415117 0 0.9433906
v 0.3260924 0 -0.7792261
v -0.3415117 0 -0.7792261
v 0.2738627 0 -0.8642025
v -0.2892821 0 -0.8642025
vt 0 0
vt 1 0.06795821
vt 1 0
vt 0 0.06795821
vt 1 0.9317643
vt 0 0.9317643
vt 1 1
vt 0 1
vn 0 1 0
vn 0 1 0
vn 0 1 0
vn 0 1 0
vn 0 1 0
vn 0 1 0
vn 0 1 0
vn 0 1 0
g big_face_0
f 3/3/3 2/2/2 1/1/1
f 2/2/2 4/4/4 1/1/1
f 2/2/2 5/5/5 4/4/4
f 5/5/5 6/6/6 4/4/4
f 5/5/5 7/7/7 6/6/6
f 7/7/7 8/8/8 6/6/6
