g big_explo
v -0.4643188 -0.4643188 -0.4643188
v -0.4643188 -0.4643188 0.4643188
v 0.4643188 -0.4643188 0.4643188
v 0.4643188 -0.4643188 -0.4643188
v -0.4643188 0.4643188 -0.4643188
v 0.4643188 0.4643188 -0.4643188
v -0.4643188 0.4643188 0.4643188
v 0.4643188 0.4643188 0.4643188
v -0.4643188 -0.4643188 0.4643188
v -0.4643188 -0.4643188 -0.4643188
v -0.4643188 0.4643188 -0.4643188
v 0.4643188 -0.4643188 0.4643188
v 0.4643188 0.4643188 -0.4643188
v 0.4643188 -0.4643188 -0.4643188
vt 0.375 0.75
vt 0.375 1
vt 0.625 1
vt 0.625 0.75
vt 0.375 0.5
vt 0.625 0.5
vt 0.375 0.25
vt 0.625 0.25
vt 0.375 0
vt 0.125 0
vt 0.125 0.25
vt 0.625 0
vt 0.875 0.25
vt 0.875 0
vn -0.5773503 -0.5773503 -0.5773503
vn -0.5773503 -0.5773503 0.5773503
vn 0.5773503 -0.5773503 0.5773503
vn 0.5773503 -0.5773503 -0.5773503
vn -0.5773503 0.5773503 -0.5773503
vn 0.5773503 0.5773503 -0.5773503
vn -0.5773503 0.5773503 0.5773503
vn 0.5773503 0.5773503 0.5773503
vn -0.5773503 -0.5773503 0.5773503
vn -0.5773503 -0.5773503 -0.5773503
vn -0.5773503 0.5773503 -0.5773503
vn 0.5773503 -0.5773503 0.5773503
vn 0.5773503 0.5773503 -0.5773503
vn 0.5773503 -0.5773503 -0.5773503
g big_explo_0
f 3/3/3 2/2/2 1/1/1
f 4/4/4 3/3/3 1/1/1
f 4/4/4 1/1/1 5/5/5
f 6/6/6 4/4/4 5/5/5
f 6/6/6 5/5/5 7/7/7
f 8/8/8 6/6/6 7/7/7
f 8/8/8 7/7/7 9/9/9
f 9/9/9 7/7/7 10/10/10
f 7/7/7 11/11/11 10/10/10
f 12/12/12 8/8/8 9/9/9
f 13/13/13 8/8/8 12/12/12
f 14/14/14 13/13/13 12/12/12
