g big_face1
v -0.213165 0 0.5368278
v 0.2520386 0 0.462641
v 0.1998089 0 0.5368278
v -0.2653947 0 0.462641
v 0.2520386 0 -0.475181
v -0.2653947 0 -0.475181
v 0.1998089 0 -0.5499279
v -0.213165 0 -0.5499279
vt 0 0
vt 1 0.06795821
vt 1 0
vt 0 0.06795821
vt 1 0.9317643
vt 0 0.9317643
vt 1 1
vt 0 1
vn 0 1 0
vn 0 1 0
vn 0 1 0
vn 0 1 0
vn 0 1 0
vn 0 1 0
vn 0 1 0
vn 0 1 0
g big_face1_0
f 3/3/3 2/2/2 1/1/1
f 2/2/2 4/4/4 1/1/1
f 2/2/2 5/5/5 4/4/4
f 5/5/5 6/6/6 4/4/4
f 5/5/5 7/7/7 6/6/6
f 7/7/7 8/8/8 6/6/6
