g big_8
v -0.6477551 -0.5353515 0.4831689
v -0.6477551 0.1287652 0.4831689
v -0.4472482 0.1287652 0.647757
v -0.4472482 -0.5353515 0.647757
v -0.6477551 -0.5353515 -0.4831688
v -0.6477551 0.1287652 -0.4831688
v 0.44725 -0.5353515 0.647757
v 0.44725 0.1287652 0.647757
v 0.6477569 -0.5353515 0.4831689
v 0.6477569 0.1287652 0.4831689
v 0.6477569 0.1287652 -0.4831688
v 0.6477569 -0.5353515 -0.4831688
v -0.3950694 0.2420458 0.572185
v -0.572185 0.2420458 0.4267987
v -0.6477551 0.1287652 -0.4831688
v -0.572185 0.2420458 -0.4267986
v -0.4472482 0.1287652 -0.6477571
v -0.4472482 -0.5353515 -0.6477571
v -0.6477551 -0.5353515 -0.4831688
v 0.44725 0.1287652 -0.6477571
v 0.44725 -0.5353515 -0.6477571
v 0.6477569 0.1287652 -0.4831688
v 0.6477569 -0.5353515 -0.4831688
v -0.3950694 0.2420458 -0.5721849
v 0.3950711 0.2420458 -0.5721849
v 0.3950711 0.2420458 0.572185
v 0.572185 0.2420458 0.4267987
v 0.572185 0.2420458 -0.4267986
v -0.3950694 -0.6486324 -0.5721849
v -0.572185 -0.6486324 -0.4267986
v -0.6477551 -0.5353515 0.4831689
v -0.572185 -0.6486324 0.4267987
v -0.4472482 -0.5353515 0.647757
v -0.3950694 -0.6486324 0.572185
v 0.3950711 -0.6486324 0.572185
v 0.3950711 -0.6486324 -0.5721849
v 0.44725 -0.5353515 0.647757
v 0.572185 -0.6486324 -0.4267986
v 0.572185 -0.6486324 0.4267987
v 0.6477569 -0.5353515 0.4831689
vt 0.375 0
vt 0.375 0.25
vt 0.4102343 0.25
vt 0.4102343 0
vt 0.125 0
vt 0.125 0.25
vt 0.572009 0
vt 0.572009 0.25
vt 0.625 0
vt 0.625 0.25
vt 0.875 0.25
vt 0.875 0
vt 0.4102343 0.25
vt 0.375 0.25
vt 0.375 0.5
vt 0.375 0.5
vt 0.4102343 0.5
vt 0.4102343 0.75
vt 0.375 0.75
vt 0.572009 0.5
vt 0.572009 0.75
vt 0.625 0.5
vt 0.625 0.75
vt 0.4102343 0.5
vt 0.572009 0.5
vt 0.572009 0.25
vt 0.625 0.25
vt 0.625 0.5
vt 0.4102343 0.75
vt 0.375 0.75
vt 0.375 1
vt 0.375 1
vt 0.4102343 1
vt 0.4102343 1
vt 0.572009 1
vt 0.572009 0.75
vt 0.572009 1
vt 0.625 0.75
vt 0.625 1
vt 0.625 1
vn -0.9806607 -0.08333932 0.1770853
vn -0.9806607 0.08333935 0.1770853
vn -0.1514652 0.08448841 0.9848452
vn -0.1514652 -0.08448841 0.9848452
vn -0.9806607 -0.08333933 -0.1770852
vn -0.9806607 0.08333939 -0.1770853
vn 0.1514653 -0.08448851 0.9848452
vn 0.1514653 0.08448852 0.9848452
vn 0.9806606 -0.08334076 0.1770851
vn 0.9806606 0.08334073 0.1770851
vn 0.9806606 0.08334074 -0.1770851
vn 0.9806606 -0.08334077 -0.1770851
vn -0.01628092 0.9919705 0.1254167
vn -0.3754829 0.9249145 0.0595454
vn -0.9806607 0.08333939 -0.1770853
vn -0.3754828 0.9249146 -0.05954543
vn -0.1514654 0.0844886 -0.9848451
vn -0.1514654 -0.08448861 -0.9848451
vn -0.9806607 -0.08333933 -0.1770852
vn 0.1514655 0.08448872 -0.9848451
vn 0.1514654 -0.0844887 -0.9848451
vn 0.9806606 0.08334074 -0.1770851
vn 0.9806606 -0.08334077 -0.1770851
vn -0.01628094 0.9919705 -0.1254166
vn 0.01628098 0.9919705 -0.1254167
vn 0.01628096 0.9919705 0.1254168
vn 0.3754827 0.9249147 0.05954531
vn 0.3754827 0.9249147 -0.05954533
vn -0.01628097 -0.9919705 -0.1254169
vn -0.375484 -0.9249141 -0.05954554
vn -0.9806607 -0.08333932 0.1770853
vn -0.3754841 -0.9249141 0.05954553
vn -0.1514652 -0.08448841 0.9848452
vn -0.01628096 -0.9919705 0.1254169
vn 0.016281 -0.9919705 0.125417
vn 0.01628101 -0.9919705 -0.125417
vn 0.1514653 -0.08448851 0.9848452
vn 0.3754835 -0.9249143 -0.05954546
vn 0.3754835 -0.9249143 0.05954544
vn 0.9806606 -0.08334076 0.1770851
g big_8_0
f 3/3/3 2/2/2 1/1/1
f 4/4/4 3/3/3 1/1/1
f 1/1/1 2/2/2 5/5/5
f 2/2/2 6/6/6 5/5/5
f 4/4/4 7/7/7 3/3/3
f 7/7/7 8/8/8 3/3/3
f 7/7/7 9/9/9 8/8/8
f 9/9/9 10/10/10 8/8/8
f 11/11/11 10/10/10 9/9/9
f 12/12/12 11/11/11 9/9/9
f 3/3/3 13/13/13 2/2/2
f 13/13/13 14/14/14 2/2/2
f 2/2/2 14/14/14 15/15/15
f 14/14/14 16/16/16 15/15/15
f 16/16/16 14/14/14 13/13/13
f 15/15/15 16/16/16 17/17/17
f 17/17/17 18/18/18 15/15/15
f 18/18/18 19/19/19 15/15/15
f 17/17/17 20/20/20 18/18/18
f 20/20/20 21/21/21 18/18/18
f 20/20/20 22/22/22 21/21/21
f 22/22/22 23/23/23 21/21/21
f 17/17/17 24/24/24 20/20/20
f 16/16/16 24/24/24 17/17/17
f 24/24/24 16/16/16 13/13/13
f 24/24/24 13/13/13 25/25/25
f 24/24/24 25/25/25 20/20/20
f 20/20/20 25/25/25 22/22/22
f 13/13/13 26/26/26 25/25/25
f 26/26/26 13/13/13 3/3/3
f 8/8/8 26/26/26 3/3/3
f 27/27/27 26/26/26 8/8/8
f 26/26/26 27/27/27 25/25/25
f 10/10/10 27/27/27 8/8/8
f 28/28/28 27/27/27 10/10/10
f 22/22/22 28/28/28 10/10/10
f 25/25/25 28/28/28 22/22/22
f 27/27/27 28/28/28 25/25/25
f 18/18/18 29/29/29 19/19/19
f 29/29/29 30/30/30 19/19/19
f 19/19/19 30/30/30 31/31/31
f 30/30/30 32/32/32 31/31/31
f 32/32/32 30/30/30 29/29/29
f 31/31/31 32/32/32 33/33/33
f 32/32/32 34/34/34 33/33/33
f 34/34/34 32/32/32 29/29/29
f 34/34/34 29/29/29 35/35/35
f 29/29/29 36/36/36 35/35/35
f 34/34/34 35/35/35 37/37/37
f 33/33/33 34/34/34 37/37/37
f 36/36/36 29/29/29 18/18/18
f 21/21/21 36/36/36 18/18/18
f 38/38/38 36/36/36 21/21/21
f 36/36/36 38/38/38 35/35/35
f 23/23/23 38/38/38 21/21/21
f 39/39/39 38/38/38 23/23/23
f 38/38/38 39/39/39 35/35/35
f 40/40/40 39/39/39 23/23/23
f 35/35/35 39/39/39 40/40/40
f 37/37/37 35/35/35 40/40/40
