g big_7
v -0.5104392 -0.4218632 0.6053028
v -0.5104392 0.4218633 0.6053028
v -0.3524369 0.4218633 0.7400091
v -0.3524369 -0.4218632 0.7400091
v -0.5104392 -0.4218632 -0.7254952
v -0.5104392 0.4218633 -0.7254952
v 0.3524367 -0.4218632 0.7400091
v 0.3524367 0.4218633 0.7400091
v 0.5104402 -0.4218632 0.6053028
v 0.5104402 0.4218633 0.6053028
v 0.5104402 0.4218633 -0.7254952
v 0.5104402 -0.4218632 -0.7254952
v -0.311319 0.5111292 0.6466604
v -0.4508899 0.5111292 0.5276732
v -0.5104392 0.4218633 -0.7254952
v -0.4508899 0.5111292 -0.6478648
v -0.3524369 0.4218633 -0.8602002
v -0.3524369 -0.4218632 -0.8602002
v -0.5104392 -0.4218632 -0.7254952
v 0.3524367 0.4218633 -0.8602002
v 0.3524367 -0.4218632 -0.8602002
v 0.5104402 0.4218633 -0.7254952
v 0.5104402 -0.4218632 -0.7254952
v -0.311319 0.5111292 -0.7668518
v 0.3113185 0.5111292 -0.7668518
v 0.3113185 0.5111292 0.6466604
v 0.450887 0.5111292 0.5276732
v 0.450887 0.5111292 -0.6478648
v -0.311319 -0.5111294 -0.7668518
v -0.4508899 -0.5111294 -0.6478648
v -0.5104392 -0.4218632 0.6053028
v -0.4508899 -0.5111294 0.5276732
v -0.3524369 -0.4218632 0.7400091
v -0.311319 -0.5111294 0.6466604
v 0.3113185 -0.5111294 0.6466604
v 0.3113185 -0.5111294 -0.7668518
v 0.3524367 -0.4218632 0.7400091
v 0.450887 -0.5111294 -0.6478648
v 0.450887 -0.5111294 0.5276732
v 0.5104402 -0.4218632 0.6053028
vt 0.375 0
vt 0.375 0.25
vt 0.4102343 0.25
vt 0.4102343 0
vt 0.125 0
vt 0.125 0.25
vt 0.572009 0
vt 0.572009 0.25
vt 0.625 0
vt 0.625 0.25
vt 0.875 0.25
vt 0.875 0
vt 0.4102343 0.25
vt 0.375 0.25
vt 0.375 0.5
vt 0.375 0.5
vt 0.4102343 0.5
vt 0.4102343 0.75
vt 0.375 0.75
vt 0.572009 0.5
vt 0.572009 0.75
vt 0.625 0.5
vt 0.625 0.75
vt 0.4102343 0.5
vt 0.572009 0.5
vt 0.572009 0.25
vt 0.625 0.25
vt 0.625 0.5
vt 0.4102343 0.75
vt 0.375 0.75
vt 0.375 1
vt 0.375 1
vt 0.4102343 1
vt 0.4102343 1
vt 0.572009 1
vt 0.572009 0.75
vt 0.572009 1
vt 0.625 0.75
vt 0.625 1
vt 0.625 1
vn -0.9926443 -0.04863029 0.1108712
vn -0.9926443 0.04863027 0.1108712
vn -0.1543649 0.082881 0.9845315
vn -0.1543649 -0.08288101 0.9845315
vn -0.9926443 -0.04863019 -0.1108713
vn -0.9926443 0.04863018 -0.1108713
vn 0.1543648 -0.08288112 0.9845315
vn 0.1543648 0.08288109 0.9845315
vn 0.9926441 -0.04863283 0.1108717
vn 0.9926441 0.0486328 0.1108717
vn 0.9926441 0.04863273 -0.1108718
vn 0.9926441 -0.04863276 -0.1108718
vn -0.0119486 0.9967469 0.07970452
vn -0.3988715 0.9164875 0.03085753
vn -0.9926443 0.04863018 -0.1108713
vn -0.3988719 0.9164873 -0.0308575
vn -0.1543638 0.08288094 -0.9845316
vn -0.1543638 -0.08288091 -0.9845316
vn -0.9926443 -0.04863019 -0.1108713
vn 0.1543636 0.08288105 -0.9845316
vn 0.1543636 -0.08288103 -0.9845316
vn 0.9926441 0.04863273 -0.1108718
vn 0.9926441 -0.04863276 -0.1108718
vn -0.01194853 0.9967469 -0.07970454
vn 0.01194859 0.9967469 -0.07970476
vn 0.01194867 0.9967469 0.07970477
vn 0.3988678 0.9164891 0.03085757
vn 0.3988682 0.9164889 -0.03085752
vn -0.01194855 -0.9967469 -0.07970476
vn -0.3988729 -0.9164869 -0.03085756
vn -0.9926443 -0.04863029 0.1108712
vn -0.3988725 -0.916487 0.03085763
vn -0.1543649 -0.08288101 0.9845315
vn -0.01194863 -0.9967469 0.07970477
vn 0.01194869 -0.9967468 0.07970499
vn 0.01194862 -0.9967468 -0.07970501
vn 0.1543648 -0.08288112 0.9845315
vn 0.398869 -0.9164886 -0.03085759
vn 0.3988686 -0.9164888 0.03085765
vn 0.9926441 -0.04863283 0.1108717
g big_7_0
f 3/3/3 2/2/2 1/1/1
f 4/4/4 3/3/3 1/1/1
f 1/1/1 2/2/2 5/5/5
f 2/2/2 6/6/6 5/5/5
f 4/4/4 7/7/7 3/3/3
f 7/7/7 8/8/8 3/3/3
f 7/7/7 9/9/9 8/8/8
f 9/9/9 10/10/10 8/8/8
f 11/11/11 10/10/10 9/9/9
f 12/12/12 11/11/11 9/9/9
f 3/3/3 13/13/13 2/2/2
f 13/13/13 14/14/14 2/2/2
f 2/2/2 14/14/14 15/15/15
f 14/14/14 16/16/16 15/15/15
f 16/16/16 14/14/14 13/13/13
f 15/15/15 16/16/16 17/17/17
f 17/17/17 18/18/18 15/15/15
f 18/18/18 19/19/19 15/15/15
f 17/17/17 20/20/20 18/18/18
f 20/20/20 21/21/21 18/18/18
f 20/20/20 22/22/22 21/21/21
f 22/22/22 23/23/23 21/21/21
f 17/17/17 24/24/24 20/20/20
f 16/16/16 24/24/24 17/17/17
f 24/24/24 16/16/16 13/13/13
f 24/24/24 13/13/13 25/25/25
f 24/24/24 25/25/25 20/20/20
f 20/20/20 25/25/25 22/22/22
f 13/13/13 26/26/26 25/25/25
f 26/26/26 13/13/13 3/3/3
f 8/8/8 26/26/26 3/3/3
f 27/27/27 26/26/26 8/8/8
f 26/26/26 27/27/27 25/25/25
f 10/10/10 27/27/27 8/8/8
f 28/28/28 27/27/27 10/10/10
f 22/22/22 28/28/28 10/10/10
f 25/25/25 28/28/28 22/22/22
f 27/27/27 28/28/28 25/25/25
f 18/18/18 29/29/29 19/19/19
f 29/29/29 30/30/30 19/19/19
f 19/19/19 30/30/30 31/31/31
f 30/30/30 32/32/32 31/31/31
f 32/32/32 30/30/30 29/29/29
f 31/31/31 32/32/32 33/33/33
f 32/32/32 34/34/34 33/33/33
f 34/34/34 32/32/32 29/29/29
f 34/34/34 29/29/29 35/35/35
f 29/29/29 36/36/36 35/35/35
f 34/34/34 35/35/35 37/37/37
f 33/33/33 34/34/34 37/37/37
f 36/36/36 29/29/29 18/18/18
f 21/21/21 36/36/36 18/18/18
f 38/38/38 36/36/36 21/21/21
f 36/36/36 38/38/38 35/35/35
f 23/23/23 38/38/38 21/21/21
f 39/39/39 38/38/38 23/23/23
f 38/38/38 39/39/39 35/35/35
f 40/40/40 39/39/39 23/23/23
f 35/35/35 39/39/39 40/40/40
f 37/37/37 35/35/35 40/40/40
