g propera4
v 0.5979057 -0.02115325 -0.1085194
v 0.5979057 0.03074983 -0.1085194
v 0.08710007 0.03074983 -0.1085194
v 0.08710007 -0.02115325 -0.1085194
v 0.08710007 -0.02115325 0.1077574
v 0.5979057 -0.02115325 0.1077574
v 0.02161667 -0.02115325 0.02105208
v 0.02161667 -0.02115325 -0.02181413
v -0.02166701 -0.02115203 0.02105208
v 0.02161667 0.03074983 -0.02181413
v -0.02166701 -0.02115203 -0.02181413
v -0.08709914 -0.02115203 0.1077574
v -0.02166701 0.03074983 -0.02181413
v 0.02161667 0.03074983 0.02105208
v -0.08709914 -0.02115203 -0.1085194
v -0.5979048 -0.02115325 0.1077574
v -0.5979048 -0.02115325 -0.1085194
v -0.08709914 0.03074983 -0.1085194
v -0.5979048 0.03074983 -0.1085194
v -0.02166701 0.03074983 0.02105208
v 0.02161667 -0.02115325 0.02105208
v -0.02166701 -0.02115203 0.02105208
v -0.08709914 0.03074983 0.1077574
v -0.08709914 -0.02115203 0.1077574
v -0.5979048 0.03074983 0.1077574
v 0.08710007 -0.02115325 0.1077574
v 0.08710007 0.03074983 0.1077574
v -0.5979048 -0.02115325 0.1077574
v 0.5979057 0.03074983 0.1077574
v 0.5979057 -0.02115325 0.1077574
v -0.6283223 0.03074983 0.06719466
v 0.6283232 -0.02115325 0.06719466
v 0.6283232 0.03074983 0.06719466
v 0.5979057 -0.02115325 -0.1085194
v 0.6283232 0.03074983 -0.0679567
v 0.5979057 0.03074983 -0.1085194
v 0.6283232 -0.02115325 -0.0679567
v -0.6283223 -0.02115325 0.06719466
v -0.5979048 -0.02115325 -0.1085194
v -0.6283223 -0.02115325 -0.0679567
v -0.6283223 0.03074983 -0.0679567
v -0.5979048 0.03074983 -0.1085194
v 0.5979057 0.03074983 0.1077574
v 0.6283232 0.03074983 -0.0679567
v 0.6283232 0.03074983 0.06719466
v 0.5979057 0.03074983 -0.1085194
v 0.08710007 0.03074983 -0.1085194
v 0.08710007 0.03074983 0.1077574
v 0.02161667 0.03074983 -0.02181413
v 0.02161667 0.03074983 0.02105208
v -0.5979048 0.03074983 0.1077574
v -0.6283223 0.03074983 0.06719466
v -0.6283223 0.03074983 -0.0679567
v -0.5979048 0.03074983 -0.1085194
v -0.08709914 0.03074983 0.1077574
v -0.08709914 0.03074983 -0.1085194
v -0.02166701 0.03074983 0.02105208
v -0.02166701 0.03074983 -0.02181413
v -0.3339375 -0.01075041 -0.2532497
v -0.1640645 -0.01075041 -0.366028
v -0.3046382 -0.01075041 -0.2315578
v -0.2000069 -0.01075041 -0.4163215
v -0.001632835 -0.01075041 -0.3969057
v -0.0008247301 -0.01075041 -0.4735927
v 0.1622978 -0.01075041 -0.3671596
v 0.1907548 -0.01075041 -0.4141273
v 0.2826714 -0.01075041 -0.2365224
v 0.3084233 -0.01075041 -0.263174
v 0.4098027 -0.01075041 0.498192
v 0.1869023 -0.01075041 0.5905394
v 0.3901298 -0.01075041 0.4799888
v 0.2195097 -0.01075041 0.6459544
v -0.004386742 -0.01075041 0.6304051
v 0.0021782 -0.01075041 0.7166441
v -0.2101094 -0.01075041 0.5906578
v -0.2332808 -0.01075041 0.6658909
v -0.4038277 -0.01075041 0.4937389
v -0.4432344 -0.01075041 0.5168553
v -0.3339375 -0.03075041 -0.2532497
v -0.3046382 -0.03075041 -0.2315578
v -0.1640645 -0.03075041 -0.366028
v -0.2000069 -0.03075041 -0.4163215
v -0.001632835 -0.03075041 -0.3969057
v -0.0008247301 -0.03075041 -0.4735927
v 0.1622978 -0.03075041 -0.3671596
v 0.1907548 -0.03075041 -0.4141273
v 0.2826714 -0.03075041 -0.2365224
v 0.3084233 -0.03075041 -0.263174
v 0.4098027 -0.03075041 0.498192
v 0.3901298 -0.03075041 0.4799888
v 0.1869023 -0.03075041 0.5905394
v 0.2195097 -0.03075041 0.6459544
v -0.004386742 -0.03075041 0.6304051
v 0.0021782 -0.03075041 0.7166441
v -0.2101094 -0.03075041 0.5906578
v -0.2332808 -0.03075041 0.6658909
v -0.4038277 -0.03075041 0.4937389
v -0.4432344 -0.03075041 0.5168553
vt 0.875 0.0691852
vt 0.875 0.1792962
vt 0.6029405 0.1792962
vt 0.6029405 0.0691852
vt 0.5343135 0.06918519
vt 0.625 0.06918519
vt 0.5119484 0.06918518
vt 0.5358453 0.0691852
vt 0.4797162 0.06918518
vt 0.5358453 0.1792962
vt 0.4391485 0.0691852
vt 0.4619539 0.06918519
vt 0.4391485 0.1792962
vt 0.5119484 0.1792962
vt 0.3858618 0.0691852
vt 0.375 0.06918519
vt 0.125 0.0691852
vt 0.3858618 0.1792962
vt 0.125 0.1792962
vt 0.4797162 0.1792962
vt 0.5119484 0.06918518
vt 0.4797162 0.06918518
vt 0.4619539 0.1792962
vt 0.4619539 0.06918519
vt 0.375 0.1792962
vt 0.5343135 0.06918519
vt 0.5343135 0.1792962
vt 0.375 0.06918519
vt 0.625 0.1792962
vt 0.625 0.06918519
vt 0.375 0.1792962
vt 0.625 0.06918519
vt 0.625 0.1792962
vt 0.875 0.0691852
vt 0.875 0.1792962
vt 0.875 0.1792962
vt 0.875 0.0691852
vt 0.375 0.06918519
vt 0.125 0.0691852
vt 0.125 0.0691852
vt 0.125 0.1792962
vt 0.125 0.1792962
vt 0.625 0.1792962
vt 0.875 0.1792962
vt 0.625 0.1792962
vt 0.875 0.1792962
vt 0.6029405 0.1792962
vt 0.5343135 0.1792962
vt 0.5358453 0.1792962
vt 0.5119484 0.1792962
vt 0.375 0.1792962
vt 0.375 0.1792962
vt 0.125 0.1792962
vt 0.125 0.1792962
vt 0.4619539 0.1792962
vt 0.3858618 0.1792962
vt 0.4797162 0.1792962
vt 0.4391485 0.1792962
vt 0 0
vt 1 0.2948705
vt 1 0
vt 0 0.2948705
vt 1 0.5019201
vt 0 0.5019201
vt 1 0.7452034
vt 0 0.7452034
vt 1 1
vt 0 1
vt 0 0
vt 1 0.2948705
vt 1 0
vt 0 0.2948705
vt 1 0.5019201
vt 0 0.5019201
vt 1 0.7452034
vt 0 0.7452034
vt 1 1
vt 0 1
vt 0 0
vt 1 0
vt 1 0.2948705
vt 0 0.2948705
vt 1 0.5019201
vt 0 0.5019201
vt 1 0.7452034
vt 0 0.7452034
vt 1 1
vt 0 1
vt 0 0
vt 1 0
vt 1 0.2948705
vt 0 0.2948705
vt 1 0.5019201
vt 0 0.5019201
vt 1 0.7452034
vt 0 0.7452034
vt 1 1
vt 0 1
vn 0.01812861 -0.9701349 -0.2418875
vn 0.01812861 0.9701349 -0.2418875
vn -0.03816536 0.9665384 -0.2536671
vn -0.03816536 -0.9665384 -0.2536671
vn -0.03816536 -0.9665384 0.2536671
vn 0.01812861 -0.9701349 0.2418875
vn -0.2655711 -0.9047053 0.3331367
vn -0.2655711 -0.9047055 -0.3331368
vn 0.2656942 -0.9046645 0.3331498
vn -0.265568 0.9047055 -0.3331392
vn 0.2656943 -0.9046645 -0.3331498
vn 0.03816845 -0.9665419 0.253653
vn 0.2656974 0.9046645 -0.3331474
vn -0.2655681 0.9047055 0.3331392
vn 0.03816846 -0.9665419 -0.253653
vn -0.01812636 -0.9701357 0.2418846
vn -0.01812635 -0.9701357 -0.2418846
vn 0.03816622 0.9665421 -0.2536527
vn -0.01812862 0.9701356 -0.2418849
vn 0.2656973 0.9046645 0.3331473
vn -0.2655711 -0.9047053 0.3331367
vn 0.2656942 -0.9046645 0.3331498
vn 0.03816621 0.9665421 0.2536527
vn 0.03816845 -0.9665419 0.253653
vn -0.01812863 0.9701356 0.2418849
vn -0.03816536 -0.9665384 0.2536671
vn -0.03816536 0.9665384 0.2536671
vn -0.01812636 -0.9701357 0.2418846
vn 0.01812861 0.9701349 0.2418875
vn 0.01812861 -0.9701349 0.2418875
vn -0.725734 0.6764076 0.1256301
vn 0.7257342 -0.6764074 0.1256302
vn 0.7257342 0.6764074 0.1256302
vn 0.01812861 -0.9701349 -0.2418875
vn 0.7257342 0.6764074 -0.1256302
vn 0.01812861 0.9701349 -0.2418875
vn 0.7257342 -0.6764074 -0.1256302
vn -0.725734 -0.6764076 0.1256301
vn -0.01812635 -0.9701357 -0.2418846
vn -0.725734 -0.6764076 -0.1256301
vn -0.725734 0.6764076 -0.1256301
vn -0.01812862 0.9701356 -0.2418849
vn 0.01812861 0.9701349 0.2418875
vn 0.7257342 0.6764074 -0.1256302
vn 0.7257342 0.6764074 0.1256302
vn 0.01812861 0.9701349 -0.2418875
vn -0.03816536 0.9665384 -0.2536671
vn -0.03816536 0.9665384 0.2536671
vn -0.265568 0.9047055 -0.3331392
vn -0.2655681 0.9047055 0.3331392
vn -0.01812863 0.9701356 0.2418849
vn -0.725734 0.6764076 0.1256301
vn -0.725734 0.6764076 -0.1256301
vn -0.01812862 0.9701356 -0.2418849
vn 0.03816621 0.9665421 0.2536527
vn 0.03816622 0.9665421 -0.2536527
vn 0.2656973 0.9046645 0.3331473
vn 0.2656974 0.9046645 -0.3331474
vn 0 1 0
vn 0 1 5.917213E-07
vn 0 1 0
vn 0 1 5.385572E-07
vn 0 1 0
vn 0 1 0
vn 0 1 -9.261477E-07
vn 0 1 -9.298361E-07
vn 0 1 -7.445761E-07
vn 0 1 -7.445762E-07
vn 0 1 -1.149576E-06
vn 0 1 -4.094221E-07
vn 0 1 -1.149576E-06
vn 0 1 -4.841696E-07
vn 0 1 3.747218E-07
vn 0 1 3.554491E-07
vn 0 1 0
vn 0 1 0
vn 0 1 -8.862958E-07
vn 0 1 -8.862958E-07
vn 0 -1 1.558112E-07
vn 0 -1 1.558112E-07
vn 0 -1 -3.805293E-07
vn 0 -1 -3.323411E-07
vn 0 -1 0
vn 0 -1 0
vn 0 -1 5.73194E-07
vn 0 -1 5.77275E-07
vn 0 -1 3.722881E-07
vn 0 -1 3.722881E-07
vn 0 -1 7.18485E-07
vn 0 -1 7.18485E-07
vn 0 -1 3.190543E-07
vn 0 -1 3.593925E-07
vn 0 -1 -1.791519E-07
vn 0 -1 -1.648919E-07
vn 0 -1 -3.694842E-07
vn 0 -1 -3.727506E-07
vn 0 -1 -3.32361E-07
vn 0 -1 -3.323611E-07
g propera4_0
f 3/3/3 2/2/2 1/1/1
f 4/4/4 3/3/3 1/1/1
f 5/5/5 4/4/4 1/1/1
f 6/6/6 5/5/5 1/1/1
f 5/5/5 7/7/7 4/4/4
f 4/4/4 8/8/8 3/3/3
f 7/7/7 8/8/8 4/4/4
f 7/7/7 9/9/9 8/8/8
f 8/8/8 10/10/10 3/3/3
f 9/9/9 11/11/11 8/8/8
f 8/8/8 11/11/11 10/10/10
f 9/9/9 12/12/12 11/11/11
f 11/11/11 13/13/13 10/10/10
f 10/10/10 13/13/13 14/14/14
f 12/12/12 15/15/15 11/11/11
f 11/11/11 15/15/15 13/13/13
f 12/12/12 16/16/16 15/15/15
f 16/16/16 17/17/17 15/15/15
f 15/15/15 18/18/18 13/13/13
f 15/15/15 17/17/17 18/18/18
f 17/17/17 19/19/19 18/18/18
f 13/13/13 20/20/20 14/14/14
f 14/14/14 20/20/20 21/21/21
f 20/20/20 22/22/22 21/21/21
f 20/20/20 23/23/23 22/22/22
f 23/23/23 24/24/24 22/22/22
f 23/23/23 25/25/25 24/24/24
f 14/14/14 21/21/21 26/26/26
f 27/27/27 14/14/14 26/26/26
f 25/25/25 28/28/28 24/24/24
f 27/27/27 26/26/26 29/29/29
f 26/26/26 30/30/30 29/29/29
f 28/28/28 25/25/25 31/31/31
f 29/29/29 30/30/30 32/32/32
f 33/33/33 29/29/29 32/32/32
f 32/32/32 30/30/30 34/34/34
f 35/35/35 33/33/33 32/32/32
f 34/34/34 36/36/36 35/35/35
f 37/37/37 35/35/35 32/32/32
f 37/37/37 34/34/34 35/35/35
f 37/37/37 32/32/32 34/34/34
f 38/38/38 28/28/28 31/31/31
f 28/28/28 38/38/38 39/39/39
f 38/38/38 31/31/31 40/40/40
f 38/38/38 40/40/40 39/39/39
f 31/31/31 41/41/41 40/40/40
f 42/42/42 39/39/39 40/40/40
f 41/41/41 42/42/42 40/40/40
f 45/45/45 44/44/44 43/43/43
f 44/44/44 46/46/46 43/43/43
f 46/46/46 47/47/47 43/43/43
f 47/47/47 48/48/48 43/43/43
f 47/47/47 49/49/49 48/48/48
f 49/49/49 50/50/50 48/48/48
f 53/53/53 52/52/52 51/51/51
f 54/54/54 53/53/53 51/51/51
f 54/54/54 51/51/51 55/55/55
f 56/56/56 54/54/54 55/55/55
f 56/56/56 55/55/55 57/57/57
f 58/58/58 56/56/56 57/57/57
f 61/61/61 60/60/60 59/59/59
f 60/60/60 62/62/62 59/59/59
f 60/60/60 63/63/63 62/62/62
f 63/63/63 64/64/64 62/62/62
f 63/63/63 65/65/65 64/64/64
f 65/65/65 66/66/66 64/64/64
f 65/65/65 67/67/67 66/66/66
f 67/67/67 68/68/68 66/66/66
f 71/71/71 70/70/70 69/69/69
f 70/70/70 72/72/72 69/69/69
f 70/70/70 73/73/73 72/72/72
f 73/73/73 74/74/74 72/72/72
f 73/73/73 75/75/75 74/74/74
f 75/75/75 76/76/76 74/74/74
f 75/75/75 77/77/77 76/76/76
f 77/77/77 78/78/78 76/76/76
f 81/81/81 80/80/80 79/79/79
f 82/82/82 81/81/81 79/79/79
f 83/83/83 81/81/81 82/82/82
f 84/84/84 83/83/83 82/82/82
f 85/85/85 83/83/83 84/84/84
f 86/86/86 85/85/85 84/84/84
f 87/87/87 85/85/85 86/86/86
f 88/88/88 87/87/87 86/86/86
f 91/91/91 90/90/90 89/89/89
f 92/92/92 91/91/91 89/89/89
f 93/93/93 91/91/91 92/92/92
f 94/94/94 93/93/93 92/92/92
f 95/95/95 93/93/93 94/94/94
f 96/96/96 95/95/95 94/94/94
f 97/97/97 95/95/95 96/96/96
f 98/98/98 97/97/97 96/96/96
