g propera4
v 0.5979051 -0.02595154 -0.1081383
v 0.5979051 0.02595154 -0.1081383
v 0.08710045 0.02595154 -0.1081383
v 0.08710045 -0.02595154 -0.1081383
v 0.08710045 -0.02595154 0.1081383
v 0.5979051 -0.02595154 0.1081383
v 0.02161606 -0.02595154 0.02143356
v 0.02161606 -0.02595154 -0.02143356
v -0.02166771 -0.02595093 0.02143356
v 0.02161606 0.02595154 -0.02143356
v -0.02166771 -0.02595093 -0.02143356
v -0.08710045 -0.02595093 0.1081383
v -0.02166771 0.02595154 -0.02143356
v 0.02161606 0.02595154 0.02143356
v -0.08710045 -0.02595093 -0.1081381
v -0.5979051 -0.02595154 0.1081383
v -0.5979051 -0.02595154 -0.1081383
v -0.08710045 0.02595154 -0.1081381
v -0.5979051 0.02595154 -0.1081383
v -0.02166771 0.02595154 0.02143356
v 0.02161606 -0.02595154 0.02143356
v -0.02166771 -0.02595093 0.02143356
v -0.08710045 0.02595154 0.1081383
v -0.08710045 -0.02595093 0.1081383
v -0.5979051 0.02595154 0.1081383
v 0.08710045 -0.02595154 0.1081383
v 0.08710045 0.02595154 0.1081383
v -0.5979051 -0.02595154 0.1081383
v 0.5979051 0.02595154 0.1081383
v 0.5979051 -0.02595154 0.1081383
v -0.6283224 0.02595154 0.06757598
v 0.6283224 -0.02595154 0.06757598
v 0.6283224 0.02595154 0.06757598
v 0.5979051 -0.02595154 -0.1081383
v 0.6283224 0.02595154 -0.06757598
v 0.5979051 0.02595154 -0.1081383
v 0.6283224 -0.02595154 -0.06757598
v -0.6283224 -0.02595154 0.06757598
v -0.5979051 -0.02595154 -0.1081383
v -0.6283224 -0.02595154 -0.06757598
v -0.6283224 0.02595154 -0.06757598
v -0.5979051 0.02595154 -0.1081383
v 0.5979051 0.02595154 0.1081383
v 0.6283224 0.02595154 -0.06757598
v 0.6283224 0.02595154 0.06757598
v 0.5979051 0.02595154 -0.1081383
v 0.08710045 0.02595154 -0.1081383
v 0.08710045 0.02595154 0.1081383
v 0.02161606 0.02595154 -0.02143356
v 0.02161606 0.02595154 0.02143356
v -0.5979051 0.02595154 0.1081383
v -0.6283224 0.02595154 0.06757598
v -0.6283224 0.02595154 -0.06757598
v -0.5979051 0.02595154 -0.1081383
v -0.08710045 0.02595154 0.1081383
v -0.08710045 0.02595154 -0.1081381
v -0.02166771 0.02595154 0.02143356
v -0.02166771 0.02595154 -0.02143356
vt 0.875 0.0691852
vt 0.875 0.1792962
vt 0.6029405 0.1792962
vt 0.6029405 0.0691852
vt 0.5343135 0.06918519
vt 0.625 0.06918519
vt 0.5119484 0.06918518
vt 0.5358453 0.0691852
vt 0.4797162 0.06918518
vt 0.5358453 0.1792962
vt 0.4391485 0.0691852
vt 0.4619539 0.06918519
vt 0.4391485 0.1792962
vt 0.5119484 0.1792962
vt 0.3858618 0.0691852
vt 0.375 0.06918519
vt 0.125 0.0691852
vt 0.3858618 0.1792962
vt 0.125 0.1792962
vt 0.4797162 0.1792962
vt 0.5119484 0.06918518
vt 0.4797162 0.06918518
vt 0.4619539 0.1792962
vt 0.4619539 0.06918519
vt 0.375 0.1792962
vt 0.5343135 0.06918519
vt 0.5343135 0.1792962
vt 0.375 0.06918519
vt 0.625 0.1792962
vt 0.625 0.06918519
vt 0.375 0.1792962
vt 0.625 0.06918519
vt 0.625 0.1792962
vt 0.875 0.0691852
vt 0.875 0.1792962
vt 0.875 0.1792962
vt 0.875 0.0691852
vt 0.375 0.06918519
vt 0.125 0.0691852
vt 0.125 0.0691852
vt 0.125 0.1792962
vt 0.125 0.1792962
vt 0.625 0.1792962
vt 0.875 0.1792962
vt 0.625 0.1792962
vt 0.875 0.1792962
vt 0.6029405 0.1792962
vt 0.5343135 0.1792962
vt 0.5358453 0.1792962
vt 0.5119484 0.1792962
vt 0.375 0.1792962
vt 0.375 0.1792962
vt 0.125 0.1792962
vt 0.125 0.1792962
vt 0.4619539 0.1792962
vt 0.3858618 0.1792962
vt 0.4797162 0.1792962
vt 0.4391485 0.1792962
vn 0.01812848 -0.9701349 -0.2418877
vn 0.01812848 0.9701349 -0.2418877
vn -0.03816522 0.9665383 -0.2536676
vn -0.03816522 -0.9665383 -0.2536676
vn -0.03816522 -0.9665383 0.2536676
vn 0.01812848 -0.9701349 0.2418877
vn -0.2655647 -0.9047069 0.3331378
vn -0.2655647 -0.9047069 -0.3331379
vn 0.2656947 -0.9046641 0.3331505
vn -0.2655631 0.9047069 -0.3331391
vn 0.2656942 -0.9046642 -0.3331507
vn 0.03816762 -0.9665414 0.253655
vn 0.2656955 0.9046643 -0.3331491
vn -0.2655631 0.9047069 0.3331391
vn 0.0381676 -0.9665415 -0.253655
vn -0.01812735 -0.9701352 0.2418865
vn -0.01812728 -0.9701352 -0.2418865
vn 0.03816649 0.9665415 -0.2536548
vn -0.01812842 0.9701351 -0.2418867
vn 0.265696 0.9046643 0.333149
vn -0.2655647 -0.9047069 0.3331378
vn 0.2656947 -0.9046641 0.3331505
vn 0.03816651 0.9665415 0.2536549
vn 0.03816762 -0.9665414 0.253655
vn -0.01812848 0.9701351 0.2418866
vn -0.03816522 -0.9665383 0.2536676
vn -0.03816522 0.9665383 0.2536676
vn -0.01812735 -0.9701352 0.2418865
vn 0.01812848 0.9701349 0.2418877
vn 0.01812848 -0.9701349 0.2418877
vn -0.7257361 0.6764054 0.1256298
vn 0.7257372 -0.6764041 0.12563
vn 0.7257372 0.6764041 0.12563
vn 0.01812848 -0.9701349 -0.2418877
vn 0.7257372 0.6764041 -0.12563
vn 0.01812848 0.9701349 -0.2418877
vn 0.7257372 -0.6764041 -0.12563
vn -0.7257361 -0.6764054 0.1256298
vn -0.01812728 -0.9701352 -0.2418865
vn -0.7257361 -0.6764054 -0.1256298
vn -0.7257361 0.6764054 -0.1256298
vn -0.01812842 0.9701351 -0.2418867
vn 0.01812848 0.9701349 0.2418877
vn 0.7257372 0.6764041 -0.12563
vn 0.7257372 0.6764041 0.12563
vn 0.01812848 0.9701349 -0.2418877
vn -0.03816522 0.9665383 -0.2536676
vn -0.03816522 0.9665383 0.2536676
vn -0.2655631 0.9047069 -0.3331391
vn -0.2655631 0.9047069 0.3331391
vn -0.01812848 0.9701351 0.2418866
vn -0.7257361 0.6764054 0.1256298
vn -0.7257361 0.6764054 -0.1256298
vn -0.01812842 0.9701351 -0.2418867
vn 0.03816651 0.9665415 0.2536549
vn 0.03816649 0.9665415 -0.2536548
vn 0.265696 0.9046643 0.333149
vn 0.2656955 0.9046643 -0.3331491
g propera4_0
f 3/3/3 2/2/2 1/1/1
f 4/4/4 3/3/3 1/1/1
f 5/5/5 4/4/4 1/1/1
f 6/6/6 5/5/5 1/1/1
f 5/5/5 7/7/7 4/4/4
f 4/4/4 8/8/8 3/3/3
f 7/7/7 8/8/8 4/4/4
f 7/7/7 9/9/9 8/8/8
f 8/8/8 10/10/10 3/3/3
f 9/9/9 11/11/11 8/8/8
f 8/8/8 11/11/11 10/10/10
f 9/9/9 12/12/12 11/11/11
f 11/11/11 13/13/13 10/10/10
f 10/10/10 13/13/13 14/14/14
f 12/12/12 15/15/15 11/11/11
f 11/11/11 15/15/15 13/13/13
f 12/12/12 16/16/16 15/15/15
f 16/16/16 17/17/17 15/15/15
f 15/15/15 18/18/18 13/13/13
f 15/15/15 17/17/17 18/18/18
f 17/17/17 19/19/19 18/18/18
f 13/13/13 20/20/20 14/14/14
f 14/14/14 20/20/20 21/21/21
f 20/20/20 22/22/22 21/21/21
f 20/20/20 23/23/23 22/22/22
f 23/23/23 24/24/24 22/22/22
f 23/23/23 25/25/25 24/24/24
f 14/14/14 21/21/21 26/26/26
f 27/27/27 14/14/14 26/26/26
f 25/25/25 28/28/28 24/24/24
f 27/27/27 26/26/26 29/29/29
f 26/26/26 30/30/30 29/29/29
f 28/28/28 25/25/25 31/31/31
f 29/29/29 30/30/30 32/32/32
f 33/33/33 29/29/29 32/32/32
f 32/32/32 30/30/30 34/34/34
f 35/35/35 33/33/33 32/32/32
f 34/34/34 36/36/36 35/35/35
f 37/37/37 35/35/35 32/32/32
f 37/37/37 34/34/34 35/35/35
f 37/37/37 32/32/32 34/34/34
f 38/38/38 28/28/28 31/31/31
f 28/28/28 38/38/38 39/39/39
f 38/38/38 31/31/31 40/40/40
f 38/38/38 40/40/40 39/39/39
f 31/31/31 41/41/41 40/40/40
f 42/42/42 39/39/39 40/40/40
f 41/41/41 42/42/42 40/40/40
f 45/45/45 44/44/44 43/43/43
f 44/44/44 46/46/46 43/43/43
f 46/46/46 47/47/47 43/43/43
f 47/47/47 48/48/48 43/43/43
f 47/47/47 49/49/49 48/48/48
f 49/49/49 50/50/50 48/48/48
f 53/53/53 52/52/52 51/51/51
f 54/54/54 53/53/53 51/51/51
f 54/54/54 51/51/51 55/55/55
f 56/56/56 54/54/54 55/55/55
f 56/56/56 55/55/55 57/57/57
f 58/58/58 56/56/56 57/57/57
