g box1
v 0.3049978 -0.4042053 0.3633919
v -0.3633675 -0.4042053 0.299417
v -0.3028332 -0.4042053 0.3633919
v 0.3634163 -0.4042053 0.299417
v -0.3633675 -0.4042053 -0.299417
v 0.3634163 -0.4042053 -0.299417
v -0.3028332 -0.4042053 -0.3633919
v 0.3049978 -0.4042053 -0.3633919
v 0.4113871 -0.3727337 0.3389626
v 0.4113871 0.3727335 -0.3389626
v 0.4113871 -0.3727337 -0.3389626
v 0.4113871 0.3727335 0.3389626
v 0.3452529 0.3727335 0.4113871
v 0.3452529 -0.3727337 0.4113871
v -0.3428576 0.3727335 0.4113871
v -0.3428576 -0.3727337 0.4113871
v -0.4113871 -0.3727337 0.3389626
v -0.4113871 0.3727335 0.3389626
v -0.4113871 -0.3727337 -0.3389626
v -0.4113871 0.3727335 -0.3389626
v 0.3634163 0.4042051 0.299417
v 0.3049978 0.4042051 0.3633919
v 0.3634163 0.4042051 -0.299417
v -0.3028332 0.4042051 0.3633919
v -0.3633675 0.4042051 0.299417
v 0.4113871 0.3727335 -0.3389626
v -0.4113871 0.3727335 -0.3389626
v 0.3049978 0.4042051 -0.3633919
v -0.3633675 0.4042051 -0.299417
v 0.3452529 0.3727335 -0.4113871
v -0.3028332 0.4042051 -0.3633919
v -0.3428576 0.3727335 -0.4113871
v -0.3428576 -0.3727337 -0.4113871
v -0.4113871 -0.3727337 -0.3389626
v 0.3452529 -0.3727337 -0.4113871
v 0.4113871 -0.3727337 -0.3389626
v -0.3028332 -0.4042053 -0.3633919
v -0.3633675 -0.4042053 -0.299417
v 0.3049978 -0.4042053 -0.3633919
v -0.4113871 -0.3727337 0.3389626
v 0.3634163 -0.4042053 -0.299417
v -0.3633675 -0.4042053 0.299417
v 0.3634163 -0.4042053 0.299417
v -0.3428576 -0.3727337 0.4113871
v 0.4113871 -0.3727337 0.3389626
v -0.3028332 -0.4042053 0.3633919
v 0.3049978 -0.4042053 0.3633919
v 0.3452529 -0.3727337 0.4113871
v 0.3634163 0.4042051 0.299417
v 0.3049978 0.4042051 0.3633919
v -0.3028332 0.4042051 0.3633919
v -0.3633675 0.4042051 0.299417
v 0.3634163 0.4042051 -0.299417
v -0.3633675 0.4042051 -0.299417
v 0.3049978 0.4042051 -0.3633919
v -0.3028332 0.4042051 -0.3633919
vt 0.5987463 1
vt 0.375 1
vt 0.398956 1
vt 0.625 1
vt 0.375 0.75
vt 0.625 0.75
vt 0.398956 0.75
vt 0.5987463 0.75
vt 0.625 0
vt 0.875 0.25
vt 0.875 0
vt 0.625 0.25
vt 0.5987463 0.25
vt 0.5987463 0
vt 0.398956 0.25
vt 0.398956 0
vt 0.375 0
vt 0.375 0.25
vt 0.125 0
vt 0.125 0.25
vt 0.625 0.25
vt 0.5987463 0.25
vt 0.625 0.5
vt 0.398956 0.25
vt 0.375 0.25
vt 0.625 0.5
vt 0.375 0.5
vt 0.5987463 0.5
vt 0.375 0.5
vt 0.5987463 0.5
vt 0.398956 0.5
vt 0.398956 0.5
vt 0.398956 0.75
vt 0.375 0.75
vt 0.5987463 0.75
vt 0.625 0.75
vt 0.398956 0.75
vt 0.375 0.75
vt 0.5987463 0.75
vt 0.375 1
vt 0.625 0.75
vt 0.375 1
vt 0.625 1
vt 0.398956 1
vt 0.625 1
vt 0.398956 1
vt 0.5987463 1
vt 0.5987463 1
vt 0.625 0.25
vt 0.5987463 0.25
vt 0.398956 0.25
vt 0.375 0.25
vt 0.625 0.5
vt 0.375 0.5
vt 0.5987463 0.5
vt 0.398956 0.5
vn 0.01985596 -0.964907 0.2618402
vn -0.05927749 -0.9982328 0.004164943
vn -0.01962006 -0.9651403 0.2609963
vn 0.05920831 -0.9982377 0.003977083
vn -0.05927749 -0.9982328 -0.00416496
vn 0.05920832 -0.9982377 -0.003977084
vn -0.01962003 -0.9651401 -0.2609974
vn 0.01985597 -0.9649068 -0.2618411
vn 0.995148 -0.04236398 0.08880171
vn 0.995148 0.04236398 -0.08880168
vn 0.995148 -0.04236398 -0.08880171
vn 0.995148 0.04236399 0.08880167
vn 0.09654926 0.04189881 0.9944459
vn 0.09654924 -0.04189883 0.9944459
vn -0.09626482 0.04208586 0.9944656
vn -0.09626479 -0.04208589 0.9944656
vn -0.9948578 -0.0424485 0.09195758
vn -0.9948578 0.0424485 0.09195755
vn -0.9948578 -0.04244849 -0.09195759
vn -0.9948578 0.04244849 -0.09195759
vn 0.05920831 0.9982377 0.00397659
vn 0.01985602 0.9649088 0.2618335
vn 0.05920831 0.9982377 -0.003976612
vn -0.01962009 0.9651423 0.2609897
vn -0.05927749 0.9982328 0.004164479
vn 0.995148 0.04236398 -0.08880168
vn -0.9948578 0.04244849 -0.09195759
vn 0.01985601 0.9649087 -0.2618341
vn -0.05927748 0.9982328 -0.004164527
vn 0.09654925 0.04189878 -0.9944459
vn -0.01962008 0.965142 -0.2609905
vn -0.0962648 0.04208582 -0.9944656
vn -0.09626479 -0.04208582 -0.9944656
vn -0.9948578 -0.04244849 -0.09195759
vn 0.09654924 -0.04189878 -0.9944459
vn 0.995148 -0.04236398 -0.08880171
vn -0.01962003 -0.9651401 -0.2609974
vn -0.05927749 -0.9982328 -0.00416496
vn 0.01985597 -0.9649068 -0.2618411
vn -0.9948578 -0.0424485 0.09195758
vn 0.05920832 -0.9982377 -0.003977084
vn -0.05927749 -0.9982328 0.004164943
vn 0.05920831 -0.9982377 0.003977083
vn -0.09626479 -0.04208589 0.9944656
vn 0.995148 -0.04236398 0.08880171
vn -0.01962006 -0.9651403 0.2609963
vn 0.01985596 -0.964907 0.2618402
vn 0.09654924 -0.04189883 0.9944459
vn 0.05920831 0.9982377 0.00397659
vn 0.01985602 0.9649088 0.2618335
vn -0.01962009 0.9651423 0.2609897
vn -0.05927749 0.9982328 0.004164479
vn 0.05920831 0.9982377 -0.003976612
vn -0.05927748 0.9982328 -0.004164527
vn 0.01985601 0.9649087 -0.2618341
vn -0.01962008 0.965142 -0.2609905
g box1_0
f 3/3/3 2/2/2 1/1/1
f 2/2/2 4/4/4 1/1/1
f 2/2/2 5/5/5 4/4/4
f 5/5/5 6/6/6 4/4/4
f 5/5/5 7/7/7 6/6/6
f 7/7/7 8/8/8 6/6/6
f 11/11/11 10/10/10 9/9/9
f 10/10/10 12/12/12 9/9/9
f 9/9/9 12/12/12 13/13/13
f 14/14/14 9/9/9 13/13/13
f 14/14/14 13/13/13 15/15/15
f 16/16/16 14/14/14 15/15/15
f 16/16/16 15/15/15 17/17/17
f 15/15/15 18/18/18 17/17/17
f 17/17/17 18/18/18 19/19/19
f 18/18/18 20/20/20 19/19/19
f 12/12/12 21/21/21 13/13/13
f 21/21/21 22/22/22 13/13/13
f 13/13/13 22/22/22 15/15/15
f 23/23/23 21/21/21 12/12/12
f 22/22/22 24/24/24 15/15/15
f 15/15/15 24/24/24 18/18/18
f 24/24/24 25/25/25 18/18/18
f 26/26/26 23/23/23 12/12/12
f 18/18/18 25/25/25 27/27/27
f 28/28/28 23/23/23 26/26/26
f 25/25/25 29/29/29 27/27/27
f 30/30/30 28/28/28 26/26/26
f 31/31/31 28/28/28 30/30/30
f 29/29/29 31/31/31 32/32/32
f 27/27/27 29/29/29 32/32/32
f 32/32/32 31/31/31 30/30/30
f 32/32/32 33/33/33 27/27/27
f 32/32/32 30/30/30 33/33/33
f 33/33/33 34/34/34 27/27/27
f 30/30/30 26/26/26 35/35/35
f 30/30/30 35/35/35 33/33/33
f 26/26/26 36/36/36 35/35/35
f 33/33/33 37/37/37 34/34/34
f 37/37/37 38/38/38 34/34/34
f 39/39/39 37/37/37 33/33/33
f 35/35/35 39/39/39 33/33/33
f 34/34/34 38/38/38 40/40/40
f 41/41/41 39/39/39 35/35/35
f 36/36/36 41/41/41 35/35/35
f 38/38/38 42/42/42 40/40/40
f 43/43/43 41/41/41 36/36/36
f 40/40/40 42/42/42 44/44/44
f 45/45/45 43/43/43 36/36/36
f 42/42/42 46/46/46 44/44/44
f 47/47/47 43/43/43 45/45/45
f 44/44/44 46/46/46 48/48/48
f 48/48/48 47/47/47 45/45/45
f 46/46/46 47/47/47 48/48/48
f 51/51/51 50/50/50 49/49/49
f 52/52/52 51/51/51 49/49/49
f 52/52/52 49/49/49 53/53/53
f 54/54/54 52/52/52 53/53/53
f 54/54/54 53/53/53 55/55/55
f 56/56/56 54/54/54 55/55/55

