g arch_model
v -3.5 7.753072 1
v 0 7.753072 1
v 0 5 1
v 0 5 1
v -3.5 5 1
v -3.5 7.753072 1
v -3.5 5 1
v -3.5 6.528822 1
v -3.5 7.753072 1
v 0 7.753072 -1
v -3.5 7.753072 -1
v -0.2792852 6.025158 -1
v 0 7.753072 1
v 3.5 7.753072 1
v 3.5 6.528822 1
v 3.5 7.753072 -1
v 0 7.753072 -1
v 0.9948254 6.025158 -1
v -0.2792852 6.025158 -1
v 0 6.333917 -1
v -3.5 7.753072 -1
v -0.9948254 6.025158 -1
v -3.5 6.528822 -1
v -3.5 5 -1
v -0.9948254 5.375 -1
v 0 5.375 -1
v 0 5 -1
v -3.5 5 1
v 0 5 1
v 0 4.814612 0.7513786
v -3.5 4.814612 0.7513786
v -3.5 7.753072 1
v 0 7.996064 0.7513786
v 0 7.753072 1
v -3.34498 7.996064 0.7513786
v -3.738374 7.753072 0.7513786
v -3.5 6.528822 1
v -3.554249 7.996064 0.5647287
v -3.738374 6.765377 0.7513786
v -3.554249 7.996064 -0.5748757
v -3.738374 7.753072 -0.7615256
v -3.738374 6.765377 -0.7615256
v -3.34498 7.996064 -0.7615256
v -3.5 6.528822 -1
v -3.5 7.753072 -1
v 3.5 7.753072 1
v 0 7.753072 1
v 3.34498 7.996064 0.7513786
v 3.738374 7.753072 0.7513786
v 3.5 6.528822 1
v 3.554249 7.996064 0.5647287
v 3.738374 6.765377 0.7513786
v 3.554249 7.996064 -0.5748757
v 3.738374 7.753072 -0.7615256
v 3.738374 6.765377 -0.7615256
v 3.34498 7.996064 -0.7615256
v 3.5 6.528822 -1
v 3.5 7.753072 -1
v -1.169156 7.945359 -0.5
v -1.169156 9.694882 -0.5
v -2.518809 9.694882 -0.5
v -2.518809 7.945359 -0.5
v -1.274268 10.78936 -0.381009
v -2.522748 10.78933 -0.2857567
v -2.413697 10.78936 -0.381009
v -1.165217 10.78933 -0.2857567
v -2.522748 10.78913 0.2857567
v -1.165217 10.78913 0.2857567
v -2.413697 10.78909 0.381009
v -1.274268 10.78909 0.381009
v -2.518809 7.945359 -0.5
v -2.518809 9.694882 -0.5
v -2.647979 9.694851 -0.375
v -2.647979 7.945326 -0.375
v -1.169156 7.945088 0.5
v -1.169156 9.694613 0.5
v -1.039986 9.694647 0.375
v -1.039986 7.945122 0.375
v -1.039986 7.945326 -0.375
v -1.039986 9.694851 -0.375
v -1.169156 10.61265 -0.5
v -1.274268 10.78936 -0.381009
v -2.413697 10.78936 -0.381009
v -2.518809 10.61265 -0.5
v -1.169156 9.694882 -0.5
v -2.518809 9.694882 -0.5
v -2.518809 9.694882 -0.5
v -2.647979 10.61262 -0.375
v -2.647979 9.694851 -0.375
v -2.518809 10.61265 -0.5
v -2.413697 10.78936 -0.381009
v -2.522748 10.78933 -0.2857567
v -2.647979 10.61262 -0.375
v -2.647979 10.61241 0.375
v -2.522748 10.78913 0.2857567
v -2.518809 10.61238 0.5
v -2.413697 10.78909 0.381009
v -1.274268 10.78909 0.381009
v -2.518809 9.694613 0.5
v -2.647979 9.694648 0.375
v -1.169156 10.61238 0.5
v -1.169156 9.694613 0.5
v -1.165217 10.78913 0.2857567
v -1.039986 10.61241 0.375
v -1.039986 9.694647 0.375
v -1.039986 10.61262 -0.375
v -1.165217 10.78933 -0.2857567
v -1.169156 10.61265 -0.5
v -1.274268 10.78936 -0.381009
v -1.169156 9.694882 -0.5
v -1.039986 9.694851 -0.375
v -1.169156 9.694613 0.5
v -1.169156 7.945088 0.5
v -2.518809 7.945088 0.5
v -2.518809 9.694613 0.5
v -2.647979 9.694648 0.375
v -2.647979 7.945122 0.375
v -5.320398 0 1
v -5.052085 0.25 0.7513786
v -5.052085 0 0.7513786
v -5.320398 0.25 1
v -6.703648 0 1
v -6.703648 0.25 1
v -6.947915 0 0.7513786
v -6.947915 0.25 0.7513786
v -6.947915 0 -0.7615256
v -6.947915 0.25 -0.7615256
v -6.703648 0 -1
v -6.703648 0.25 -1
v -6.703648 6.528822 -1
v -6.947915 4 -0.7615256
v -6.703648 4 -1
v -6.947915 6.528822 -0.7615256
v -6.947915 6.528822 0.7513786
v -6.947915 4 0.7513786
v -6.703648 6.528822 1
v -6.703648 4 1
v -5.320398 4.767951 1
v -5.320398 4 1
v -5.052085 4.582563 0.7513786
v -5.052085 4 0.7513786
v -4.829482 4.814612 0.7513786
v -5.097795 5 1
v -3.5 4.814612 0.7513786
v -3.5 5 1
v -3.5 6.528822 1
v -6.566792 6.765377 0.7513786
v -3.738374 6.765377 0.7513786
v -6.761908 6.765377 0.6056405
v -6.947915 6.528822 0.7513786
v -6.761908 6.765377 -0.6157874
v -6.947915 6.528822 -0.7615256
v -6.703648 6.528822 -1
v -6.566792 6.765377 -0.7615256
v 0 4.814612 -0.7615256
v 0 5 -1
v -3.5 5 -1
v -3.5 4.814612 -0.7615256
v -3.34498 7.996064 -0.7615256
v -3.5 7.753072 -1
v 0 7.753072 -1
v 0 7.996064 -0.7615256
v 3.34498 7.996064 -0.7615256
v 0 7.753072 -1
v 3.5 7.753072 -1
v -3.5 4.814612 -0.7615256
v -3.5 5 -1
v -5.097795 5 -1
v -4.829482 4.814612 -0.7615256
v -5.320398 4.767951 -1
v -5.052085 4.582563 -0.7615256
v -5.052085 4 -0.7615256
v -5.320398 4 -1
v -3.738374 6.765377 -0.7615256
v -3.738374 6.765377 0.7513786
v -6.566792 6.765377 0.7513786
v -6.566792 6.765377 -0.7615256
v 0 4.814612 0.7513786
v 0 4.814612 -0.7615256
v -3.5 4.814612 -0.7615256
v -3.5 4.814612 0.7513786
v -3.34498 7.996064 0.7513786
v -3.34498 7.996064 -0.7615256
v 0 7.996064 -0.7615256
v 0 7.996064 0.7513786
v 3.34498 7.996064 0.7513786
v 3.34498 7.996064 -0.7615256
v 3.554249 7.996064 -0.5748757
v 3.554249 7.996064 0.5647287
v -3.554249 7.996064 0.5647287
v -3.554249 7.996064 -0.5748757
v -3.34498 7.996064 -0.7615256
v -3.5 4.814612 0.7513786
v -3.5 4.814612 -0.7615256
v -4.829482 4.814612 -0.7615256
v -4.829482 4.814612 0.7513786
v -5.052085 4.582563 -0.7615256
v -5.052085 4.582563 0.7513786
v -5.052085 4 0.7513786
v -5.052085 4 -0.7615256
v -6.761908 6.765377 -0.6157874
v -6.566792 6.765377 -0.7615256
v -6.566792 6.765377 0.7513786
v -6.761908 6.765377 0.6056405
v -6.703648 6.528822 -1
v -3.5 6.528822 -1
v -3.738374 6.765377 -0.7615256
v -6.566792 6.765377 -0.7615256
v -6.703648 6.528822 -1
v -6.703648 4 -1
v -5.320398 4 -1
v -5.320398 4.767951 -1
v -5.097795 5 -1
v -6.947915 0 0.7513786
v -6.703648 0 1
v -5.320398 0 1
v -5.052085 0 0.7513786
v -6.947915 0 -0.7615256
v -5.052085 0 -0.7615256
v -6.703648 0 -1
v -5.320398 0 -1
v -6.703648 0.25 -1
v -5.320398 0.25 -1
v -5.097795 5 -1
v -3.5 5 -1
v -3.5 6.528822 -1
v -6.703648 6.528822 -1
v -5.320398 0.25 1
v -5.052085 1 0.7513786
v -5.052085 0.25 0.7513786
v -5.320398 1 1
v -6.703648 0.25 1
v -6.703649 1 1
v -6.947915 0.25 0.7513786
v -6.947915 1 0.7513786
v -6.947915 0.25 -0.7615256
v -6.947915 1 -0.7615256
v -6.703648 0.25 -1
v -6.703648 1 -1
v -5.320398 0.25 -1
v -5.320398 0 -1
v -5.052085 0 -0.7615256
v -5.052085 0.25 -0.7615256
v -5.052085 0.25 -0.7615256
v -5.052085 0 -0.7615256
v -5.052085 0 0.7513786
v -5.052085 0.25 0.7513786
v -6.947915 4 -0.7615256
v -6.703648 3 -0.9999999
v -6.703648 4 -1
v -6.947915 3 -0.7615256
v -6.947915 4 0.7513786
v -6.947915 3 0.7513786
v -6.703648 4 1
v -6.703648 3 1
v -5.320398 4 1
v -5.320398 3 1
v -5.052085 4 0.7513786
v -5.052085 3 0.7513786
v -5.320398 4 -1
v -5.320398 3 -0.9999999
v -5.052085 3 -0.7615256
v -5.052085 4 -0.7615256
v -5.052085 4 -0.7615256
v -5.052085 3 -0.7615256
v -5.052085 3 0.7513786
v -5.052085 4 0.7513786
v -6.703648 4 -1
v -6.703648 3 -0.9999999
v -5.320398 3 -0.9999999
v -5.320398 4 -1
v -6.947915 3 -0.7615256
v -6.703648 2 -1
v -6.703648 3 -0.9999999
v -6.947915 2 -0.7615256
v -6.947915 3 0.7513786
v -6.947915 2 0.7513786
v -6.703648 3 1
v -6.703648 2 1
v -5.320398 3 1
v -5.320398 2 1
v -5.052085 3 0.7513786
v -5.052085 2 0.7513786
v -5.320398 3 -0.9999999
v -5.320398 2 -1
v -5.052085 2 -0.7615256
v -5.052085 3 -0.7615256
v -5.052085 3 -0.7615256
v -5.052085 2 -0.7615256
v -5.052085 2 0.7513786
v -5.052085 3 0.7513786
v -6.703648 3 -0.9999999
v -6.703648 2 -1
v -5.320398 2 -1
v -5.320398 3 -0.9999999
v -6.947915 2 -0.7615256
v -6.703648 1 -1
v -6.703648 2 -1
v -6.947915 1 -0.7615256
v -6.947915 2 0.7513786
v -6.947915 1 0.7513786
v -6.703648 2 1
v -6.703649 1 1
v -5.320398 2 1
v -5.320398 1 1
v -5.052085 2 0.7513786
v -5.052085 1 0.7513786
v -5.320398 2 -1
v -5.320398 1 -1
v -5.052085 1 -0.7615256
v -5.052085 2 -0.7615256
v -5.052085 2 -0.7615256
v -5.052085 1 -0.7615256
v -5.052085 1 0.7513786
v -5.052085 2 0.7513786
v -6.703648 2 -1
v -6.703648 1 -1
v -5.320398 1 -1
v -5.320398 2 -1
v -5.320398 1 -1
v -5.320398 0.25 -1
v -5.052085 0.25 -0.7615256
v -5.052085 1 -0.7615256
v -5.052085 1 -0.7615256
v -5.052085 0.25 -0.7615256
v -5.052085 0.25 0.7513786
v -5.052085 1 0.7513786
v -6.703648 1 -1
v -6.703648 0.25 -1
v -5.320398 0.25 -1
v -5.320398 1 -1
v -2.647979 9.694851 -0.375
v -2.647979 9.694648 0.375
v -2.647979 7.945122 0.375
v -2.647979 7.945326 -0.375
v -1.039986 9.694851 -0.375
v -1.169156 9.694882 -0.5
v -1.169156 7.945359 -0.5
v -1.039986 7.945326 -0.375
v -2.647979 10.61262 -0.375
v -2.647979 10.61241 0.375
v -2.647979 9.694648 0.375
v -2.647979 9.694851 -0.375
v -1.039986 10.61241 0.375
v -1.039986 10.61262 -0.375
v -1.039986 9.694851 -0.375
v -1.039986 9.694647 0.375
v 3.5 5 1
v 3.5 4.814612 0.7513786
v 0 4.814612 0.7513786
v 0 5 1
v 1.169156 7.945359 -0.5
v 2.518809 7.945359 -0.5
v 2.518809 9.694882 -0.5
v 1.169156 9.694882 -0.5
v 1.274268 10.78936 -0.381009
v 2.413697 10.78936 -0.381009
v 2.522748 10.78933 -0.2857567
v 1.165217 10.78933 -0.2857567
v 2.522748 10.78913 0.2857567
v 1.165217 10.78913 0.2857567
v 2.413697 10.78909 0.381009
v 1.274268 10.78909 0.381009
v 2.518809 7.945359 -0.5
v 2.647979 7.945326 -0.375
v 2.647979 9.694851 -0.375
v 2.518809 9.694882 -0.5
v 1.169156 7.945088 0.5
v 1.039986 7.945122 0.375
v 1.039986 9.694647 0.375
v 1.169156 9.694613 0.5
v 1.169156 10.61265 -0.5
v 2.413697 10.78936 -0.381009
v 1.274268 10.78936 -0.381009
v 2.518809 10.61265 -0.5
v 1.169156 9.694882 -0.5
v 2.518809 9.694882 -0.5
v 2.518809 9.694882 -0.5
v 2.647979 10.61262 -0.375
v 2.647979 9.694851 -0.375
v 2.518809 10.61265 -0.5
v 2.522748 10.78933 -0.2857567
v 2.413697 10.78936 -0.381009
v 2.647979 10.61262 -0.375
v 2.647979 10.61241 0.375
v 2.522748 10.78913 0.2857567
v 2.518809 10.61238 0.5
v 2.413697 10.78909 0.381009
v 1.274268 10.78909 0.381009
v 2.518809 9.694613 0.5
v 2.647979 9.694648 0.375
v 1.169156 10.61238 0.5
v 1.169156 9.694613 0.5
v 1.165217 10.78913 0.2857567
v 1.039986 10.61241 0.375
v 1.039986 9.694647 0.375
v 1.039986 10.61262 -0.375
v 1.165217 10.78933 -0.2857567
v 1.169156 10.61265 -0.5
v 1.274268 10.78936 -0.381009
v 1.169156 9.694882 -0.5
v 1.039986 9.694851 -0.375
v 1.169156 9.694613 0.5
v 2.518809 7.945088 0.5
v 1.169156 7.945088 0.5
v 2.518809 9.694613 0.5
v 2.647979 9.694648 0.375
v 2.647979 7.945122 0.375
v 5.320398 0 1
v 5.052085 0 0.7513786
v 5.052085 0.25 0.7513786
v 5.320398 0.25 1
v 6.703648 0 1
v 6.703648 0.25 1
v 6.947915 0 0.7513786
v 6.947915 0.25 0.7513786
v 6.947915 0 -0.7615256
v 6.947915 0.25 -0.7615256
v 6.703648 0 -1
v 6.703648 0.25 -1
v 6.703648 6.528822 -1
v 6.703648 4 -1
v 6.947915 4 -0.7615256
v 6.947915 6.528822 -0.7615256
v 6.947915 6.528822 0.7513786
v 6.947915 4 0.7513786
v 6.703648 6.528822 1
v 6.703648 4 1
v 5.320398 4.767951 1
v 5.320398 4 1
v 5.052085 4.582563 0.7513786
v 5.052085 4 0.7513786
v 4.829482 4.814612 0.7513786
v 5.097795 5 1
v 3.5 4.814612 0.7513786
v 3.5 5 1
v 3.5 6.528822 1
v 6.566792 6.765377 0.7513786
v 3.738374 6.765377 0.7513786
v 6.761908 6.765377 0.6056405
v 6.947915 6.528822 0.7513786
v 6.761908 6.765377 -0.6157874
v 6.947915 6.528822 -0.7615256
v 6.703648 6.528822 -1
v 6.566792 6.765377 -0.7615256
v 0.2792852 6.025158 -0.5470924
v 0 6.333917 -0.5470924
v 0 6.025158 -0.5470924
v 0 5.375 -0.5470924
v 0.9948254 6.025158 -0.5470924
v 0.9948254 5.375 -0.5470924
v 0.9948254 5.375 -1
v 0.9948254 6.025158 -1
v 0.2792852 6.025158 -1
v 3.5 6.528822 1
v 3.5 5 1
v 0 7.753072 1
v 0 5 1
v 0 4.814612 -0.7615256
v 3.5 4.814612 -0.7615256
v 3.5 5 -1
v 0 5 -1
v 3.5 4.814612 -0.7615256
v 5.097795 5 -1
v 3.5 5 -1
v 4.829482 4.814612 -0.7615256
v 5.320398 4.767951 -1
v 5.052085 4.582563 -0.7615256
v 5.052085 4 -0.7615256
v 5.320398 4 -1
v 3.738374 6.765377 -0.7615256
v 6.566792 6.765377 -0.7615256
v 6.566792 6.765377 0.7513786
v 3.738374 6.765377 0.7513786
v 0 4.814612 0.7513786
v 3.5 4.814612 0.7513786
v 3.5 4.814612 -0.7615256
v 0 4.814612 -0.7615256
v 3.5 4.814612 0.7513786
v 4.829482 4.814612 -0.7615256
v 3.5 4.814612 -0.7615256
v 4.829482 4.814612 0.7513786
v 5.052085 4.582563 -0.7615256
v 5.052085 4.582563 0.7513786
v 5.052085 4 0.7513786
v 5.052085 4 -0.7615256
v 6.761908 6.765377 -0.6157874
v 6.761908 6.765377 0.6056405
v 6.566792 6.765377 0.7513786
v 6.566792 6.765377 -0.7615256
v 6.703648 6.528822 -1
v 6.566792 6.765377 -0.7615256
v 3.738374 6.765377 -0.7615256
v 3.5 6.528822 -1
v 6.703648 6.528822 -1
v 5.320398 4 -1
v 6.703648 4 -1
v 5.320398 4.767951 -1
v 5.097795 5 -1
v 6.947915 0 0.7513786
v 5.320398 0 1
v 6.703648 0 1
v 5.052085 0 0.7513786
v 6.947915 0 -0.7615256
v 5.052085 0 -0.7615256
v 6.703648 0 -1
v 5.320398 0 -1
v 6.703648 0.25 -1
v 5.320398 0.25 -1
v 3.5 5 -1
v 0 5.375 -1
v 0 5 -1
v 0.9948254 5.375 -1
v 0.9948254 6.025158 -1
v 3.5 6.528822 -1
v 3.5 7.753072 -1
v 0 7.753072 -1
v 0.2792852 6.025158 -1
v 0 6.333917 -1
v 5.097795 5 -1
v 6.703648 6.528822 -1
v 3.5 6.528822 -1
v 3.5 5 -1
v 0.2792852 6.025158 -1
v 0 6.333917 -0.5470924
v 0.2792852 6.025158 -0.5470924
v 0 6.333917 -1
v -0.2792852 6.025158 -1
v -0.2792852 6.025158 -0.5470924
v -0.9948254 6.025158 -1
v 0 6.025158 -0.5470924
v -0.9948254 6.025158 -0.5470924
v -0.9948254 5.375 -1
v -0.9948254 5.375 -0.5470924
v 0 5.375 -0.5470924
v 0 5.375 -1
v 0.9948254 5.375 -0.5470924
v 0.9948254 5.375 -1
v 5.320398 0.25 1
v 5.052085 0.25 0.7513786
v 5.052085 1 0.7513786
v 5.320398 1 1
v 6.703648 0.25 1
v 6.703649 1 1
v 6.947915 0.25 0.7513786
v 6.947915 1 0.7513786
v 6.947915 0.25 -0.7615256
v 6.947915 1 -0.7615256
v 6.703648 0.25 -1
v 6.703648 1 -1
v 5.320398 0.25 -1
v 5.052085 0.25 -0.7615256
v 5.052085 0 -0.7615256
v 5.320398 0 -1
v 5.052085 0.25 -0.7615256
v 5.052085 0.25 0.7513786
v 5.052085 0 0.7513786
v 5.052085 0 -0.7615256
v 6.947915 4 -0.7615256
v 6.703648 4 -1
v 6.703648 3 -0.9999999
v 6.947915 3 -0.7615256
v 6.947915 4 0.7513786
v 6.947915 3 0.7513786
v 6.703648 4 1
v 6.703648 3 1
v 5.320398 4 1
v 5.320398 3 1
v 5.052085 4 0.7513786
v 5.052085 3 0.7513786
v 5.320398 4 -1
v 5.052085 4 -0.7615256
v 5.052085 3 -0.7615256
v 5.320398 3 -0.9999999
v 5.052085 4 -0.7615256
v 5.052085 4 0.7513786
v 5.052085 3 0.7513786
v 5.052085 3 -0.7615256
v 6.703648 4 -1
v 5.320398 4 -1
v 5.320398 3 -0.9999999
v 6.703648 3 -0.9999999
v 6.947915 3 -0.7615256
v 6.703648 3 -0.9999999
v 6.703648 2 -1
v 6.947915 2 -0.7615256
v 6.947915 3 0.7513786
v 6.947915 2 0.7513786
v 6.703648 3 1
v 6.703648 2 1
v 5.320398 3 1
v 5.320398 2 1
v 5.052085 3 0.7513786
v 5.052085 2 0.7513786
v 5.320398 3 -0.9999999
v 5.052085 3 -0.7615256
v 5.052085 2 -0.7615256
v 5.320398 2 -1
v 5.052085 3 -0.7615256
v 5.052085 3 0.7513786
v 5.052085 2 0.7513786
v 5.052085 2 -0.7615256
v 6.703648 3 -0.9999999
v 5.320398 3 -0.9999999
v 5.320398 2 -1
v 6.703648 2 -1
v 6.947915 2 -0.7615256
v 6.703648 2 -1
v 6.703648 1 -1
v 6.947915 1 -0.7615256
v 6.947915 2 0.7513786
v 6.947915 1 0.7513786
v 6.703648 2 1
v 6.703649 1 1
v 5.320398 2 1
v 5.320398 1 1
v 5.052085 2 0.7513786
v 5.052085 1 0.7513786
v 5.320398 2 -1
v 5.052085 2 -0.7615256
v 5.052085 1 -0.7615256
v 5.320398 1 -1
v 5.052085 2 -0.7615256
v 5.052085 2 0.7513786
v 5.052085 1 0.7513786
v 5.052085 1 -0.7615256
v 6.703648 2 -1
v 5.320398 2 -1
v 5.320398 1 -1
v 6.703648 1 -1
v 5.320398 1 -1
v 5.052085 1 -0.7615256
v 5.052085 0.25 -0.7615256
v 5.320398 0.25 -1
v 5.052085 1 -0.7615256
v 5.052085 1 0.7513786
v 5.052085 0.25 0.7513786
v 5.052085 0.25 -0.7615256
v 6.703648 1 -1
v 5.320398 1 -1
v 5.320398 0.25 -1
v 6.703648 0.25 -1
v 2.647979 9.694851 -0.375
v 2.647979 7.945326 -0.375
v 2.647979 7.945122 0.375
v 2.647979 9.694648 0.375
v 1.039986 9.694851 -0.375
v 1.169156 7.945359 -0.5
v 1.169156 9.694882 -0.5
v 1.039986 7.945326 -0.375
v 1.039986 9.694647 0.375
v 1.039986 7.945122 0.375
v 2.647979 10.61262 -0.375
v 2.647979 9.694851 -0.375
v 2.647979 9.694648 0.375
v 2.647979 10.61241 0.375
v 1.039986 10.61241 0.375
v 1.039986 9.694647 0.375
v 1.039986 9.694851 -0.375
v 1.039986 10.61262 -0.375
v -1.180678 7.569171 -1.105827
v -1.535464 7.569171 -1.105827
v -1.535464 7.231213 -1.105827
v -1.180678 7.231213 -1.105827
v -1.976646 6.751768 -1.105827
v -1.976646 6.541219 -1.105827
v -0.9993099 6.541219 -1.105827
v -0.9993099 6.751768 -1.105827
v 1.180678 7.569171 -1.105827
v 1.180678 7.231213 -1.105827
v 1.535464 7.231213 -1.105827
v 1.535464 7.569171 -1.105827
v 1.976646 6.751768 -1.105827
v 0.9993099 6.751768 -1.105827
v 0.9993099 6.541219 -1.105827
v 1.976646 6.541219 -1.105827
v 0.6653279 5.331619 -0.7797955
v 0.6653279 5.331619 -0.5035919
v 0.6653279 5.647267 -0.5035919
v 0.6653279 5.647267 -0.7797955
v -0.6653279 5.331619 -0.7797955
v -0.6653279 5.647267 -0.7797955
v -0.6653279 5.647267 -0.5035919
v -0.6653279 5.331619 -0.5035919
v -0.5058231 7.462554 1.331269
v -0.5058231 7.462554 0.9802591
v 0.5951439 6.756482 0.9802591
v 0.5951439 6.756482 1.331269
v 0.6254286 6.639734 1.331269
v 0.6254286 6.639734 0.9802591
v 0.6254286 6.639734 1.331269
v 0.6254286 6.639734 0.9802591
v 0.2002051 5.979407 0.9802591
v 0.2002051 5.979407 1.331269
v -0.2084935 6.242656 1.331269
v -0.16811 6.305352 1.331269
v -0.2084935 6.242656 0.9802591
v -0.16811 6.305352 0.9802591
v -0.1980228 6.411293 0.9802591
v -0.1980228 6.411293 1.331269
v 0.5951439 6.756482 1.331269
v -0.5058231 7.462554 1.331269
v -0.8929605 6.858896 1.331269
v -0.8929605 6.858896 0.9802591
v -0.8929605 6.858896 1.331269
v -0.6250659 7.441627 1.331269
v -0.5058231 7.462554 1.331269
v -0.923683 6.975998 1.331269
v -0.8929605 6.858896 0.9802591
v -0.6250659 7.441627 0.9802591
v -0.923683 6.975998 0.9802591
v -0.5058231 7.462554 1.331269
v -0.6250659 7.441627 1.331269
v -0.6250659 7.441627 0.9802591
v -0.5058231 7.462554 0.9802591
v -2.287469 5.428524 -1.097249
v -3.285836 5.428524 -0.9629236
v -2.287469 5.428524 -0.9630273
v -2.287469 6.374795 -0.9629977
v -3.285836 5.428524 -1.097129
v -2.287469 6.374795 -1.097218
v -3.285836 6.374795 -1.097114
v -3.285836 6.374795 -0.9628924
v -0.9993099 6.541219 -1.105827
v -1.976646 6.541219 -0.8271738
v -0.9993099 6.541219 -0.8271738
v -0.9993099 6.751768 -0.8271738
v -1.976646 6.541219 -1.105827
v -1.976646 6.751768 -1.105827
v -1.976646 6.751768 -0.8271738
v -0.9993099 6.751768 -1.105827
v -1.976646 7.678751 -0.8271738
v -1.976646 7.678751 -1.105827
v -0.9993099 7.678751 -0.8271738
v -0.9993099 7.678751 -1.105827
v -1.535464 7.231213 -1.105827
v -1.535464 7.569171 -1.105827
v -1.180678 7.231213 -1.105827
v -1.180678 7.569171 -1.105827
v 2.287469 5.428524 -1.097249
v 2.287469 5.428524 -0.9630273
v 3.285836 5.428524 -0.9629236
v 2.287469 6.374795 -0.9629977
v 3.285836 5.428524 -1.097129
v 2.287469 6.374795 -1.097218
v 3.285836 6.374795 -1.097114
v 3.285836 6.374795 -0.9628924
v 0.9993099 6.541219 -1.105827
v 0.9993099 6.541219 -0.8271738
v 1.976646 6.541219 -0.8271738
v 0.9993099 6.751768 -0.8271738
v 1.976646 6.541219 -1.105827
v 1.976646 6.751768 -1.105827
v 1.976646 6.751768 -0.8271738
v 0.9993099 6.751768 -1.105827
v 1.976646 7.678751 -0.8271738
v 1.976646 7.678751 -1.105827
v 0.9993099 7.678751 -0.8271738
v 0.9993099 7.678751 -1.105827
v 1.535464 7.231213 -1.105827
v 1.535464 7.569171 -1.105827
v 1.180678 7.231213 -1.105827
v 1.180678 7.569171 -1.105827
v 0.136816 6.40978 -1.078256
v -0.136816 6.40978 -0.9910278
v 0.136816 6.40978 -0.9910098
v 0.136816 6.599886 -0.9910098
v -0.136816 6.40978 -1.078274
v 0.136816 6.599886 -1.078256
v -0.136816 6.599886 -1.078274
v -0.136816 6.599886 -0.9910278
v 0.2337478 5.389575 1.331269
v 0.2337478 5.389575 0.9802591
v -0.3991558 5.797239 0.9802591
v 0.3145242 5.406507 0.9802591
v -0.3991558 5.797239 1.331269
v -0.4169558 5.919015 1.331269
v 0.1754518 5.940978 1.331269
v -0.4169558 5.919015 0.9802591
v -0.2084935 6.242656 0.9802591
v -0.2084935 6.242656 1.331269
v 0.2002051 5.979407 1.331269
v 0.2002051 5.979407 0.9802591
v 0.1754518 5.940978 0.9802591
v 0.2130057 5.849814 0.9802591
v 0.2130057 5.849814 1.331269
v 0.4371861 5.705417 1.331269
v 0.4371861 5.705417 0.9802591
v 0.3145242 5.406507 1.331269
v 0.4551749 5.62487 1.331269
v 0.4551749 5.62487 0.9802591
vt 0.05979381 2.168357E-16
vt 0 1
vt 0 1.164128E-07
vt 0 1.164128E-07
vt 0.6675576 0
vt 0.05979381 2.168357E-16
vt 0.6675576 0
vt 0.7615858 1.084179E-16
vt 0.05979381 2.168357E-16
vt 0.6675575 0
vt 0.8922771 2.835275E-16
vt 0.645852 0.6163138
vt 0 1
vt 0.05979381 2.168357E-16
vt 0.7615858 1.084179E-16
vt 0.8922771 2.835275E-16
vt 0.6675575 0
vt 0.5160863 0.5627025
vt 0.645852 0.6163138
vt 0.6675575 0.5066985
vt 0.8922771 2.835275E-16
vt 0.5160863 0.5627025
vt 0.3646151 0.500124
vt 0 0.8457103
vt 0.4421036 0.6807289
vt 0.6675575 0.7210906
vt 0.6675575 0.9999999
vt 0.7035444 0.2282358
vt 0.4982349 0.2282358
vt 0.4982349 0.2282335
vt 0.7035444 0.2282335
vt 0.7255087 0.5803186
vt 0.4981874 0.6094505
vt 0.4981874 0.6094505
vt 0.6920699 0.6094505
vt 0.7255087 0.5805311
vt 0.7255087 0.3380517
vt 0.691898 0.6094505
vt 0.7255087 0.3380476
vt 0.6915543 0.6094505
vt 0.7255087 0.5818242
vt 0.7255087 0.3380227
vt 0.6913824 0.6094505
vt 0.7255087 0.3380187
vt 0.7255087 0.5820281
vt 0.7255087 0.5803186
vt 0.4981874 0.6094505
vt 0.6920699 0.6094505
vt 0.7255087 0.5805311
vt 0.7255087 0.3380517
vt 0.691898 0.6094505
vt 0.7255087 0.3380476
vt 0.6915543 0.6094505
vt 0.7255087 0.5818242
vt 0.7255087 0.3380227
vt 0.6913824 0.6094505
vt 0.7255087 0.3380187
vt 0.7255087 0.5820281
vt 0.5675344 0.6007939
vt 0.5675344 0.79113
vt 0.6719539 0.79113
vt 0.6719539 0.6007939
vt 0.5802637 0.8888889
vt 0.6592246 0.8869408
vt 0.6592246 0.8888889
vt 0.5802637 0.8869408
vt 0.6592246 0.874568
vt 0.5802637 0.874568
vt 0.6592246 0.872482
vt 0.5802637 0.872482
vt 0.6719539 0.6007939
vt 0.6719539 0.79113
vt 0.6719538 0.7891819
vt 0.6719538 0.5988458
vt 0.5675344 0.5843871
vt 0.5675344 0.7747232
vt 0.5675344 0.7768092
vt 0.5675344 0.5864731
vt 0.5675344 0.5988458
vt 0.5675344 0.7891819
vt 0.5675344 0.8757883
vt 0.5802637 0.8888889
vt 0.6592246 0.8888889
vt 0.6719539 0.8757883
vt 0.5675344 0.79113
vt 0.6719539 0.79113
vt 0.6719539 0.79113
vt 0.6719539 0.8738402
vt 0.6719538 0.7891819
vt 0.6719539 0.8757883
vt 0.6592246 0.8888889
vt 0.6592246 0.8869408
vt 0.6719539 0.8738402
vt 0.6719539 0.8614675
vt 0.6592246 0.874568
vt 0.6719539 0.8593814
vt 0.6592246 0.872482
vt 0.5802637 0.872482
vt 0.6719539 0.7747232
vt 0.6719539 0.7768092
vt 0.5675344 0.8593814
vt 0.5675344 0.7747232
vt 0.5802637 0.874568
vt 0.5675344 0.8614675
vt 0.5675344 0.7768092
vt 0.5675344 0.8738402
vt 0.5802637 0.8869408
vt 0.5675344 0.8757883
vt 0.5802637 0.8888889
vt 0.5675344 0.79113
vt 0.5675344 0.7891819
vt 0.5675344 0.7747232
vt 0.5675344 0.5843871
vt 0.6719539 0.5843871
vt 0.6719539 0.7747232
vt 0.6719539 0.7768092
vt 0.6719539 0.5864731
vt 0.625 0
vt 0.6560777 0.01376777
vt 0.6560777 0
vt 0.625 0.01376777
vt 0.375 0
vt 0.375 0.01341699
vt 0.3439223 0
vt 0.3439223 0.01341699
vt 0.1548093 0
vt 0.1548093 0.01341699
vt 0.125 0
vt 0.125 0.01341699
vt 0.125 0.25
vt 0.1548093 0.1656999
vt 0.125 0.1656999
vt 0.1548093 0.25
vt 0.3439223 0.25
vt 0.3439223 0.1656999
vt 0.375 0.25
vt 0.375 0.1656999
vt 0.625 0.1996982
vt 0.625 0.1693946
vt 0.6560777 0.1996982
vt 0.6560777 0.1693946
vt 0.6560777 0.2094173
vt 0.625 0.2094173
vt 0.6560777 0.2094173
vt 0.625 0.2094173
vt 0.625 0.25
vt 0.625 0.2810777
vt 0.6560777 0.25
vt 0.4072111 0.2810777
vt 0.375 0.2810777
vt 0.4072111 0.4701907
vt 0.375 0.4701907
vt 0.375 0.5
vt 0.625 0.4701907
vt 0.4982349 0.2282198
vt 0.4982349 0.2282177
vt 0.7035444 0.2282177
vt 0.7035444 0.2282198
vt 0.6913824 0.6094505
vt 0.7255087 0.5820281
vt 0.4981874 0.6094505
vt 0.4981874 0.6094505
vt 0.6913824 0.6094505
vt 0.4981874 0.6094505
vt 0.7255087 0.5820281
vt 0.8451906 0.2094173
vt 0.875 0.2094173
vt 0.875 0.2094173
vt 0.8451906 0.2094173
vt 0.875 0.1996982
vt 0.8451906 0.1996982
vt 0.8451906 0.1693946
vt 0.875 0.1693946
vt 0.8451906 0.25
vt 0.6560777 0.25
vt 0.6560777 0.25
vt 0.8451906 0.25
vt 0.4982349 0.2282335
vt 0.4982349 0.2282198
vt 0.7035444 0.2282198
vt 0.7035444 0.2282335
vt 0.6920699 0.6094505
vt 0.6913824 0.6094505
vt 0.4981874 0.6094505
vt 0.4981874 0.6094505
vt 0.6920699 0.6094505
vt 0.6913824 0.6094505
vt 0.6915543 0.6094505
vt 0.691898 0.6094505
vt 0.691898 0.6094505
vt 0.6915543 0.6094505
vt 0.6913824 0.6094505
vt 0.6560777 0.2094173
vt 0.8451906 0.2094173
vt 0.8451906 0.2094173
vt 0.6560777 0.2094173
vt 0.8451906 0.1996982
vt 0.6560777 0.1996982
vt 0.6560777 0.1693946
vt 0.8451906 0.1693946
vt 0.4072111 0.4701907
vt 0.625 0.4701907
vt 0.625 0.2810777
vt 0.4072111 0.2810777
vt 0.375 0.5
vt 0.875 0.25
vt 0.8451906 0.25
vt 0.8451906 0.25
vt 0.375 0.5
vt 0.375 0.5843001
vt 0.625 0.5806054
vt 0.625 0.5503018
vt 0.625 0.5405828
vt 0.375 0.9689223
vt 0.375 1
vt 0.625 1
vt 0.625 0.9689223
vt 0.375 0.7798093
vt 0.625 0.7798093
vt 0.375 0.75
vt 0.625 0.75
vt 0.375 0.736583
vt 0.625 0.7362323
vt 0.4002712 1.738687E-16
vt 0 0.2804148
vt 0.1974388 0.5622439
vt 0.9999999 0
vt 0.625 0.01376777
vt 0.6560777 0.04545896
vt 0.6560777 0.01376777
vt 0.625 0.04545896
vt 0.375 0.01341699
vt 0.375 0.04442723
vt 0.3439223 0.01341699
vt 0.3439223 0.04442723
vt 0.1548093 0.01341699
vt 0.1548093 0.04442723
vt 0.125 0.01341699
vt 0.125 0.04442722
vt 0.875 0.01376778
vt 0.875 0
vt 0.8451906 0
vt 0.8451906 0.01376777
vt 0.8451906 0.01376777
vt 0.8451906 0
vt 0.6560777 0
vt 0.6560777 0.01376777
vt 0.1548093 0.1656999
vt 0.125 0.1264959
vt 0.125 0.1656999
vt 0.1548093 0.1264959
vt 0.3439223 0.1656999
vt 0.3439223 0.1264959
vt 0.375 0.1656999
vt 0.375 0.1264959
vt 0.625 0.1693946
vt 0.625 0.1293298
vt 0.6560777 0.1693946
vt 0.6560777 0.1293298
vt 0.875 0.1693946
vt 0.875 0.1293298
vt 0.8451906 0.1293298
vt 0.8451906 0.1693946
vt 0.8451906 0.1693946
vt 0.8451906 0.1293298
vt 0.6560777 0.1293298
vt 0.6560777 0.1693946
vt 0.375 0.5843001
vt 0.375 0.6235041
vt 0.625 0.6206703
vt 0.625 0.5806054
vt 0.1548093 0.1264959
vt 0.125 0.08710293
vt 0.125 0.1264959
vt 0.1548093 0.08710293
vt 0.3439223 0.1264959
vt 0.3439223 0.08710293
vt 0.375 0.1264959
vt 0.375 0.08710293
vt 0.625 0.1293298
vt 0.625 0.08907177
vt 0.6560777 0.1293298
vt 0.6560777 0.08907177
vt 0.875 0.1293298
vt 0.875 0.08907177
vt 0.8451906 0.08907177
vt 0.8451906 0.1293298
vt 0.8451906 0.1293298
vt 0.8451906 0.08907177
vt 0.6560777 0.08907177
vt 0.6560777 0.1293298
vt 0.375 0.6235041
vt 0.375 0.6628971
vt 0.625 0.6609283
vt 0.625 0.6206703
vt 0.1548093 0.08710293
vt 0.125 0.04442722
vt 0.125 0.08710293
vt 0.1548093 0.04442723
vt 0.3439223 0.08710293
vt 0.3439223 0.04442723
vt 0.375 0.08710293
vt 0.375 0.04442723
vt 0.625 0.08907177
vt 0.625 0.04545896
vt 0.6560777 0.08907177
vt 0.6560777 0.04545896
vt 0.875 0.08907177
vt 0.875 0.04545895
vt 0.8451906 0.04545896
vt 0.8451906 0.08907177
vt 0.8451906 0.08907177
vt 0.8451906 0.04545896
vt 0.6560777 0.04545896
vt 0.6560777 0.08907177
vt 0.375 0.6628971
vt 0.375 0.7055728
vt 0.625 0.7045411
vt 0.625 0.6609283
vt 0.875 0.04545895
vt 0.875 0.01376778
vt 0.8451906 0.01376777
vt 0.8451906 0.04545896
vt 0.8451906 0.04545896
vt 0.8451906 0.01376777
vt 0.6560777 0.01376777
vt 0.6560777 0.04545896
vt 0.375 0.7055728
vt 0.375 0.736583
vt 0.625 0.7362323
vt 0.625 0.7045411
vt 0.6719538 0.7891819
vt 0.6719539 0.7768092
vt 0.6719539 0.5864731
vt 0.6719538 0.5988458
vt 0.5675344 0.7891819
vt 0.5675344 0.79113
vt 0.5675344 0.6007939
vt 0.5675344 0.5988458
vt 0.6719539 0.8738402
vt 0.6719539 0.8614675
vt 0.6719539 0.7768092
vt 0.6719538 0.7891819
vt 0.5675344 0.8614675
vt 0.5675344 0.8738402
vt 0.5675344 0.7891819
vt 0.5675344 0.7768092
vt 0.7035444 0.2282358
vt 0.7035444 0.2282335
vt 0.4982349 0.2282335
vt 0.4982349 0.2282358
vt 0.5675344 0.6007939
vt 0.6719539 0.6007939
vt 0.6719539 0.79113
vt 0.5675344 0.79113
vt 0.5802637 0.8888889
vt 0.6592246 0.8888889
vt 0.6592246 0.8869408
vt 0.5802637 0.8869408
vt 0.6592246 0.874568
vt 0.5802637 0.874568
vt 0.6592246 0.872482
vt 0.5802637 0.872482
vt 0.6719539 0.6007939
vt 0.6719538 0.5988458
vt 0.6719538 0.7891819
vt 0.6719539 0.79113
vt 0.5675344 0.5843871
vt 0.5675344 0.5864731
vt 0.5675344 0.7768092
vt 0.5675344 0.7747232
vt 0.5675344 0.8757883
vt 0.6592246 0.8888889
vt 0.5802637 0.8888889
vt 0.6719539 0.8757883
vt 0.5675344 0.79113
vt 0.6719539 0.79113
vt 0.6719539 0.79113
vt 0.6719539 0.8738402
vt 0.6719538 0.7891819
vt 0.6719539 0.8757883
vt 0.6592246 0.8869408
vt 0.6592246 0.8888889
vt 0.6719539 0.8738402
vt 0.6719539 0.8614675
vt 0.6592246 0.874568
vt 0.6719539 0.8593814
vt 0.6592246 0.872482
vt 0.5802637 0.872482
vt 0.6719539 0.7747232
vt 0.6719539 0.7768092
vt 0.5675344 0.8593814
vt 0.5675344 0.7747232
vt 0.5802637 0.874568
vt 0.5675344 0.8614675
vt 0.5675344 0.7768092
vt 0.5675344 0.8738402
vt 0.5802637 0.8869408
vt 0.5675344 0.8757883
vt 0.5802637 0.8888889
vt 0.5675344 0.79113
vt 0.5675344 0.7891819
vt 0.5675344 0.7747232
vt 0.6719539 0.5843871
vt 0.5675344 0.5843871
vt 0.6719539 0.7747232
vt 0.6719539 0.7768092
vt 0.6719539 0.5864731
vt 0.625 0
vt 0.6560777 0
vt 0.6560777 0.01376777
vt 0.625 0.01376777
vt 0.375 0
vt 0.375 0.01341699
vt 0.3439223 0
vt 0.3439223 0.01341699
vt 0.1548093 0
vt 0.1548093 0.01341699
vt 0.125 0
vt 0.125 0.01341699
vt 0.125 0.25
vt 0.125 0.1656999
vt 0.1548093 0.1656999
vt 0.1548093 0.25
vt 0.3439223 0.25
vt 0.3439223 0.1656999
vt 0.375 0.25
vt 0.375 0.1656999
vt 0.625 0.1996982
vt 0.625 0.1693946
vt 0.6560777 0.1996982
vt 0.6560777 0.1693946
vt 0.6560777 0.2094173
vt 0.625 0.2094173
vt 0.6560777 0.2094173
vt 0.625 0.2094173
vt 0.625 0.25
vt 0.625 0.2810777
vt 0.6560777 0.25
vt 0.4072111 0.2810777
vt 0.375 0.2810777
vt 0.4072111 0.4701907
vt 0.375 0.4701907
vt 0.375 0.5
vt 0.625 0.4701907
vt 0.645852 0.6163138
vt 0.6675575 0.5066985
vt 0.6675575 0.6252812
vt 0.6675575 0.7210906
vt 0.5160863 0.5627025
vt 0.4421036 0.6807289
vt 0.4421036 0.6807289
vt 0.5160863 0.5627025
vt 0.645852 0.6163138
vt 0.7615858 1.084179E-16
vt 0.6675576 0
vt 0 1
vt 0 1.164128E-07
vt 0.4982349 0.2282198
vt 0.7035444 0.2282198
vt 0.7035444 0.2282177
vt 0.4982349 0.2282177
vt 0.8451906 0.2094173
vt 0.875 0.2094173
vt 0.875 0.2094173
vt 0.8451906 0.2094173
vt 0.875 0.1996982
vt 0.8451906 0.1996982
vt 0.8451906 0.1693946
vt 0.875 0.1693946
vt 0.8451906 0.25
vt 0.8451906 0.25
vt 0.6560777 0.25
vt 0.6560777 0.25
vt 0.4982349 0.2282335
vt 0.7035444 0.2282335
vt 0.7035444 0.2282198
vt 0.4982349 0.2282198
vt 0.6560777 0.2094173
vt 0.8451906 0.2094173
vt 0.8451906 0.2094173
vt 0.6560777 0.2094173
vt 0.8451906 0.1996982
vt 0.6560777 0.1996982
vt 0.6560777 0.1693946
vt 0.8451906 0.1693946
vt 0.4072111 0.4701907
vt 0.4072111 0.2810777
vt 0.625 0.2810777
vt 0.625 0.4701907
vt 0.375 0.5
vt 0.8451906 0.25
vt 0.8451906 0.25
vt 0.875 0.25
vt 0.375 0.5
vt 0.625 0.5806054
vt 0.375 0.5843001
vt 0.625 0.5503018
vt 0.625 0.5405828
vt 0.375 0.9689223
vt 0.625 1
vt 0.375 1
vt 0.625 0.9689223
vt 0.375 0.7798093
vt 0.625 0.7798093
vt 0.375 0.75
vt 0.625 0.75
vt 0.375 0.736583
vt 0.625 0.7362323
vt 0 0.8457103
vt 0.6675575 0.7210906
vt 0.6675575 0.9999999
vt 0.4421036 0.6807289
vt 0.5160863 0.5627025
vt 0.3646151 0.500124
vt 0.8922771 2.835275E-16
vt 0.6675575 0
vt 0.645852 0.6163138
vt 0.6675575 0.5066985
vt 0.4002712 1.738687E-16
vt 0.9999999 0
vt 0.1974388 0.5622439
vt 0 0.2804148
vt 0.645852 0.6163138
vt 0.6675575 0.5066985
vt 0.645852 0.6163138
vt 0.6675575 0.5066985
vt 0.645852 0.6163138
vt 0.645852 0.6163138
vt 0.5160863 0.5627025
vt 0.6675575 0.6252812
vt 0.5160863 0.5627025
vt 0.4421036 0.6807289
vt 0.4421036 0.6807289
vt 0.6675575 0.7210906
vt 0.6675575 0.7210906
vt 0.4421036 0.6807289
vt 0.4421036 0.6807289
vt 0.625 0.01376777
vt 0.6560777 0.01376777
vt 0.6560777 0.04545896
vt 0.625 0.04545896
vt 0.375 0.01341699
vt 0.375 0.04442723
vt 0.3439223 0.01341699
vt 0.3439223 0.04442723
vt 0.1548093 0.01341699
vt 0.1548093 0.04442723
vt 0.125 0.01341699
vt 0.125 0.04442722
vt 0.875 0.01376778
vt 0.8451906 0.01376777
vt 0.8451906 0
vt 0.875 0
vt 0.8451906 0.01376777
vt 0.6560777 0.01376777
vt 0.6560777 0
vt 0.8451906 0
vt 0.1548093 0.1656999
vt 0.125 0.1656999
vt 0.125 0.1264959
vt 0.1548093 0.1264959
vt 0.3439223 0.1656999
vt 0.3439223 0.1264959
vt 0.375 0.1656999
vt 0.375 0.1264959
vt 0.625 0.1693946
vt 0.625 0.1293298
vt 0.6560777 0.1693946
vt 0.6560777 0.1293298
vt 0.875 0.1693946
vt 0.8451906 0.1693946
vt 0.8451906 0.1293298
vt 0.875 0.1293298
vt 0.8451906 0.1693946
vt 0.6560777 0.1693946
vt 0.6560777 0.1293298
vt 0.8451906 0.1293298
vt 0.375 0.5843001
vt 0.625 0.5806054
vt 0.625 0.6206703
vt 0.375 0.6235041
vt 0.1548093 0.1264959
vt 0.125 0.1264959
vt 0.125 0.08710293
vt 0.1548093 0.08710293
vt 0.3439223 0.1264959
vt 0.3439223 0.08710293
vt 0.375 0.1264959
vt 0.375 0.08710293
vt 0.625 0.1293298
vt 0.625 0.08907177
vt 0.6560777 0.1293298
vt 0.6560777 0.08907177
vt 0.875 0.1293298
vt 0.8451906 0.1293298
vt 0.8451906 0.08907177
vt 0.875 0.08907177
vt 0.8451906 0.1293298
vt 0.6560777 0.1293298
vt 0.6560777 0.08907177
vt 0.8451906 0.08907177
vt 0.375 0.6235041
vt 0.625 0.6206703
vt 0.625 0.6609283
vt 0.375 0.6628971
vt 0.1548093 0.08710293
vt 0.125 0.08710293
vt 0.125 0.04442722
vt 0.1548093 0.04442723
vt 0.3439223 0.08710293
vt 0.3439223 0.04442723
vt 0.375 0.08710293
vt 0.375 0.04442723
vt 0.625 0.08907177
vt 0.625 0.04545896
vt 0.6560777 0.08907177
vt 0.6560777 0.04545896
vt 0.875 0.08907177
vt 0.8451906 0.08907177
vt 0.8451906 0.04545896
vt 0.875 0.04545895
vt 0.8451906 0.08907177
vt 0.6560777 0.08907177
vt 0.6560777 0.04545896
vt 0.8451906 0.04545896
vt 0.375 0.6628971
vt 0.625 0.6609283
vt 0.625 0.7045411
vt 0.375 0.7055728
vt 0.875 0.04545895
vt 0.8451906 0.04545896
vt 0.8451906 0.01376777
vt 0.875 0.01376778
vt 0.8451906 0.04545896
vt 0.6560777 0.04545896
vt 0.6560777 0.01376777
vt 0.8451906 0.01376777
vt 0.375 0.7055728
vt 0.625 0.7045411
vt 0.625 0.7362323
vt 0.375 0.736583
vt 0.6719538 0.7891819
vt 0.6719538 0.5988458
vt 0.6719539 0.5864731
vt 0.6719539 0.7768092
vt 0.5675344 0.7891819
vt 0.5675344 0.6007939
vt 0.5675344 0.79113
vt 0.5675344 0.5988458
vt 0.5675344 0.7768092
vt 0.5675344 0.5864731
vt 0.6719539 0.8738402
vt 0.6719538 0.7891819
vt 0.6719539 0.7768092
vt 0.6719539 0.8614675
vt 0.5675344 0.8614675
vt 0.5675344 0.7768092
vt 0.5675344 0.7891819
vt 0.5675344 0.8738402
vt 0.5758784 0.5142134
vt 0.6028222 0.5142134
vt 0.6028222 0.4885475
vt 0.5758784 0.4885475
vt 0.6262656 0.4592732
vt 0.6262656 0.4456006
vt 0.5627996 0.4456006
vt 0.5627996 0.4592732
vt 0.5758784 0.5142134
vt 0.5758784 0.4885475
vt 0.6028222 0.4885475
vt 0.6028222 0.5142134
vt 0.6262656 0.4592732
vt 0.5627996 0.4592732
vt 0.5627996 0.4456006
vt 0.6262656 0.4456006
vt 0.4483342 0.3138738
vt 0.4483342 0.3138738
vt 0.4483342 0.3488466
vt 0.4483342 0.3488466
vt 0.5516659 0.3138738
vt 0.5516659 0.3488466
vt 0.5516659 0.3488466
vt 0.5516659 0.3138738
vt -0.6806656 0.4676789
vt -0.6806656 0.4676789
vt -0.7924113 0.441494
vt -0.7924113 0.441494
vt -0.8071241 0.4194964
vt -0.8071241 0.4194964
vt -0.8071241 0.4194964
vt -0.8071241 0.4194964
vt -0.7702228 0.2620171
vt -0.7702228 0.2620171
vt -0.6669814 0.2862091
vt -0.6706926 0.3020467
vt -0.6669814 0.2862091
vt -0.6706926 0.3020467
vt -0.656795 0.3216273
vt -0.656795 0.3216273
vt -0.7924113 0.441494
vt -0.6806656 0.4676789
vt -0.4827272 0.3624157
vt -0.4827272 0.3624157
vt 1 0.4894642
vt 0 0.4894642
vt 0 0.4894642
vt 1 0.4894642
vt 1 4.643149E-16
vt 0 0
vt 1 4.643149E-16
vt 0 0.4894642
vt 0 0.4894642
vt 0 0
vt 0 0
vt 0.6159392 0.3280224
vt 0.6938308 0.3280224
vt 0.6159392 0.3280224
vt 0.6159392 0.4131445
vt 0.6938308 0.3280224
vt 0.6159392 0.4131445
vt 0.6938308 0.4131445
vt 0.6938308 0.4131445
vt 0.5627996 0.4456006
vt 0.6262656 0.4456006
vt 0.5627996 0.4456006
vt 0.5627996 0.4592732
vt 0.6262656 0.4456006
vt 0.6262656 0.4592732
vt 0.6262656 0.4592732
vt 0.5627996 0.4592732
vt 0.6262656 0.5194694
vt 0.6262656 0.5194694
vt 0.5627996 0.5194694
vt 0.5627996 0.5194694
vt 0.6028222 0.4885475
vt 0.6028222 0.5142134
vt 0.5758784 0.4885475
vt 0.5758784 0.5142134
vt 0.6159392 0.3280224
vt 0.6159392 0.3280224
vt 0.6938308 0.3280224
vt 0.6159392 0.4131445
vt 0.6938308 0.3280224
vt 0.6159392 0.4131445
vt 0.6938308 0.4131445
vt 0.6938308 0.4131445
vt 0.5627996 0.4456006
vt 0.5627996 0.4456006
vt 0.6262656 0.4456006
vt 0.5627996 0.4592732
vt 0.6262656 0.4456006
vt 0.6262656 0.4592732
vt 0.6262656 0.4592732
vt 0.5627996 0.4592732
vt 0.6262656 0.5194694
vt 0.6262656 0.5194694
vt 0.5627996 0.5194694
vt 0.5627996 0.5194694
vt 0.6028222 0.4885475
vt 0.6028222 0.5142134
vt 0.5758784 0.4885475
vt 0.5758784 0.5142134
vt 0.4876262 0.4250545
vt 0.5123738 0.4250545
vt 0.4876262 0.4250545
vt 0.4876262 0.4393438
vt 0.5123738 0.4250545
vt 0.4876262 0.4393438
vt 0.5123738 0.4393438
vt 0.5123738 0.4393438
vt -0.8202691 0.1432698
vt -0.8202691 0.1432698
vt -0.6603913 0.1807331
vt -0.8356286 0.1526587
vt -0.6603913 0.1807331
vt -0.6478242 0.204454
vt -0.767948 0.2523094
vt -0.6478242 0.204454
vt -0.6669814 0.2862091
vt -0.6669814 0.2862091
vt -0.7702228 0.2620171
vt -0.7702228 0.2620171
vt -0.767948 0.2523094
vt -0.7823344 0.2363243
vt -0.7823344 0.2363243
vt -0.8389646 0.2230544
vt -0.8389646 0.2230544
vt -0.8356286 0.1526587
vt -0.8485541 0.2078193
vt -0.8485541 0.2078193
vn -0.03036729 0.06602956 0.9973555
vn 0 0.08102367 0.9967122
vn 0 -0.08430818 0.9964398
vn 0 -0.08430818 0.9964398
vn 0 -0.08642134 0.9962587
vn -0.03036729 0.06602956 0.9973555
vn 0 -0.08642134 0.9962587
vn -0.007203464 0.01953689 0.9997832
vn -0.03036729 0.06602956 0.9973555
vn 0 0.1304049 -0.9914608
vn -0.04896526 0.1056628 -0.9931958
vn 0.01769375 -0.05700944 -0.9982168
vn 0 0.08102367 0.9967122
vn 0.03036729 0.06602957 0.9973555
vn 0.007203456 0.01953689 0.9997832
vn 0.04896526 0.1056628 -0.9931958
vn 0 0.1304049 -0.9914608
vn -0.02239242 -0.02464428 -0.9994455
vn 0.01769375 -0.05700944 -0.9982168
vn 0 -0.01536411 -0.999882
vn -0.04896526 0.1056628 -0.9931958
vn 0.02239242 -0.02464428 -0.9994455
vn -0.01266925 0.0343548 -0.9993294
vn 0 -0.1635214 -0.9865398
vn 0.06367001 0.0974233 -0.9932044
vn 0 0.471469 -0.8818827
vn 0 -0.4883114 -0.8726695
vn 0 -0.08642134 0.9962587
vn 0 -0.08430818 0.9964398
vn 0 -0.9945076 0.1046645
vn 0 -0.9942457 0.1071237
vn -0.03036729 0.06602956 0.9973555
vn 0 0.990249 0.1393087
vn 0 0.08102367 0.9967122
vn -0.008846936 0.9850947 0.1717854
vn -0.9809637 0.1185056 0.1538396
vn -0.007203464 0.01953689 0.9997832
vn -0.5098113 0.8583275 0.05801992
vn -0.3232243 0.9170796 0.2334333
vn -0.5097695 0.8583425 -0.05816521
vn -0.9809245 0.1178851 -0.1545649
vn -0.3229344 0.9165131 -0.2360446
vn -0.008615519 0.9848039 -0.1734564
vn -0.01266925 0.0343548 -0.9993294
vn -0.04896526 0.1056628 -0.9931958
vn 0.03036729 0.06602957 0.9973555
vn 0 0.08102367 0.9967122
vn 0.008846935 0.9850947 0.1717854
vn 0.9809637 0.1185056 0.1538396
vn 0.007203456 0.01953689 0.9997832
vn 0.5098115 0.8583273 0.05801992
vn 0.3232243 0.9170796 0.2334334
vn 0.5097698 0.8583423 -0.05816523
vn 0.9809245 0.1178851 -0.1545648
vn 0.3229344 0.9165131 -0.2360447
vn 0.008615519 0.9848039 -0.1734563
vn 0.01266925 0.0343548 -0.9993294
vn 0.04896526 0.1056628 -0.9931958
vn 0.08423508 0 -0.996446
vn 0.08422367 0 -0.9964469
vn -0.08422366 0 -0.9964469
vn -0.08423508 0 -0.996446
vn 0.03858047 0.7944383 -0.6061183
vn -0.1713096 0.9849409 -0.02332858
vn -0.03858053 0.7944384 -0.6061181
vn 0.1713096 0.9849409 -0.02332869
vn -0.1713342 0.9849204 0.02400742
vn 0.1713342 0.9849204 0.02400753
vn -0.03856821 0.7943118 0.6062849
vn 0.03856827 0.7943118 0.6062849
vn -0.08423508 0 -0.996446
vn -0.08422366 0 -0.9964469
vn -0.989277 0 -0.1460516
vn -0.9892838 0 -0.1460053
vn 0.08421712 0 0.9964474
vn 0.08422922 0 0.9964464
vn 0.9892803 0 0.1460294
vn 0.9892733 0 0.1460768
vn 0.9892838 0 -0.1460054
vn 0.989277 0 -0.1460516
vn 0.08660823 0.08381355 -0.9927106
vn 0.03858047 0.7944383 -0.6061183
vn -0.03858053 0.7944384 -0.6061181
vn -0.08660825 0.08381357 -0.9927106
vn 0.08422367 0 -0.9964469
vn -0.08422366 0 -0.9964469
vn -0.08422366 0 -0.9964469
vn -0.9844303 0.09246173 -0.1494922
vn -0.989277 0 -0.1460516
vn -0.08660825 0.08381357 -0.9927106
vn -0.03858053 0.7944384 -0.6061181
vn -0.1713096 0.9849409 -0.02332858
vn -0.9844303 0.09246173 -0.1494922
vn -0.9844347 0.09242343 0.1494872
vn -0.1713342 0.9849204 0.02400742
vn -0.08661719 0.08380915 0.9927102
vn -0.03856821 0.7943118 0.6062849
vn 0.03856827 0.7943118 0.6062849
vn -0.08422927 0 0.9964464
vn -0.9892803 0 0.1460294
vn 0.08661723 0.08380914 0.9927101
vn 0.08422922 0 0.9964464
vn 0.1713342 0.9849204 0.02400753
vn 0.9844347 0.09242354 0.1494871
vn 0.9892803 0 0.1460294
vn 0.9844303 0.09246178 -0.1494921
vn 0.1713096 0.9849409 -0.02332869
vn 0.08660823 0.08381355 -0.9927106
vn 0.03858047 0.7944383 -0.6061183
vn 0.08422367 0 -0.9964469
vn 0.989277 0 -0.1460516
vn 0.08422922 0 0.9964464
vn 0.08421712 0 0.9964474
vn -0.08421712 0 0.9964474
vn -0.08422927 0 0.9964464
vn -0.9892803 0 0.1460294
vn -0.9892733 0 0.1460768
vn 0.08303058 -0.8299907 0.5515626
vn 0.9885975 0 0.1505817
vn 0.1423168 -0.9895838 0.02167749
vn 0.1488597 0 0.9888583
vn -0.08454584 -0.8285794 0.5534511
vn -0.1510093 0 0.9885323
vn -0.1417706 -0.9897043 0.01965902
vn -0.9905221 0 0.1373535
vn -0.1415837 -0.9897293 -0.01974686
vn -0.9904135 0 -0.1381342
vn -0.08294945 -0.8201489 -0.5661054
vn -0.1449784 0 -0.9894348
vn -0.1577859 0.1488136 -0.9761958
vn -0.9904135 0 -0.1381342
vn -0.1828254 0 -0.9831455
vn -0.9887308 0.05259591 -0.1401606
vn -0.9888167 0.05282456 0.1394674
vn -0.9905221 0 0.1373536
vn -0.1636889 0.1549898 0.9742609
vn -0.1903283 0 0.9817204
vn 0.04120622 -0.01227382 0.9990753
vn 0.1007532 0 0.9949115
vn 0.944322 -0.2475635 0.2167215
vn 0.9874533 0 0.1579117
vn 0.1348699 -0.9772906 0.1634415
vn 0.01008352 -0.04179759 0.9990752
vn 0 -0.9942457 0.1071237
vn 0 -0.08642134 0.9962587
vn -0.007203464 0.01953689 0.9997832
vn -0.009006022 0.9853609 0.1702431
vn -0.3232243 0.9170796 0.2334333
vn -0.5104098 0.8575962 0.063329
vn -0.9888167 0.05282456 0.1394674
vn -0.5103597 0.857613 -0.06350479
vn -0.9887308 0.05259591 -0.1401606
vn -0.1577859 0.1488136 -0.9761958
vn -0.008754153 0.9850766 -0.171894
vn 0 -0.9944443 -0.1052642
vn 0 -0.4883114 -0.8726695
vn 0 -0.1635214 -0.9865398
vn 0 -0.9941778 -0.1077518
vn -0.008615519 0.9848039 -0.1734564
vn -0.04896526 0.1056628 -0.9931958
vn 0 0.1304049 -0.9914608
vn 0 0.9901351 -0.1401157
vn 0.008615519 0.9848039 -0.1734563
vn 0 0.1304049 -0.9914608
vn 0.04896526 0.1056628 -0.9931958
vn 0 -0.9941778 -0.1077518
vn 0 -0.1635214 -0.9865398
vn 0.009687143 -0.03964971 -0.9991667
vn 0.1350402 -0.976959 -0.1652731
vn 0.03933219 -0.01176105 -0.999157
vn 0.943819 -0.2476833 -0.218766
vn 0.987303 0 -0.1588483
vn 0.09668045 0 -0.9953154
vn -0.3229344 0.9165131 -0.2360446
vn -0.3232243 0.9170796 0.2334333
vn -0.009006022 0.9853609 0.1702431
vn -0.008754153 0.9850766 -0.171894
vn 0 -0.9945076 0.1046645
vn 0 -0.9944443 -0.1052642
vn 0 -0.9941778 -0.1077518
vn 0 -0.9942457 0.1071237
vn -0.008846936 0.9850947 0.1717854
vn -0.008615519 0.9848039 -0.1734564
vn 0 0.9901351 -0.1401157
vn 0 0.990249 0.1393087
vn 0.008846935 0.9850947 0.1717854
vn 0.008615519 0.9848039 -0.1734563
vn 0.5097698 0.8583423 -0.05816523
vn 0.5098115 0.8583273 0.05801992
vn -0.5098113 0.8583275 0.05801992
vn -0.5097695 0.8583425 -0.05816521
vn -0.008615519 0.9848039 -0.1734564
vn 0 -0.9942457 0.1071237
vn 0 -0.9941778 -0.1077518
vn 0.1350402 -0.976959 -0.1652731
vn 0.1348699 -0.9772906 0.1634415
vn 0.943819 -0.2476833 -0.218766
vn 0.944322 -0.2475635 0.2167215
vn 0.9874533 0 0.1579117
vn 0.987303 0 -0.1588483
vn -0.5103597 0.857613 -0.06350479
vn -0.008754153 0.9850766 -0.171894
vn -0.009006022 0.9853609 0.1702431
vn -0.5104098 0.8575962 0.063329
vn -0.1577859 0.1488136 -0.9761958
vn -0.01266925 0.0343548 -0.9993294
vn -0.3229344 0.9165131 -0.2360446
vn -0.008754153 0.9850766 -0.171894
vn -0.1577859 0.1488136 -0.9761958
vn -0.1828254 0 -0.9831455
vn 0.09668045 0 -0.9953154
vn 0.03933219 -0.01176105 -0.999157
vn 0.009687143 -0.03964971 -0.9991667
vn -0.1417706 -0.9897043 0.01965902
vn -0.08454584 -0.8285794 0.5534511
vn 0.08303058 -0.8299907 0.5515626
vn 0.1423168 -0.9895838 0.02167749
vn -0.1415837 -0.9897293 -0.01974686
vn 0.1421079 -0.9896117 -0.02177108
vn -0.08294945 -0.8201489 -0.5661054
vn 0.08147997 -0.8215442 -0.5642926
vn -0.1449784 0 -0.9894348
vn 0.142911 0 -0.9897356
vn 0.009687143 -0.03964971 -0.9991667
vn 0 -0.1635214 -0.9865398
vn -0.01266925 0.0343548 -0.9993294
vn -0.1577859 0.1488136 -0.9761958
vn 0.1488597 0 0.9888583
vn 0.9885975 0 0.1505817
vn 0.9885975 0 0.1505817
vn 0.1488598 0 0.9888583
vn -0.1510093 0 0.9885323
vn -0.1510094 0 0.9885323
vn -0.9905221 0 0.1373535
vn -0.9905221 0 0.1373534
vn -0.9904135 0 -0.1381342
vn -0.9904135 0 -0.1381342
vn -0.1449784 0 -0.9894348
vn -0.1449784 0 -0.9894348
vn 0.142911 0 -0.9897356
vn 0.08147997 -0.8215442 -0.5642926
vn 0.1421079 -0.9896117 -0.02177108
vn 0.9884673 0 -0.1514342
vn 0.9884673 0 -0.1514342
vn 0.1421079 -0.9896117 -0.02177108
vn 0.1423168 -0.9895838 0.02167749
vn 0.9885975 0 0.1505817
vn -0.9904135 0 -0.1381342
vn -0.1449784 0 -0.9894348
vn -0.1828254 0 -0.9831455
vn -0.9904135 0 -0.1381342
vn -0.9905221 0 0.1373536
vn -0.9905221 0 0.1373536
vn -0.1903283 0 0.9817204
vn -0.1510093 0 0.9885323
vn 0.1007532 0 0.9949115
vn 0.1488598 0 0.9888582
vn 0.9874533 0 0.1579117
vn 0.9885975 0 0.1505817
vn 0.09668045 0 -0.9953154
vn 0.142911 0 -0.9897356
vn 0.9884673 0 -0.1514342
vn 0.987303 0 -0.1588483
vn 0.987303 0 -0.1588483
vn 0.9884673 0 -0.1514342
vn 0.9885975 0 0.1505817
vn 0.9874533 0 0.1579117
vn -0.1828254 0 -0.9831455
vn -0.1449784 0 -0.9894348
vn 0.142911 0 -0.9897356
vn 0.09668045 0 -0.9953154
vn -0.9904135 0 -0.1381342
vn -0.1449784 0 -0.9894348
vn -0.1449784 0 -0.9894348
vn -0.9904135 0 -0.1381342
vn -0.9905221 0 0.1373536
vn -0.9905221 0 0.1373535
vn -0.1510093 0 0.9885323
vn -0.1510093 0 0.9885323
vn 0.1488598 0 0.9888582
vn 0.1488598 0 0.9888582
vn 0.9885975 0 0.1505817
vn 0.9885975 0 0.1505817
vn 0.142911 0 -0.9897356
vn 0.142911 0 -0.9897356
vn 0.9884673 0 -0.1514342
vn 0.9884673 0 -0.1514342
vn 0.9884673 0 -0.1514342
vn 0.9884673 0 -0.1514342
vn 0.9885975 0 0.1505817
vn 0.9885975 0 0.1505817
vn -0.1449784 0 -0.9894348
vn -0.1449784 0 -0.9894348
vn 0.142911 0 -0.9897356
vn 0.142911 0 -0.9897356
vn -0.9904135 0 -0.1381342
vn -0.1449784 0 -0.9894348
vn -0.1449784 0 -0.9894348
vn -0.9904135 0 -0.1381342
vn -0.9905221 0 0.1373535
vn -0.9905221 0 0.1373534
vn -0.1510093 0 0.9885323
vn -0.1510094 0 0.9885323
vn 0.1488598 0 0.9888582
vn 0.1488598 0 0.9888583
vn 0.9885975 0 0.1505817
vn 0.9885975 0 0.1505817
vn 0.142911 0 -0.9897356
vn 0.142911 0 -0.9897356
vn 0.9884673 0 -0.1514342
vn 0.9884673 0 -0.1514342
vn 0.9884673 0 -0.1514342
vn 0.9884673 0 -0.1514342
vn 0.9885975 0 0.1505817
vn 0.9885975 0 0.1505817
vn -0.1449784 0 -0.9894348
vn -0.1449784 0 -0.9894348
vn 0.142911 0 -0.9897356
vn 0.142911 0 -0.9897356
vn 0.142911 0 -0.9897356
vn 0.142911 0 -0.9897356
vn 0.9884673 0 -0.1514342
vn 0.9884673 0 -0.1514342
vn 0.9884673 0 -0.1514342
vn 0.9884673 0 -0.1514342
vn 0.9885975 0 0.1505817
vn 0.9885975 0 0.1505817
vn -0.1449784 0 -0.9894348
vn -0.1449784 0 -0.9894348
vn 0.142911 0 -0.9897356
vn 0.142911 0 -0.9897356
vn -0.989277 0 -0.1460516
vn -0.9892803 0 0.1460294
vn -0.9892733 0 0.1460768
vn -0.9892838 0 -0.1460053
vn 0.989277 0 -0.1460516
vn 0.08422367 0 -0.9964469
vn 0.08423508 0 -0.996446
vn 0.9892838 0 -0.1460054
vn -0.9844303 0.09246173 -0.1494922
vn -0.9844347 0.09242343 0.1494872
vn -0.9892803 0 0.1460294
vn -0.989277 0 -0.1460516
vn 0.9844347 0.09242354 0.1494871
vn 0.9844303 0.09246178 -0.1494921
vn 0.989277 0 -0.1460516
vn 0.9892803 0 0.1460294
vn 0 -0.08642134 0.9962587
vn 0 -0.9942457 0.1071237
vn 0 -0.9945076 0.1046645
vn 0 -0.08430818 0.9964398
vn -0.08423508 0 -0.996446
vn 0.08423508 0 -0.996446
vn 0.08422367 0 -0.9964469
vn -0.08422367 0 -0.9964469
vn -0.0385805 0.7944395 -0.6061167
vn 0.03858056 0.7944397 -0.6061165
vn 0.1713097 0.9849411 -0.02332746
vn -0.1713096 0.9849411 -0.02332752
vn 0.1713342 0.9849203 0.0240084
vn -0.1713342 0.9849203 0.02400857
vn 0.0385682 0.7943109 0.606286
vn -0.03856826 0.7943109 0.606286
vn 0.08423508 0 -0.996446
vn 0.9892838 0 -0.1460053
vn 0.989277 0 -0.1460516
vn 0.08422367 0 -0.9964469
vn -0.08421712 0 0.9964474
vn -0.9892733 0 0.1460768
vn -0.9892803 0 0.1460294
vn -0.08422921 0 0.9964464
vn -0.08660823 0.08381363 -0.9927106
vn 0.03858056 0.7944397 -0.6061165
vn -0.0385805 0.7944395 -0.6061167
vn 0.08660827 0.08381365 -0.9927106
vn -0.08422367 0 -0.9964469
vn 0.08422367 0 -0.9964469
vn 0.08422367 0 -0.9964469
vn 0.9844303 0.09246172 -0.1494922
vn 0.989277 0 -0.1460516
vn 0.08660827 0.08381365 -0.9927106
vn 0.1713097 0.9849411 -0.02332746
vn 0.03858056 0.7944397 -0.6061165
vn 0.9844303 0.09246172 -0.1494922
vn 0.9844347 0.09242344 0.1494872
vn 0.1713342 0.9849203 0.0240084
vn 0.08661716 0.08380902 0.9927102
vn 0.0385682 0.7943109 0.606286
vn -0.03856826 0.7943109 0.606286
vn 0.08422925 0 0.9964464
vn 0.9892803 0 0.1460294
vn -0.08661722 0.08380906 0.9927102
vn -0.08422921 0 0.9964464
vn -0.1713342 0.9849203 0.02400857
vn -0.9844347 0.09242354 0.1494872
vn -0.9892803 0 0.1460294
vn -0.9844303 0.09246178 -0.1494921
vn -0.1713096 0.9849411 -0.02332752
vn -0.08660823 0.08381363 -0.9927106
vn -0.0385805 0.7944395 -0.6061167
vn -0.08422367 0 -0.9964469
vn -0.989277 0 -0.1460516
vn -0.08422921 0 0.9964464
vn 0.08421712 0 0.9964474
vn -0.08421712 0 0.9964474
vn 0.08422925 0 0.9964464
vn 0.9892803 0 0.1460294
vn 0.9892733 0 0.1460768
vn -0.08303058 -0.8299907 0.5515626
vn -0.1423168 -0.9895838 0.02167749
vn -0.9885975 0 0.1505817
vn -0.1488597 0 0.9888583
vn 0.08454584 -0.8285794 0.5534511
vn 0.1510093 0 0.9885323
vn 0.1417706 -0.9897043 0.01965902
vn 0.9905221 0 0.1373535
vn 0.1415837 -0.9897293 -0.01974686
vn 0.9904135 0 -0.1381342
vn 0.08294945 -0.8201489 -0.5661054
vn 0.1449784 0 -0.9894348
vn 0.1577858 0.1488136 -0.9761958
vn 0.1828254 0 -0.9831455
vn 0.9904135 0 -0.1381342
vn 0.9887308 0.0525959 -0.1401606
vn 0.9888167 0.05282454 0.1394674
vn 0.9905221 0 0.1373536
vn 0.1636889 0.1549898 0.9742609
vn 0.1903283 0 0.9817204
vn -0.04120618 -0.01227382 0.9990753
vn -0.1007532 0 0.9949115
vn -0.944322 -0.2475635 0.2167216
vn -0.9874533 0 0.1579117
vn -0.1348699 -0.9772906 0.1634414
vn -0.01008351 -0.04179759 0.9990752
vn 0 -0.9942457 0.1071237
vn 0 -0.08642134 0.9962587
vn 0.007203456 0.01953689 0.9997832
vn 0.009006018 0.9853609 0.1702432
vn 0.3232243 0.9170796 0.2334334
vn 0.5104101 0.8575961 0.06332897
vn 0.9888167 0.05282454 0.1394674
vn 0.5103599 0.8576129 -0.06350473
vn 0.9887308 0.0525959 -0.1401606
vn 0.1577858 0.1488136 -0.9761958
vn 0.008754143 0.9850765 -0.1718941
vn -0.09999276 -0.3221778 -0.9413835
vn 0 -0.9875078 -0.1575706
vn 0 0 -1
vn 0 0.5715948 -0.8205361
vn -0.3769967 -0.4149088 -0.8280847
vn -0.3499405 0.535454 -0.7686551
vn -0.06367001 0.0974233 -0.9932044
vn -0.02239242 -0.02464428 -0.9994455
vn -0.01769374 -0.05700944 -0.9982168
vn 0.007203456 0.01953689 0.9997832
vn 0 -0.08642134 0.9962587
vn 0 0.08102367 0.9967122
vn 0 -0.08430818 0.9964398
vn 0 -0.9944443 -0.1052642
vn 0 -0.9941778 -0.1077518
vn 0 -0.1635214 -0.9865398
vn 0 -0.4883114 -0.8726695
vn 0 -0.9941778 -0.1077518
vn -0.009687137 -0.03964969 -0.9991667
vn 0 -0.1635214 -0.9865398
vn -0.1350402 -0.976959 -0.1652731
vn -0.03933218 -0.01176105 -0.999157
vn -0.943819 -0.2476832 -0.218766
vn -0.987303 0 -0.1588483
vn -0.09668045 0 -0.9953154
vn 0.3229344 0.9165131 -0.2360447
vn 0.008754143 0.9850765 -0.1718941
vn 0.009006018 0.9853609 0.1702432
vn 0.3232243 0.9170796 0.2334334
vn 0 -0.9945076 0.1046645
vn 0 -0.9942457 0.1071237
vn 0 -0.9941778 -0.1077518
vn 0 -0.9944443 -0.1052642
vn 0 -0.9942457 0.1071237
vn -0.1350402 -0.976959 -0.1652731
vn 0 -0.9941778 -0.1077518
vn -0.1348699 -0.9772906 0.1634414
vn -0.943819 -0.2476832 -0.218766
vn -0.944322 -0.2475635 0.2167216
vn -0.9874533 0 0.1579117
vn -0.987303 0 -0.1588483
vn 0.5103599 0.8576129 -0.06350473
vn 0.5104101 0.8575961 0.06332897
vn 0.009006018 0.9853609 0.1702432
vn 0.008754143 0.9850765 -0.1718941
vn 0.1577858 0.1488136 -0.9761958
vn 0.008754143 0.9850765 -0.1718941
vn 0.3229344 0.9165131 -0.2360447
vn 0.01266925 0.0343548 -0.9993294
vn 0.1577858 0.1488136 -0.9761958
vn -0.09668045 0 -0.9953154
vn 0.1828254 0 -0.9831455
vn -0.03933218 -0.01176105 -0.999157
vn -0.009687137 -0.03964969 -0.9991667
vn 0.1417706 -0.9897043 0.01965902
vn -0.08303058 -0.8299907 0.5515626
vn 0.08454584 -0.8285794 0.5534511
vn -0.1423168 -0.9895838 0.02167749
vn 0.1415837 -0.9897293 -0.01974686
vn -0.1421079 -0.9896117 -0.02177108
vn 0.08294945 -0.8201489 -0.5661054
vn -0.08147997 -0.8215442 -0.5642926
vn 0.1449784 0 -0.9894348
vn -0.142911 0 -0.9897356
vn 0 -0.1635214 -0.9865398
vn 0 0.471469 -0.8818827
vn 0 -0.4883114 -0.8726695
vn -0.06367001 0.0974233 -0.9932044
vn -0.02239242 -0.02464428 -0.9994455
vn 0.01266925 0.0343548 -0.9993294
vn 0.04896526 0.1056628 -0.9931958
vn 0 0.1304049 -0.9914608
vn -0.01769374 -0.05700944 -0.9982168
vn 0 -0.01536411 -0.999882
vn -0.009687137 -0.03964969 -0.9991667
vn 0.1577858 0.1488136 -0.9761958
vn 0.01266925 0.0343548 -0.9993294
vn 0 -0.1635214 -0.9865398
vn -0.01769374 -0.05700944 -0.9982168
vn 0 -0.9875078 -0.1575706
vn -0.09999276 -0.3221778 -0.9413835
vn 0 -0.01536411 -0.999882
vn 0.01769375 -0.05700944 -0.9982168
vn 0.09999274 -0.3221777 -0.9413836
vn 0.02239242 -0.02464428 -0.9994455
vn 0 0 -1
vn 0.3769966 -0.4149086 -0.8280848
vn 0.06367001 0.0974233 -0.9932044
vn 0.3499405 0.5354539 -0.7686551
vn 0 0.5715948 -0.8205361
vn 0 0.471469 -0.8818827
vn -0.3499405 0.535454 -0.7686551
vn -0.06367001 0.0974233 -0.9932044
vn -0.1488597 0 0.9888583
vn -0.9885975 0 0.1505817
vn -0.9885975 0 0.1505817
vn -0.1488598 0 0.9888583
vn 0.1510093 0 0.9885323
vn 0.1510094 0 0.9885323
vn 0.9905221 0 0.1373535
vn 0.9905221 0 0.1373534
vn 0.9904135 0 -0.1381342
vn 0.9904135 0 -0.1381342
vn 0.1449784 0 -0.9894348
vn 0.1449784 0 -0.9894348
vn -0.142911 0 -0.9897356
vn -0.9884673 0 -0.1514342
vn -0.1421079 -0.9896117 -0.02177108
vn -0.08147997 -0.8215442 -0.5642926
vn -0.9884673 0 -0.1514342
vn -0.9885975 0 0.1505817
vn -0.1423168 -0.9895838 0.02167749
vn -0.1421079 -0.9896117 -0.02177108
vn 0.9904135 0 -0.1381342
vn 0.1828254 0 -0.9831455
vn 0.1449784 0 -0.9894348
vn 0.9904135 0 -0.1381342
vn 0.9905221 0 0.1373536
vn 0.9905221 0 0.1373536
vn 0.1903283 0 0.9817204
vn 0.1510093 0 0.9885323
vn -0.1007532 0 0.9949115
vn -0.1488598 0 0.9888582
vn -0.9874533 0 0.1579117
vn -0.9885975 0 0.1505817
vn -0.09668045 0 -0.9953154
vn -0.987303 0 -0.1588483
vn -0.9884673 0 -0.1514342
vn -0.142911 0 -0.9897356
vn -0.987303 0 -0.1588483
vn -0.9874533 0 0.1579117
vn -0.9885975 0 0.1505817
vn -0.9884673 0 -0.1514342
vn 0.1828254 0 -0.9831455
vn -0.09668045 0 -0.9953154
vn -0.142911 0 -0.9897356
vn 0.1449784 0 -0.9894348
vn 0.9904135 0 -0.1381342
vn 0.1449784 0 -0.9894348
vn 0.1449784 0 -0.9894348
vn 0.9904135 0 -0.1381342
vn 0.9905221 0 0.1373536
vn 0.9905221 0 0.1373535
vn 0.1510093 0 0.9885323
vn 0.1510093 0 0.9885323
vn -0.1488598 0 0.9888582
vn -0.1488598 0 0.9888582
vn -0.9885975 0 0.1505817
vn -0.9885975 0 0.1505817
vn -0.142911 0 -0.9897356
vn -0.9884673 0 -0.1514342
vn -0.9884673 0 -0.1514342
vn -0.142911 0 -0.9897356
vn -0.9884673 0 -0.1514342
vn -0.9885975 0 0.1505817
vn -0.9885975 0 0.1505817
vn -0.9884673 0 -0.1514342
vn 0.1449784 0 -0.9894348
vn -0.142911 0 -0.9897356
vn -0.142911 0 -0.9897356
vn 0.1449784 0 -0.9894348
vn 0.9904135 0 -0.1381342
vn 0.1449784 0 -0.9894348
vn 0.1449784 0 -0.9894348
vn 0.9904135 0 -0.1381342
vn 0.9905221 0 0.1373535
vn 0.9905221 0 0.1373534
vn 0.1510093 0 0.9885323
vn 0.1510094 0 0.9885323
vn -0.1488598 0 0.9888582
vn -0.1488598 0 0.9888583
vn -0.9885975 0 0.1505817
vn -0.9885975 0 0.1505817
vn -0.142911 0 -0.9897356
vn -0.9884673 0 -0.1514342
vn -0.9884673 0 -0.1514342
vn -0.142911 0 -0.9897356
vn -0.9884673 0 -0.1514342
vn -0.9885975 0 0.1505817
vn -0.9885975 0 0.1505817
vn -0.9884673 0 -0.1514342
vn 0.1449784 0 -0.9894348
vn -0.142911 0 -0.9897356
vn -0.142911 0 -0.9897356
vn 0.1449784 0 -0.9894348
vn -0.142911 0 -0.9897356
vn -0.9884673 0 -0.1514342
vn -0.9884673 0 -0.1514342
vn -0.142911 0 -0.9897356
vn -0.9884673 0 -0.1514342
vn -0.9885975 0 0.1505817
vn -0.9885975 0 0.1505817
vn -0.9884673 0 -0.1514342
vn 0.1449784 0 -0.9894348
vn -0.142911 0 -0.9897356
vn -0.142911 0 -0.9897356
vn 0.1449784 0 -0.9894348
vn 0.989277 0 -0.1460516
vn 0.9892838 0 -0.1460053
vn 0.9892733 0 0.1460768
vn 0.9892803 0 0.1460294
vn -0.989277 0 -0.1460516
vn -0.08423508 0 -0.996446
vn -0.08422367 0 -0.9964469
vn -0.9892838 0 -0.1460054
vn -0.9892803 0 0.1460294
vn -0.9892733 0 0.1460768
vn 0.9844303 0.09246172 -0.1494922
vn 0.989277 0 -0.1460516
vn 0.9892803 0 0.1460294
vn 0.9844347 0.09242344 0.1494872
vn -0.9844347 0.09242354 0.1494872
vn -0.9892803 0 0.1460294
vn -0.989277 0 -0.1460516
vn -0.9844303 0.09246178 -0.1494921
vn -3.327536E-07 0 -1
vn 0 0 -1
vn 0 0 -1
vn -2.414567E-07 0 -1
vn -0.5308514 0 -0.8474649
vn -0.1693984 -0.7863212 -0.5941405
vn 0.1693984 -0.7863212 -0.5941405
vn 0.5526554 0 -0.8334098
vn 1.663768E-07 0 -1
vn 1.207283E-07 0 -1
vn 0 0 -1
vn 0 0 -1
vn 0.5308514 0 -0.8474649
vn -0.5526554 0 -0.8334099
vn -0.1693984 -0.7863212 -0.5941405
vn 0.1693984 -0.7863212 -0.5941405
vn 0.2032373 0 -0.9791296
vn 1 0 0
vn 0.2308076 0.9729994 0
vn 0.1543374 0.6506295 -0.7435465
vn -0.2032373 0 -0.9791296
vn -0.1543374 0.6506295 -0.7435465
vn -0.2308076 0.9729994 0
vn -1 0 0
vn 0.2570631 0.4578167 0.8510713
vn 0.4895974 0.8719487 0
vn 0.5882141 0.8087052 0
vn 0.3849648 0.5292682 0.7560934
vn 0.7601132 -0.3863183 0.5224807
vn 0.8914704 -0.453079 0
vn 0.7601132 -0.3863183 0.5224807
vn 0.8914704 -0.453079 0
vn 0.8407535 -0.5414181 0
vn 0.5725477 -0.3687023 0.7322893
vn -0.3844248 0.2476138 0.8893284
vn -0.1366622 0.008485327 0.9905814
vn -0.840697 0.541506 0
vn -0.998078 0.0619705 0
vn -0.6069286 -0.7947564 0
vn -0.1614073 -0.2113585 0.9639893
vn 0.3849648 0.5292682 0.7560934
vn 0.2570631 0.4578167 0.8510713
vn -0.2304778 -0.2961696 0.9269108
vn -0.6141459 -0.7891925 0
vn -0.2304778 -0.2961696 0.9269108
vn -0.7114111 0.6109681 0.3472927
vn 0.2570631 0.4578167 0.8510713
vn -0.852033 0.3916984 0.3472927
vn -0.6141459 -0.7891925 0
vn -0.7586307 0.651521 0
vn -0.9085863 0.4176973 0
vn 0.2570631 0.4578167 0.8510713
vn -0.7114111 0.6109681 0.3472927
vn -0.7586307 0.651521 0
vn 0.4895974 0.8719487 0
vn 0.1318345 -0.1391692 -0.9814539
vn -0.6879483 -0.7257596 0
vn 0.68792 -0.7257865 0
vn 0.6878859 0.7258188 0
vn -0.1320447 -0.1391862 -0.9814231
vn 0.1318389 0.139225 -0.9814454
vn -0.1320463 0.1392392 -0.9814154
vn -0.6879141 0.7257922 0
vn 0.1693984 -0.7863212 -0.5941405
vn -0.2105999 -0.9775724 0
vn 0.2105999 -0.9775724 0
vn 1 0 0
vn -0.1693984 -0.7863212 -0.5941405
vn -0.5308514 0 -0.8474649
vn -1 0 0
vn 0.5526554 0 -0.8334098
vn -0.6881692 0.7255502 0
vn -0.5747976 0.6060204 -0.5498608
vn 0.6881692 0.7255502 0
vn 0.6648537 0.7009684 -0.2580943
vn 0 0 -1
vn 0 0 -1
vn -2.414567E-07 0 -1
vn -3.327536E-07 0 -1
vn -0.1318345 -0.1391692 -0.9814539
vn -0.6879201 -0.7257864 0
vn 0.6879483 -0.7257596 0
vn -0.6878859 0.7258189 0
vn 0.1320447 -0.1391862 -0.9814231
vn -0.1318389 0.139225 -0.9814453
vn 0.1320463 0.1392392 -0.9814154
vn 0.6879141 0.7257922 0
vn -0.1693984 -0.7863212 -0.5941405
vn -0.2105999 -0.9775724 0
vn 0.2105999 -0.9775724 0
vn -1 0 0
vn 0.1693984 -0.7863212 -0.5941405
vn 0.5308514 0 -0.8474649
vn 1 0 0
vn -0.5526554 0 -0.8334099
vn 0.6881692 0.7255502 0
vn 0.5747976 0.6060204 -0.5498608
vn -0.6881692 0.7255502 0
vn -0.6648538 0.7009684 -0.2580943
vn 0 0 -1
vn 0 0 -1
vn 1.207283E-07 0 -1
vn 1.663768E-07 0 -1
vn 0.2783854 -0.4006336 -0.8729228
vn -0.570548 -0.8212643 0
vn 0.5705813 -0.8212411 0
vn 0.5705813 0.8212411 0
vn -0.278284 -0.4006186 -0.872962
vn 0.2783854 0.4006336 -0.8729228
vn -0.278284 0.4006186 -0.872962
vn -0.570548 0.8212643 0
vn -0.3927711 -0.7174047 0.5753793
vn -0.4802268 -0.8771444 0
vn -0.6311255 -0.7756807 0
vn 0.7282406 -0.6853216 0
vn -0.5640317 -0.6932195 0.4486813
vn -0.7412652 0.3173009 0.5914778
vn 0.1980223 0.01955963 0.9800023
vn -0.9193174 0.3935167 0
vn -0.840697 0.541506 0
vn -0.3844248 0.2476138 0.8893284
vn 0.5725477 -0.3687023 0.7322893
vn 0.8407535 -0.5414181 0
vn 0.9951572 0.09829653 0
vn 0.6689649 0.7432939 0
vn 0.219794 0.2442155 0.9444836
vn 0.3403262 0.3663861 0.8659904
vn 0.6805697 0.7326832 0
vn 0.7071335 -0.6654584 0.2390133
vn 0.8983198 -0.3686382 0.2390137
vn 0.9251336 -0.3796416 0
g arch_model_0
f 3/3/3 2/2/2 1/1/1
f 6/6/6 5/5/5 4/4/4
f 9/9/9 8/8/8 7/7/7
f 12/12/12 11/11/11 10/10/10
f 15/15/15 14/14/14 13/13/13
f 18/18/18 17/17/17 16/16/16
f 17/17/17 20/20/20 19/19/19
f 19/19/19 22/22/22 21/21/21
f 22/22/22 23/23/23 21/21/21
f 23/23/23 22/22/22 24/24/24
f 22/22/22 25/25/25 24/24/24
f 25/25/25 26/26/26 24/24/24
f 26/26/26 27/27/27 24/24/24
f 30/30/30 29/29/29 28/28/28
f 31/31/31 30/30/30 28/28/28
f 34/34/34 33/33/33 32/32/32
f 33/33/33 35/35/35 32/32/32
f 32/32/32 35/35/35 36/36/36
f 37/37/37 32/32/32 36/36/36
f 35/35/35 38/38/38 36/36/36
f 39/39/39 37/37/37 36/36/36
f 38/38/38 40/40/40 36/36/36
f 39/39/39 36/36/36 41/41/41
f 40/40/40 41/41/41 36/36/36
f 42/42/42 39/39/39 41/41/41
f 40/40/40 43/43/43 41/41/41
f 42/42/42 41/41/41 44/44/44
f 43/43/43 45/45/45 41/41/41
f 41/41/41 45/45/45 44/44/44
f 33/33/33 47/47/47 46/46/46
f 48/48/48 33/33/33 46/46/46
f 48/48/48 46/46/46 49/49/49
f 46/46/46 50/50/50 49/49/49
f 51/51/51 48/48/48 49/49/49
f 50/50/50 52/52/52 49/49/49
f 53/53/53 51/51/51 49/49/49
f 49/49/49 52/52/52 54/54/54
f 54/54/54 53/53/53 49/49/49
f 52/52/52 55/55/55 54/54/54
f 56/56/56 53/53/53 54/54/54
f 54/54/54 55/55/55 57/57/57
f 58/58/58 56/56/56 54/54/54
f 58/58/58 54/54/54 57/57/57
f 61/61/61 60/60/60 59/59/59
f 62/62/62 61/61/61 59/59/59
f 65/65/65 64/64/64 63/63/63
f 64/64/64 66/66/66 63/63/63
f 64/64/64 67/67/67 66/66/66
f 67/67/67 68/68/68 66/66/66
f 67/67/67 69/69/69 68/68/68
f 69/69/69 70/70/70 68/68/68
f 73/73/73 72/72/72 71/71/71
f 74/74/74 73/73/73 71/71/71
f 77/77/77 76/76/76 75/75/75
f 78/78/78 77/77/77 75/75/75
f 78/78/78 79/79/79 77/77/77
f 79/79/79 80/80/80 77/77/77
f 83/83/83 82/82/82 81/81/81
f 84/84/84 83/83/83 81/81/81
f 84/84/84 81/81/81 85/85/85
f 86/86/86 84/84/84 85/85/85
f 88/88/88 84/84/84 87/87/87
f 89/89/89 88/88/88 87/87/87
f 92/92/92 91/91/91 90/90/90
f 93/93/93 92/92/92 90/90/90
f 93/93/93 94/94/94 92/92/92
f 94/94/94 95/95/95 92/92/92
f 94/94/94 96/96/96 95/95/95
f 96/96/96 97/97/97 95/95/95
f 98/98/98 97/97/97 96/96/96
f 99/99/99 96/96/96 94/94/94
f 100/100/100 99/99/99 94/94/94
f 101/101/101 98/98/98 96/96/96
f 96/96/96 99/99/99 101/101/101
f 99/99/99 102/102/102 101/101/101
f 103/103/103 98/98/98 101/101/101
f 104/104/104 101/101/101 102/102/102
f 104/104/104 103/103/103 101/101/101
f 105/105/105 104/104/104 102/102/102
f 104/104/104 106/106/106 103/103/103
f 106/106/106 107/107/107 103/103/103
f 106/106/106 108/108/108 107/107/107
f 108/108/108 109/109/109 107/107/107
f 110/110/110 108/108/108 106/106/106
f 111/111/111 110/110/110 106/106/106
f 114/114/114 113/113/113 112/112/112
f 115/115/115 114/114/114 112/112/112
f 114/114/114 115/115/115 116/116/116
f 117/117/117 114/114/114 116/116/116
f 120/120/120 119/119/119 118/118/118
f 119/119/119 121/121/121 118/118/118
f 118/118/118 121/121/121 122/122/122
f 121/121/121 123/123/123 122/122/122
f 122/122/122 123/123/123 124/124/124
f 123/123/123 125/125/125 124/124/124
f 124/124/124 125/125/125 126/126/126
f 125/125/125 127/127/127 126/126/126
f 128/128/128 126/126/126 127/127/127
f 129/129/129 128/128/128 127/127/127
f 132/132/132 131/131/131 130/130/130
f 131/131/131 133/133/133 130/130/130
f 134/134/134 133/133/133 131/131/131
f 135/135/135 134/134/134 131/131/131
f 136/136/136 134/134/134 135/135/135
f 137/137/137 136/136/136 135/135/135
f 138/138/138 136/136/136 137/137/137
f 139/139/139 138/138/138 137/137/137
f 140/140/140 138/138/138 139/139/139
f 141/141/141 140/140/140 139/139/139
f 140/140/140 142/142/142 138/138/138
f 142/142/142 143/143/143 138/138/138
f 138/138/138 143/143/143 136/136/136
f 142/142/142 144/144/144 143/143/143
f 144/144/144 145/145/145 143/143/143
f 143/143/143 145/145/145 136/136/136
f 145/145/145 146/146/146 136/136/136
f 136/136/136 146/146/146 147/147/147
f 146/146/146 148/148/148 147/147/147
f 136/136/136 147/147/147 149/149/149
f 150/150/150 136/136/136 149/149/149
f 149/149/149 151/151/151 150/150/150
f 151/151/151 152/152/152 150/150/150
f 152/152/152 151/151/151 153/153/153
f 151/151/151 154/154/154 153/153/153
f 157/157/157 156/156/156 155/155/155
f 158/158/158 157/157/157 155/155/155
f 161/161/161 160/160/160 159/159/159
f 162/162/162 161/161/161 159/159/159
f 164/164/164 162/162/162 163/163/163
f 165/165/165 164/164/164 163/163/163
f 168/168/168 167/167/167 166/166/166
f 169/169/169 168/168/168 166/166/166
f 170/170/170 168/168/168 169/169/169
f 171/171/171 170/170/170 169/169/169
f 171/171/171 172/172/172 170/170/170
f 172/172/172 173/173/173 170/170/170
f 176/176/176 175/175/175 174/174/174
f 177/177/177 176/176/176 174/174/174
f 180/180/180 179/179/179 178/178/178
f 181/181/181 180/180/180 178/178/178
f 184/184/184 183/183/183 182/182/182
f 185/185/185 184/184/184 182/182/182
f 184/184/184 185/185/185 186/186/186
f 187/187/187 184/184/184 186/186/186
f 188/188/188 187/187/187 186/186/186
f 189/189/189 188/188/188 186/186/186
f 191/191/191 190/190/190 182/182/182
f 192/192/192 191/191/191 182/182/182
f 195/195/195 194/194/194 193/193/193
f 196/196/196 195/195/195 193/193/193
f 197/197/197 195/195/195 196/196/196
f 198/198/198 197/197/197 196/196/196
f 198/198/198 199/199/199 197/197/197
f 199/199/199 200/200/200 197/197/197
f 203/203/203 202/202/202 201/201/201
f 204/204/204 203/203/203 201/201/201
f 207/207/207 206/206/206 205/205/205
f 208/208/208 207/207/207 205/205/205
f 211/211/211 210/210/210 209/209/209
f 212/212/212 211/211/211 209/209/209
f 213/213/213 212/212/212 209/209/209
f 216/216/216 215/215/215 214/214/214
f 217/217/217 216/216/216 214/214/214
f 217/217/217 214/214/214 218/218/218
f 219/219/219 217/217/217 218/218/218
f 219/219/219 218/218/218 220/220/220
f 221/221/221 219/219/219 220/220/220
f 221/221/221 220/220/220 222/222/222
f 223/223/223 221/221/221 222/222/222
f 226/226/226 225/225/225 224/224/224
f 227/227/227 226/226/226 224/224/224
f 230/230/230 229/229/229 228/228/228
f 229/229/229 231/231/231 228/228/228
f 228/228/228 231/231/231 232/232/232
f 231/231/231 233/233/233 232/232/232
f 232/232/232 233/233/233 234/234/234
f 233/233/233 235/235/235 234/234/234
f 234/234/234 235/235/235 236/236/236
f 235/235/235 237/237/237 236/236/236
f 238/238/238 236/236/236 237/237/237
f 239/239/239 238/238/238 237/237/237
f 242/242/242 241/241/241 240/240/240
f 243/243/243 242/242/242 240/240/240
f 246/246/246 245/245/245 244/244/244
f 247/247/247 246/246/246 244/244/244
f 250/250/250 249/249/249 248/248/248
f 249/249/249 251/251/251 248/248/248
f 252/252/252 248/248/248 251/251/251
f 253/253/253 252/252/252 251/251/251
f 254/254/254 252/252/252 253/253/253
f 255/255/255 254/254/254 253/253/253
f 256/256/256 254/254/254 255/255/255
f 257/257/257 256/256/256 255/255/255
f 258/258/258 256/256/256 257/257/257
f 259/259/259 258/258/258 257/257/257
f 262/262/262 261/261/261 260/260/260
f 263/263/263 262/262/262 260/260/260
f 266/266/266 265/265/265 264/264/264
f 267/267/267 266/266/266 264/264/264
f 270/270/270 269/269/269 268/268/268
f 271/271/271 270/270/270 268/268/268
f 274/274/274 273/273/273 272/272/272
f 273/273/273 275/275/275 272/272/272
f 276/276/276 272/272/272 275/275/275
f 277/277/277 276/276/276 275/275/275
f 278/278/278 276/276/276 277/277/277
f 279/279/279 278/278/278 277/277/277
f 280/280/280 278/278/278 279/279/279
f 281/281/281 280/280/280 279/279/279
f 282/282/282 280/280/280 281/281/281
f 283/283/283 282/282/282 281/281/281
f 286/286/286 285/285/285 284/284/284
f 287/287/287 286/286/286 284/284/284
f 290/290/290 289/289/289 288/288/288
f 291/291/291 290/290/290 288/288/288
f 294/294/294 293/293/293 292/292/292
f 295/295/295 294/294/294 292/292/292
f 298/298/298 297/297/297 296/296/296
f 297/297/297 299/299/299 296/296/296
f 300/300/300 296/296/296 299/299/299
f 301/301/301 300/300/300 299/299/299
f 302/302/302 300/300/300 301/301/301
f 303/303/303 302/302/302 301/301/301
f 304/304/304 302/302/302 303/303/303
f 305/305/305 304/304/304 303/303/303
f 306/306/306 304/304/304 305/305/305
f 307/307/307 306/306/306 305/305/305
f 310/310/310 309/309/309 308/308/308
f 311/311/311 310/310/310 308/308/308
f 314/314/314 313/313/313 312/312/312
f 315/315/315 314/314/314 312/312/312
f 318/318/318 317/317/317 316/316/316
f 319/319/319 318/318/318 316/316/316
f 322/322/322 321/321/321 320/320/320
f 323/323/323 322/322/322 320/320/320
f 326/326/326 325/325/325 324/324/324
f 327/327/327 326/326/326 324/324/324
f 330/330/330 329/329/329 328/328/328
f 331/331/331 330/330/330 328/328/328
f 334/334/334 333/333/333 332/332/332
f 335/335/335 334/334/334 332/332/332
f 338/338/338 337/337/337 336/336/336
f 339/339/339 338/338/338 336/336/336
f 342/342/342 341/341/341 340/340/340
f 343/343/343 342/342/342 340/340/340
f 346/346/346 345/345/345 344/344/344
f 347/347/347 346/346/346 344/344/344
f 350/350/350 349/349/349 348/348/348
f 351/351/351 350/350/350 348/348/348
f 354/354/354 353/353/353 352/352/352
f 355/355/355 354/354/354 352/352/352
f 358/358/358 357/357/357 356/356/356
f 359/359/359 358/358/358 356/356/356
f 360/360/360 358/358/358 359/359/359
f 361/361/361 360/360/360 359/359/359
f 362/362/362 360/360/360 361/361/361
f 363/363/363 362/362/362 361/361/361
f 366/366/366 365/365/365 364/364/364
f 367/367/367 366/366/366 364/364/364
f 370/370/370 369/369/369 368/368/368
f 371/371/371 370/370/370 368/368/368
f 374/374/374 373/373/373 372/372/372
f 373/373/373 375/375/375 372/372/372
f 372/372/372 375/375/375 376/376/376
f 375/375/375 377/377/377 376/376/376
f 375/375/375 379/379/379 378/378/378
f 379/379/379 380/380/380 378/378/378
f 383/383/383 382/382/382 381/381/381
f 382/382/382 384/384/384 381/381/381
f 385/385/385 384/384/384 382/382/382
f 386/386/386 385/385/385 382/382/382
f 387/387/387 385/385/385 386/386/386
f 388/388/388 387/387/387 386/386/386
f 388/388/388 389/389/389 387/387/387
f 387/387/387 390/390/390 385/385/385
f 390/390/390 391/391/391 385/385/385
f 389/389/389 392/392/392 387/387/387
f 390/390/390 387/387/387 392/392/392
f 393/393/393 390/390/390 392/392/392
f 389/389/389 394/394/394 392/392/392
f 392/392/392 395/395/395 393/393/393
f 394/394/394 395/395/395 392/392/392
f 395/395/395 396/396/396 393/393/393
f 397/397/397 395/395/395 394/394/394
f 398/398/398 397/397/397 394/394/394
f 399/399/399 397/397/397 398/398/398
f 400/400/400 399/399/399 398/398/398
f 399/399/399 401/401/401 397/397/397
f 401/401/401 402/402/402 397/397/397
f 405/405/405 404/404/404 403/403/403
f 404/404/404 406/406/406 403/403/403
f 406/406/406 404/404/404 407/407/407
f 404/404/404 408/408/408 407/407/407
f 411/411/411 410/410/410 409/409/409
f 412/412/412 411/411/411 409/409/409
f 412/412/412 409/409/409 413/413/413
f 414/414/414 412/412/412 413/413/413
f 414/414/414 413/413/413 415/415/415
f 416/416/416 414/414/414 415/415/415
f 416/416/416 415/415/415 417/417/417
f 418/418/418 416/416/416 417/417/417
f 417/417/417 419/419/419 418/418/418
f 419/419/419 420/420/420 418/418/418
f 423/423/423 422/422/422 421/421/421
f 424/424/424 423/423/423 421/421/421
f 424/424/424 425/425/425 423/423/423
f 425/425/425 426/426/426 423/423/423
f 425/425/425 427/427/427 426/426/426
f 427/427/427 428/428/428 426/426/426
f 427/427/427 429/429/429 428/428/428
f 429/429/429 430/430/430 428/428/428
f 429/429/429 431/431/431 430/430/430
f 431/431/431 432/432/432 430/430/430
f 433/433/433 431/431/431 429/429/429
f 434/434/434 433/433/433 429/429/429
f 434/434/434 429/429/429 427/427/427
f 435/435/435 433/433/433 434/434/434
f 436/436/436 435/435/435 434/434/434
f 436/436/436 434/434/434 427/427/427
f 437/437/437 436/436/436 427/427/427
f 437/437/437 427/427/427 438/438/438
f 439/439/439 437/437/437 438/438/438
f 438/438/438 427/427/427 440/440/440
f 427/427/427 441/441/441 440/440/440
f 442/442/442 440/440/440 441/441/441
f 443/443/443 442/442/442 441/441/441
f 442/442/442 443/443/443 444/444/444
f 445/445/445 442/442/442 444/444/444
f 448/448/448 447/447/447 446/446/446
f 449/449/449 448/448/448 446/446/446
f 449/449/449 446/446/446 450/450/450
f 450/450/450 451/451/451 449/449/449
f 451/451/451 450/450/450 452/452/452
f 450/450/450 453/453/453 452/452/452
f 450/450/450 446/446/446 453/453/453
f 446/446/446 454/454/454 453/453/453
f 457/457/457 456/456/456 455/455/455
f 457/457/457 458/458/458 456/456/456
f 461/461/461 460/460/460 459/459/459
f 462/462/462 461/461/461 459/459/459
f 465/465/465 464/464/464 463/463/463
f 464/464/464 466/466/466 463/463/463
f 464/464/464 467/467/467 466/466/466
f 467/467/467 468/468/468 466/466/466
f 469/469/469 468/468/468 467/467/467
f 470/470/470 469/469/469 467/467/467
f 473/473/473 472/472/472 471/471/471
f 474/474/474 473/473/473 471/471/471
f 477/477/477 476/476/476 475/475/475
f 478/478/478 477/477/477 475/475/475
f 481/481/481 480/480/480 479/479/479
f 480/480/480 482/482/482 479/479/479
f 480/480/480 483/483/483 482/482/482
f 483/483/483 484/484/484 482/482/482
f 485/485/485 484/484/484 483/483/483
f 486/486/486 485/485/485 483/483/483
f 489/489/489 488/488/488 487/487/487
f 490/490/490 489/489/489 487/487/487
f 493/493/493 492/492/492 491/491/491
f 494/494/494 493/493/493 491/491/491
f 497/497/497 496/496/496 495/495/495
f 496/496/496 498/498/498 495/495/495
f 498/498/498 499/499/499 495/495/495
f 502/502/502 501/501/501 500/500/500
f 501/501/501 503/503/503 500/500/500
f 500/500/500 503/503/503 504/504/504
f 503/503/503 505/505/505 504/504/504
f 504/504/504 505/505/505 506/506/506
f 505/505/505 507/507/507 506/506/506
f 506/506/506 507/507/507 508/508/508
f 507/507/507 509/509/509 508/508/508
f 512/512/512 511/511/511 510/510/510
f 511/511/511 513/513/513 510/510/510
f 513/513/513 514/514/514 510/510/510
f 514/514/514 515/515/515 510/510/510
f 516/516/516 515/515/515 514/514/514
f 514/514/514 518/518/518 517/517/517
f 518/518/518 519/519/519 517/517/517
f 522/522/522 521/521/521 520/520/520
f 523/523/523 522/522/522 520/520/520
f 526/526/526 525/525/525 524/524/524
f 525/525/525 527/527/527 524/524/524
f 527/527/527 525/525/525 528/528/528
f 525/525/525 529/529/529 528/528/528
f 528/528/528 529/529/529 530/530/530
f 525/525/525 531/531/531 529/529/529
f 529/529/529 532/532/532 530/530/530
f 530/530/530 532/532/532 533/533/533
f 534/534/534 529/529/529 531/531/531
f 534/534/534 532/532/532 529/529/529
f 532/532/532 534/534/534 533/533/533
f 531/531/531 535/535/535 534/534/534
f 533/533/533 534/534/534 536/536/536
f 534/534/534 535/535/535 536/536/536
f 535/535/535 537/537/537 536/536/536
f 537/537/537 538/538/538 536/536/536
f 541/541/541 540/540/540 539/539/539
f 542/542/542 541/541/541 539/539/539
f 542/542/542 539/539/539 543/543/543
f 544/544/544 542/542/542 543/543/543
f 544/544/544 543/543/543 545/545/545
f 546/546/546 544/544/544 545/545/545
f 546/546/546 545/545/545 547/547/547
f 548/548/548 546/546/546 547/547/547
f 547/547/547 549/549/549 548/548/548
f 549/549/549 550/550/550 548/548/548
f 553/553/553 552/552/552 551/551/551
f 554/554/554 553/553/553 551/551/551
f 557/557/557 556/556/556 555/555/555
f 558/558/558 557/557/557 555/555/555
f 561/561/561 560/560/560 559/559/559
f 562/562/562 561/561/561 559/559/559
f 559/559/559 563/563/563 562/562/562
f 563/563/563 564/564/564 562/562/562
f 563/563/563 565/565/565 564/564/564
f 565/565/565 566/566/566 564/564/564
f 565/565/565 567/567/567 566/566/566
f 567/567/567 568/568/568 566/566/566
f 567/567/567 569/569/569 568/568/568
f 569/569/569 570/570/570 568/568/568
f 573/573/573 572/572/572 571/571/571
f 574/574/574 573/573/573 571/571/571
f 577/577/577 576/576/576 575/575/575
f 578/578/578 577/577/577 575/575/575
f 581/581/581 580/580/580 579/579/579
f 582/582/582 581/581/581 579/579/579
f 585/585/585 584/584/584 583/583/583
f 586/586/586 585/585/585 583/583/583
f 583/583/583 587/587/587 586/586/586
f 587/587/587 588/588/588 586/586/586
f 587/587/587 589/589/589 588/588/588
f 589/589/589 590/590/590 588/588/588
f 589/589/589 591/591/591 590/590/590
f 591/591/591 592/592/592 590/590/590
f 591/591/591 593/593/593 592/592/592
f 593/593/593 594/594/594 592/592/592
f 597/597/597 596/596/596 595/595/595
f 598/598/598 597/597/597 595/595/595
f 601/601/601 600/600/600 599/599/599
f 602/602/602 601/601/601 599/599/599
f 605/605/605 604/604/604 603/603/603
f 606/606/606 605/605/605 603/603/603
f 609/609/609 608/608/608 607/607/607
f 610/610/610 609/609/609 607/607/607
f 607/607/607 611/611/611 610/610/610
f 611/611/611 612/612/612 610/610/610
f 611/611/611 613/613/613 612/612/612
f 613/613/613 614/614/614 612/612/612
f 613/613/613 615/615/615 614/614/614
f 615/615/615 616/616/616 614/614/614
f 615/615/615 617/617/617 616/616/616
f 617/617/617 618/618/618 616/616/616
f 621/621/621 620/620/620 619/619/619
f 622/622/622 621/621/621 619/619/619
f 625/625/625 624/624/624 623/623/623
f 626/626/626 625/625/625 623/623/623
f 629/629/629 628/628/628 627/627/627
f 630/630/630 629/629/629 627/627/627
f 633/633/633 632/632/632 631/631/631
f 634/634/634 633/633/633 631/631/631
f 637/637/637 636/636/636 635/635/635
f 638/638/638 637/637/637 635/635/635
f 641/641/641 640/640/640 639/639/639
f 642/642/642 641/641/641 639/639/639
f 645/645/645 644/644/644 643/643/643
f 646/646/646 645/645/645 643/643/643
f 649/649/649 648/648/648 647/647/647
f 648/648/648 650/650/650 647/647/647
f 647/647/647 650/650/650 651/651/651
f 650/650/650 652/652/652 651/651/651
f 655/655/655 654/654/654 653/653/653
f 656/656/656 655/655/655 653/653/653
f 659/659/659 658/658/658 657/657/657
f 660/660/660 659/659/659 657/657/657
f 663/663/663 662/662/662 661/661/661
f 664/664/664 663/663/663 661/661/661
f 667/667/667 666/666/666 665/665/665
f 668/668/668 667/667/667 665/665/665
f 671/671/671 670/670/670 669/669/669
f 672/672/672 671/671/671 669/669/669
f 675/675/675 674/674/674 673/673/673
f 676/676/676 675/675/675 673/673/673
f 679/679/679 678/678/678 677/677/677
f 680/680/680 679/679/679 677/677/677
f 677/677/677 681/681/681 680/680/680
f 680/680/680 682/682/682 679/679/679
f 681/681/681 682/682/682 680/680/680
f 682/682/682 683/683/683 679/679/679
f 682/682/682 681/681/681 684/684/684
f 683/683/683 682/682/682 684/684/684
f 687/687/687 686/686/686 685/685/685
f 688/688/688 687/687/687 685/685/685
f 688/688/688 689/689/689 687/687/687
f 689/689/689 690/690/690 687/687/687
f 693/693/693 692/692/692 691/691/691
f 694/694/694 693/693/693 691/691/691
f 694/694/694 691/691/691 695/695/695
f 691/691/691 696/696/696 695/695/695
f 695/695/695 696/696/696 697/697/697
f 696/696/696 698/698/698 697/697/697
f 699/699/699 698/698/698 696/696/696
f 700/700/700 696/696/696 691/691/691
f 700/700/700 699/699/699 696/696/696
f 701/701/701 700/700/700 691/691/691
f 701/701/701 702/702/702 700/700/700
f 702/702/702 703/703/703 700/700/700
f 700/700/700 703/703/703 699/699/699
f 703/703/703 704/704/704 699/699/699
f 707/707/707 706/706/706 705/705/705
f 706/706/706 708/708/708 705/705/705
f 705/705/705 708/708/708 709/709/709
f 708/708/708 706/706/706 710/710/710
f 708/708/708 711/711/711 709/709/709
f 711/711/711 708/708/708 710/710/710
f 714/714/714 713/713/713 712/712/712
f 715/715/715 714/714/714 712/712/712
f 718/718/718 717/717/717 716/716/716
f 719/719/719 718/718/718 716/716/716
f 717/717/717 720/720/720 716/716/716
f 721/721/721 719/719/719 716/716/716
f 716/716/716 720/720/720 721/721/721
f 722/722/722 720/720/720 717/717/717
f 720/720/720 722/722/722 721/721/721
f 721/721/721 722/722/722 719/719/719
f 723/723/723 722/722/722 717/717/717
f 722/722/722 723/723/723 719/719/719
f 726/726/726 725/725/725 724/724/724
f 727/727/727 726/726/726 724/724/724
f 725/725/725 728/728/728 724/724/724
f 729/729/729 728/728/728 725/725/725
f 730/730/730 729/729/729 725/725/725
f 731/731/731 727/727/727 724/724/724
f 730/730/730 732/732/732 729/729/729
f 732/732/732 733/733/733 729/729/729
f 733/733/733 732/732/732 734/734/734
f 735/735/735 734/734/734 727/727/727
f 731/731/731 735/735/735 727/727/727
f 735/735/735 733/733/733 734/734/734
f 729/729/729 733/733/733 736/736/736
f 731/731/731 729/729/729 736/736/736
f 733/733/733 737/737/737 736/736/736
f 738/738/738 731/731/731 736/736/736
f 739/739/739 737/737/737 733/733/733
f 735/735/735 739/739/739 733/733/733
f 739/739/739 735/735/735 731/731/731
f 738/738/738 739/739/739 731/731/731
f 742/742/742 741/741/741 740/740/740
f 741/741/741 743/743/743 740/740/740
f 744/744/744 742/742/742 740/740/740
f 743/743/743 745/745/745 740/740/740
f 744/744/744 740/740/740 745/745/745
f 744/744/744 746/746/746 742/742/742
f 746/746/746 744/744/744 745/745/745
f 746/746/746 745/745/745 743/743/743
f 746/746/746 747/747/747 742/742/742
f 747/747/747 746/746/746 743/743/743
f 750/750/750 749/749/749 748/748/748
f 749/749/749 751/751/751 748/748/748
f 752/752/752 750/750/750 748/748/748
f 752/752/752 753/753/753 750/750/750
f 753/753/753 754/754/754 750/750/750
f 751/751/751 755/755/755 748/748/748
f 756/756/756 754/754/754 753/753/753
f 757/757/757 756/756/756 753/753/753
f 756/756/756 757/757/757 758/758/758
f 758/758/758 759/759/759 751/751/751
f 759/759/759 755/755/755 751/751/751
f 757/757/757 759/759/759 758/758/758
f 757/757/757 753/753/753 760/760/760
f 753/753/753 755/755/755 760/760/760
f 761/761/761 757/757/757 760/760/760
f 755/755/755 762/762/762 760/760/760
f 761/761/761 763/763/763 757/757/757
f 763/763/763 759/759/759 757/757/757
f 763/763/763 762/762/762 755/755/755
f 759/759/759 763/763/763 755/755/755
f 766/766/766 765/765/765 764/764/764
f 767/767/767 766/766/766 764/764/764
f 765/765/765 768/768/768 764/764/764
f 769/769/769 767/767/767 764/764/764
f 764/764/764 768/768/768 769/769/769
f 770/770/770 768/768/768 765/765/765
f 768/768/768 770/770/770 769/769/769
f 769/769/769 770/770/770 767/767/767
f 771/771/771 770/770/770 765/765/765
f 770/770/770 771/771/771 767/767/767
f 774/774/774 773/773/773 772/772/772
f 773/773/773 775/775/775 772/772/772
f 776/776/776 774/774/774 772/772/772
f 776/776/776 777/777/777 774/774/774
f 778/778/778 777/777/777 776/776/776
f 777/777/777 779/779/779 774/774/774
f 780/780/780 779/779/779 777/777/777
f 781/781/781 780/780/780 777/777/777
f 781/781/781 777/777/777 778/778/778
f 782/782/782 781/781/781 778/778/778
f 782/782/782 778/778/778 783/783/783
f 778/778/778 784/784/784 783/783/783
f 785/785/785 784/784/784 778/778/778
f 786/786/786 778/778/778 776/776/776
f 786/786/786 785/785/785 778/778/778
f 786/786/786 776/776/776 787/787/787
f 786/786/786 787/787/787 785/785/785
f 776/776/776 772/772/772 787/787/787
f 787/787/787 788/788/788 785/785/785
f 772/772/772 789/789/789 787/787/787
f 775/775/775 789/789/789 772/772/772
f 787/787/787 790/790/790 788/788/788
f 789/789/789 790/790/790 787/787/787
f 789/789/789 775/775/775 790/790/790
f 790/790/790 791/791/791 788/788/788
f 775/775/775 791/791/791 790/790/790
