g ganger_model
v -0.6837971 1.602391 -1.179385
v -0.1541411 1.602391 -1.179385
v -0.6837972 2.041194 -1.179385
v 0.6837971 1.602391 -1.179385
v 0.6837972 2.041194 -1.179385
v 0.1541411 1.602391 -1.179385
v -0.5140068 1.623844 0.9816856
v -0.7988454 1.579687 1.096691
v -0.8430024 1.623844 0.9816856
v -0.5581641 1.579687 1.096691
v -0.7727714 1.553613 1.130683
v -0.5842379 1.553613 1.130683
v -0.5140068 1.294848 0.9816856
v -0.5581641 1.579687 1.096691
v -0.5140068 1.623844 0.9816856
v -0.5581641 1.339006 1.096691
v -0.8430024 1.294848 0.9816856
v -0.5842379 1.553613 1.130683
v -0.7988454 1.339006 1.096691
v -0.8430024 1.623844 0.9816856
v -0.7988454 1.579687 1.096691
v -0.5842379 1.365079 1.130683
v -0.7727714 1.365079 1.130683
v -0.7727714 1.553613 1.130683
v -1.159475 0.4806595 -1.135741
v -1.159475 2.401657 0.9022043
v -1.159475 0.4806595 0.9022043
v -1.159475 2.401657 -1.135741
v -1.031201 2.401657 -1.245643
v -1.062852 2.510865 0.8147401
v -1.062852 2.510865 -1.048277
v -0.9452674 2.510865 -1.14902
v 1.414568E-16 2.401657 -1.245643
v 0.9452674 2.510864 -1.14902
v -0.6837972 2.041194 -1.244847
v 0.6837972 2.041194 -1.244847
v 0.1541411 1.602391 -1.244847
v -0.8740745 1.661399 -1.244847
v -1.031201 0.4806595 -1.245643
v 1.031201 2.401657 -1.245643
v 0.8740745 1.661399 -1.244847
v 1.031201 0.4806595 -1.245643
v 1.159475 2.401657 -1.135741
v 1.062852 2.510865 -1.048277
v 1.159475 0.4806595 -1.135741
v 1.159475 2.401657 0.9022043
v 1.062852 2.510865 0.8147401
v 1.159475 0.4806595 0.9022043
v 1.159475 2.401657 0.9022043
v 1.065091 0.3973579 0.8167662
v 1.065091 0.3973579 -1.050303
v 0.6297047 0.3973579 0.4351574
v 1.031201 2.401657 1.012106
v 0.9452674 2.510864 0.9154835
v 1.031201 0.4806595 1.012106
v 1.159475 0.4806595 0.9022043
v -1.031201 2.401657 1.012107
v -0.9452674 2.510865 0.9154835
v -1.159475 2.401657 0.9022043
v -1.062852 2.510865 0.8147401
v -1.031201 0.4806595 1.012107
v -1.159475 0.4806595 0.9022043
v 0.9472582 0.3973579 0.917722
v 1.065091 0.3973579 0.8167662
v -0.9472582 0.3973579 0.9177222
v -1.065091 0.3973579 0.8167662
v 0.5600396 0.3973579 0.4948447
v -0.5600396 0.3973579 0.4948448
v -1.065091 0.3973579 -1.050303
v -0.6297047 0.3973579 0.4351574
v -0.9472582 0.3973579 -1.151259
v -0.6297047 0.3973579 -0.6686941
v -1.065091 0.3973579 -1.050303
v -0.5600396 0.3973579 -0.7283814
v -0.5600396 0.08150215 0.4948448
v -0.6297047 0.08150215 0.4351574
v -0.6297047 0.08150215 -0.6686941
v -0.5600396 0.08150215 -0.7283814
v 0.5600396 0.08150215 0.4948447
v -0.5667341 0.0005558039 0.3799649
v -0.5667341 0.0005558039 -0.6135015
v -0.5040357 0.0005558039 0.4336834
v 0.5667341 0.0005558039 0.3799649
v -0.5040357 0.0005558039 -0.66722
v 0.5040357 0.0005558039 0.4336833
v 0.6297047 0.08150215 0.4351574
v 0.5667341 0.0005558039 -0.6135015
v 0.5040357 0.0005558039 -0.66722
v 0.5600396 0.08150215 -0.7283814
v 0.6297047 0.08150215 -0.6686941
v 0.6297047 0.3973579 -0.6686941
v 0.5600396 0.3973579 -0.7283814
v 0.9472582 0.3973579 -1.151258
v 1.414568E-16 0.4806595 -1.245643
v 0.4212152 1.029479 -1.244847
v 0.8731135 1.029479 -1.244847
v -0.4212152 1.029479 -1.244847
v 1.455702E-16 1.029479 -1.244847
v -0.8731135 1.029479 -1.244847
v 0.8731135 1.029479 -1.193027
v 0.7031736 1.029479 -1.193027
v 0.6565713 1.029479 -1.193027
v 0.3791594 1.029479 -1.193027
v 0.3267178 1.029479 -1.193027
v 0.8740745 1.661399 -1.193027
v 0.02577995 1.029479 -1.193027
v -0.0257773 1.029479 -1.193027
v -0.3267178 1.029479 -1.193027
v -0.3791594 1.029479 -1.193027
v -0.6565713 1.029479 -1.193027
v -0.7031736 1.029479 -1.193027
v -0.8731135 1.029479 -1.193027
v -0.8740745 1.661399 -1.193027
v 0.7633815 1.472335 -1.193027
v -0.7633815 1.472335 -1.193027
v 0.7633815 1.472335 -1.244847
v 0.7031736 1.472335 -1.193027
v 0.6565713 1.472335 -1.193027
v -0.7633815 1.472335 -1.244847
v -0.7031736 1.472335 -1.193027
v -0.6565713 1.472335 -1.193027
v 0.6837971 1.602391 -1.244847
v 0.3607704 1.472335 -1.244847
v 0.3791594 1.472335 -1.193027
v 1.455702E-16 1.472335 -1.244847
v 0.3267178 1.472335 -1.193027
v 0.02577995 1.472335 -1.193027
v -0.0257773 1.472335 -1.193027
v -0.3267178 1.472335 -1.193027
v -0.3791594 1.472335 -1.193027
v -0.3607704 1.472335 -1.244847
v -0.6837971 1.602391 -1.244847
v -0.1541411 1.602391 -1.244847
v 0.6837971 1.602391 -1.179385
v 0.1541411 1.602391 -1.179385
v 0.6837972 2.041194 -1.179385
v -0.6837972 2.041194 -1.179385
v -0.6837971 1.602391 -1.179385
v -0.1541411 1.602391 -1.179385
v 0.1795439 2.975738 0.4109417
v 0.1795439 2.975738 0.5360265
v -0.1795439 2.975738 0.5360265
v -0.04305741 2.975738 0.4110444
v -0.1795439 2.975738 0.5360265
v -0.04340852 2.975738 0.1769386
v -0.1795439 2.975738 0.1769386
v 0.2198497 2.929256 0.5763324
v 0.3041024 2.502441 0.660585
v -0.3041024 2.502441 0.660585
v -0.2198497 2.929256 0.5763324
v 0.1795439 2.975738 0.5360265
v -0.1795439 2.975738 0.5360265
v 0.1795439 2.975738 0.4109417
v 0.1795439 2.975738 0.1769386
v 0.2198497 2.929256 0.1366328
v 0.2198497 2.929256 0.5763324
v 0.3041024 2.502441 0.660585
v -0.04340852 2.975738 0.1769386
v 0.3041024 2.502441 0.05238021
v -0.2198497 2.929256 0.1366328
v -0.1795439 2.975738 0.1769386
v -0.1795439 2.975738 0.5360265
v -0.3041024 2.502441 0.05238021
v -0.2198497 2.929256 0.5763324
v -0.3041024 2.502441 0.660585
v 0.7251694 2.824669 0.2731151
v 0.7251694 2.824669 0.5161617
v 0.4821229 2.824669 0.5161617
v 0.4821229 2.824669 0.2731151
v 0.7568268 2.784817 0.5478191
v 0.8033569 2.501677 0.5943493
v 0.4039354 2.501677 0.5943493
v 0.4504655 2.784817 0.5478191
v 0.7251694 2.824669 0.5161617
v 0.4821229 2.824669 0.5161617
v 0.4039354 2.501677 0.1949277
v 0.4504655 2.784817 0.5478191
v 0.4039354 2.501677 0.5943493
v 0.4504655 2.784817 0.2414577
v 0.4821229 2.824669 0.5161617
v 0.8033569 2.501677 0.1949277
v 0.4821229 2.824669 0.2731151
v 0.7568268 2.784817 0.2414577
v 0.8033569 2.501677 0.5943493
v 0.7251694 2.824669 0.2731151
v 0.7568268 2.784817 0.5478191
v 0.7251694 2.824669 0.5161617
v 0.2114485 2.129935 0.9884242
v -0.1398681 2.058354 1.210054
v -0.2114485 2.129935 0.9884242
v 0.1398681 2.058354 1.210054
v -0.1095633 2.028049 1.245643
v 0.1095633 2.028049 1.245643
v 0.2114485 1.707037 0.9884242
v 0.1398681 2.058354 1.210054
v 0.2114485 2.129935 0.9884242
v 0.1398681 1.778618 1.210054
v -0.2114485 1.707037 0.9884242
v 0.1095633 2.028049 1.245643
v -0.1398681 1.778618 1.210054
v -0.2114485 2.129935 0.9884242
v -0.1398681 2.058354 1.210054
v 0.1095633 1.808922 1.245643
v -0.1095633 1.808922 1.245643
v -0.1095633 2.028049 1.245643
v -0.5532532 2.760583 0.277433
v -0.5532532 2.760583 0.511844
v -0.7876642 2.760583 0.511844
v -0.7876642 2.760583 0.277433
v -0.5227207 2.72073 0.5423765
v -0.4823256 2.501593 0.5827714
v -0.8585918 2.501593 0.5827714
v -0.8181968 2.72073 0.5423765
v -0.5532532 2.760583 0.511844
v -0.7876642 2.760583 0.511844
v -0.5532532 2.760583 0.277433
v -0.8181968 2.72073 0.2469004
v -0.5227207 2.72073 0.2469004
v -0.7876642 2.760583 0.277433
v -0.4823256 2.501593 0.2065054
v -0.4823256 2.501593 0.5827714
v -0.5227207 2.72073 0.5423765
v -0.8585918 2.501593 0.2065054
v -0.8181968 2.72073 0.5423765
v -0.8585918 2.501593 0.5827714
v 0.1644979 1.221472 0.9881073
v -0.1085309 1.165505 1.161811
v -0.1644979 1.221472 0.9881073
v 0.1085309 1.165505 1.161811
v -0.08501588 1.141989 1.197402
v 0.08501588 1.141989 1.197402
v 0.1644979 0.8924766 0.9881073
v 0.1085309 1.165505 1.161811
v 0.1644979 1.221472 0.9881073
v 0.1085309 0.9484434 1.161811
v -0.1644979 0.8924766 0.9881073
v 0.08501588 1.141989 1.197402
v -0.1085309 0.9484434 1.161811
v -0.1644979 1.221472 0.9881073
v -0.1085309 1.165505 1.161811
v 0.08501588 0.971959 1.197402
v -0.08501588 0.971959 1.197402
v -0.08501588 1.141989 1.197402
v 0.5140068 1.623844 0.9816856
v 0.8430024 1.623844 0.9816856
v 0.7988454 1.579687 1.096691
v 0.5581641 1.579687 1.096691
v 0.7727714 1.553613 1.130683
v 0.5842379 1.553613 1.130683
v 0.5140068 1.294848 0.9816856
v 0.5140068 1.623844 0.9816856
v 0.5581641 1.579687 1.096691
v 0.5581641 1.339006 1.096691
v 0.8430024 1.294848 0.9816856
v 0.5842379 1.553613 1.130683
v 0.7988454 1.339006 1.096691
v 0.8430024 1.623844 0.9816856
v 0.7988454 1.579687 1.096691
v 0.5842379 1.365079 1.130683
v 0.7727714 1.365079 1.130683
v 0.7727714 1.553613 1.130683
v -0.7633815 1.472335 -1.193027
v -0.8740745 1.661399 -1.193027
v -0.8731135 1.029479 -1.193027
v -0.7031736 1.472335 -1.193027
v -0.7031736 1.029479 -1.193027
v -0.0257773 1.472335 -1.193027
v -0.3267178 1.472335 -1.193027
v -0.3267178 1.029479 -1.193027
v -0.0257773 1.029479 -1.193027
v -0.6565713 1.472335 -1.193027
v -0.7031736 1.472335 -1.193027
v -0.7031736 1.029479 -1.193027
v -0.6565713 1.029479 -1.193027
v -0.3791594 1.472335 -1.193027
v -0.6565713 1.472335 -1.193027
v -0.6565713 1.029479 -1.193027
v -0.3791594 1.029479 -1.193027
v -0.3267178 1.472335 -1.193027
v -0.3791594 1.472335 -1.193027
v -0.3791594 1.029479 -1.193027
v -0.3267178 1.029479 -1.193027
v -0.321883 1.668251 -1.173672
v -0.321883 1.804295 -1.173672
v -0.321883 1.804295 -1.203175
v -0.321883 1.668251 -1.203175
v -0.3916802 1.804295 -1.203175
v -0.3916802 1.668251 -1.203175
v -0.3916802 1.668251 -1.173672
v -0.3916802 1.804295 -1.173672
v 0.7633815 1.472335 -1.193027
v 0.8731135 1.029479 -1.193027
v 0.8740745 1.661399 -1.193027
v 0.7031736 1.472335 -1.193027
v 0.7031736 1.029479 -1.193027
v 0.02577995 1.472335 -1.193027
v 0.02577995 1.029479 -1.193027
v 0.3267178 1.029479 -1.193027
v 0.3267178 1.472335 -1.193027
v 0.6565713 1.472335 -1.193027
v 0.6565713 1.029479 -1.193027
v 0.7031736 1.029479 -1.193027
v 0.7031736 1.472335 -1.193027
v 0.3791594 1.472335 -1.193027
v 0.3791594 1.029479 -1.193027
v 0.6565713 1.029479 -1.193027
v 0.6565713 1.472335 -1.193027
v 0.3267178 1.472335 -1.193027
v 0.3267178 1.029479 -1.193027
v 0.3791594 1.029479 -1.193027
v 0.3791594 1.472335 -1.193027
v 0.321883 1.668251 -1.173672
v 0.321883 1.804295 -1.203175
v 0.321883 1.804295 -1.173672
v 0.321883 1.668251 -1.203175
v 0.3916802 1.804295 -1.203175
v 0.3916802 1.668251 -1.203175
v 0.3916802 1.668251 -1.173672
v 0.3916802 1.804295 -1.173672
v 0.02577995 1.472335 -1.193027
v -0.0257773 1.472335 -1.193027
v -0.0257773 1.029479 -1.193027
v 0.02577995 1.029479 -1.193027
v -1.062852 2.510865 -1.048277
v 0.291821 2.510864 -0.479757
v -1.062852 2.510865 0.8147401
v 0.291821 2.510864 -0.9018713
v -0.9452674 2.510865 -1.14902
v 0.3344218 2.510864 -0.9477302
v 0.9452674 2.510864 -1.14902
v 0.7782844 2.510864 -0.9477302
v 1.062852 2.510865 -1.048277
v 0.8208852 2.510864 -0.9018713
v 1.062852 2.510865 0.8147401
v 0.8208852 2.510864 -0.479757
v 0.9452674 2.510864 0.9154835
v 0.7782844 2.510864 -0.4338981
v -0.9452674 2.510865 0.9154835
v 0.3344218 2.510864 -0.4338981
v -1.062852 2.510865 0.8147401
v 0.291821 2.510864 -0.9018713
v 0.3344218 2.510864 -0.9477302
v 0.7782844 2.510864 -0.9477302
v 0.8208852 2.510864 -0.9018713
v 0.291821 2.510864 -0.479757
v 0.8208852 2.510864 -0.479757
v 0.7782844 2.510864 -0.4338981
v 0.3344218 2.510864 -0.4338981
v 0.1795439 2.975738 0.1769386
v 0.1795439 2.975738 0.4109417
v -0.04305741 2.975738 0.4110444
v -0.04340852 2.975738 0.1769386
v -1.010748 2.977382 -0.4613497
v -1.010748 2.977382 -0.1466635
v -1.298728 2.810257 -0.1466635
v -1.298728 2.810257 -0.4613497
v -0.9450153 2.955819 -0.1073277
v -1.010748 2.977382 -0.1466635
v -0.9450153 2.955819 -0.5006856
v -0.3711239 2.463835 0.1447014
v -0.9450153 2.955819 -0.1073277
v -0.3711239 2.463835 -0.7527145
v -0.9450153 2.955819 -0.1073277
v -0.3711239 2.463835 0.1447014
v -1.139256 1.9998 0.1447014
v -1.304991 2.746912 -0.1073277
v -1.010748 2.977382 -0.1466635
v -1.298728 2.810257 -0.1466635
v -1.304991 2.746912 -0.5006856
v -1.298728 2.810257 -0.4613497
v -0.9450153 2.955819 -0.5006856
v -1.010748 2.977382 -0.4613497
v -0.3711239 2.463835 -0.7527145
v -1.139256 1.9998 -0.7527145
v -1.304991 2.746912 -0.1073277
v -1.139256 1.9998 0.1447014
v 1.010748 2.977382 -0.4613497
v 1.298728 2.810257 -0.4613497
v 1.298728 2.810257 -0.1466635
v 1.010748 2.977382 -0.1466635
v 0.9450153 2.955819 -0.1073277
v 1.139256 1.9998 0.1447014
v 0.3711239 2.463835 0.1447014
v 1.304991 2.746912 -0.1073277
v 1.010748 2.977382 -0.1466635
v 1.298728 2.810257 -0.1466635
v 1.304991 2.746912 -0.5006856
v 1.298728 2.810257 -0.4613497
v 0.9450153 2.955819 -0.5006856
v 1.010748 2.977382 -0.4613497
v 0.3711239 2.463835 -0.7527145
v 1.139256 1.9998 -0.7527145
v 1.304991 2.746912 -0.1073277
v 1.139256 1.9998 0.1447014
v 0.3711239 2.463835 0.1447014
v 0.3711239 2.463835 -0.7527145
v 0.9450153 2.955819 -0.5006856
v 0.9450153 2.955819 -0.1073277
v 0.9450153 2.955819 -0.1073277
v 1.010748 2.977382 -0.4613497
v 1.010748 2.977382 -0.1466635
vt 0.6094722 0.5628939
vt 0.5246771 0.5628939
vt 0.6094723 0.633144
vt 0.3905277 0.5628939
vt 0.3905277 0.633144
vt 0.4753228 0.5628939
vt 0.5996459 0.6476189
vt 0.654865 0.6390586
vt 0.6634254 0.6476189
vt 0.6082063 0.6390586
vt 0.6498103 0.6340039
vt 0.6132609 0.6340039
vt 0.5996459 0.5838394
vt 0.6082063 0.6390586
vt 0.5996459 0.6476189
vt 0.6082063 0.5923998
vt 0.6634254 0.5838394
vt 0.6132609 0.6340039
vt 0.654865 0.5923998
vt 0.6634254 0.6476189
vt 0.654865 0.6390586
vt 0.6132609 0.5974545
vt 0.6498103 0.5974545
vt 0.6498103 0.6340039
vt 0.7247772 0.223601
vt 0.7247772 0.7201047
vt 0.7247772 0.223601
vt 0.7247772 0.7201047
vt 0.6999097 0.7201047
vt 0.7060457 0.7412756
vt 0.7060457 0.7412756
vt 0.6832505 0.7412756
vt 0.5 0.7201047
vt 0.3167494 0.7412756
vt 0.6094723 0.633144
vt 0.3905277 0.633144
vt 0.4753228 0.5628939
vt 0.6399346 0.5723407
vt 0.6999097 0.223601
vt 0.3000903 0.7201047
vt 0.3600653 0.5723407
vt 0.3000903 0.223601
vt 0.2752229 0.7201047
vt 0.2939543 0.7412756
vt 0.2752229 0.223601
vt 0.2752229 0.7201047
vt 0.2939543 0.7412756
vt 0.2752229 0.223601
vt 0.2752229 0.7201047
vt 0.2935204 0.2074519
vt 0.2935204 0.2074519
vt 0.2935204 0.2074519
vt 0.3000903 0.7201047
vt 0.3167494 0.7412756
vt 0.3000903 0.223601
vt 0.2752229 0.223601
vt 0.6999097 0.7201047
vt 0.6832505 0.7412756
vt 0.7247772 0.7201047
vt 0.7060457 0.7412756
vt 0.6999097 0.223601
vt 0.7247772 0.223601
vt 0.3163635 0.2074519
vt 0.2935204 0.2074519
vt 0.6836365 0.2074519
vt 0.7064797 0.2074519
vt 0.3163635 0.2074519
vt 0.6836365 0.2074519
vt 0.7064797 0.2074519
vt 0.7064797 0.2074519
vt 0.6836365 0.2074519
vt 0.7064797 0.2074519
vt 0.7064797 0.2074519
vt 0.6836365 0.2074519
vt 0.6836365 0.2074519
vt 0.7064797 0.2074519
vt 0.7064797 0.2074519
vt 0.6836365 0.2074519
vt 0.3163635 0.2074519
vt 0.7064797 0.2074519
vt 0.7064797 0.2074519
vt 0.6836365 0.2074519
vt 0.2935204 0.2074519
vt 0.6836365 0.2074519
vt 0.3163635 0.2074519
vt 0.2935204 0.2074519
vt 0.2935204 0.2074519
vt 0.3163635 0.2074519
vt 0.3163635 0.2074519
vt 0.2935204 0.2074519
vt 0.2935204 0.2074519
vt 0.3163635 0.2074519
vt 0.3163635 0.2074519
vt 0.5 0.223601
vt 0.4325657 0.4711737
vt 0.3602192 0.4711737
vt 0.5674343 0.4711737
vt 0.5 0.4711737
vt 0.6397808 0.4711737
vt 0.3602192 0.4711737
vt 0.3874257 0.4711737
vt 0.3948865 0.4711737
vt 0.4392986 0.4711737
vt 0.4476942 0.4711737
vt 0.3600653 0.5723407
vt 0.4958727 0.4711737
vt 0.5041268 0.4711737
vt 0.5523058 0.4711737
vt 0.5607013 0.4711737
vt 0.6051135 0.4711737
vt 0.6125743 0.4711737
vt 0.6397808 0.4711737
vt 0.6399346 0.5723407
vt 0.3777867 0.5420726
vt 0.6222132 0.5420726
vt 0.3777867 0.5420726
vt 0.3874257 0.5420726
vt 0.3948865 0.5420726
vt 0.6222132 0.5420726
vt 0.6125743 0.5420726
vt 0.6051135 0.5420726
vt 0.3905277 0.5628939
vt 0.4422426 0.5420726
vt 0.4392986 0.5420726
vt 0.5 0.5420726
vt 0.4476942 0.5420726
vt 0.4958727 0.5420726
vt 0.5041268 0.5420726
vt 0.5523058 0.5420726
vt 0.5607013 0.5420726
vt 0.5577574 0.5420726
vt 0.6094722 0.5628939
vt 0.5246771 0.5628939
vt 0.3905277 0.5628939
vt 0.4753228 0.5628939
vt 0.3905277 0.633144
vt 0.6094723 0.633144
vt 0.6094722 0.5628939
vt 0.5246771 0.5628939
vt 0.4651934 0.8746179
vt 0.4651934 0.8746179
vt 0.5348065 0.8746179
vt 0.4825967 0.8746179
vt 0.5348065 0.8746179
vt 0.5 0.8746179
vt 0.5348065 0.8746179
vt 0.4573797 0.8656071
vt 0.4410464 0.7396426
vt 0.5589536 0.7396426
vt 0.5426203 0.8656071
vt 0.4651934 0.8746179
vt 0.5348065 0.8746179
vt 0.4651934 0.8746179
vt 0.4651934 0.8746179
vt 0.4573797 0.8656071
vt 0.4573797 0.8656071
vt 0.4410464 0.7396426
vt 0.5 0.8746179
vt 0.4410464 0.7396426
vt 0.5426203 0.8656071
vt 0.5348065 0.8746179
vt 0.5348065 0.8746179
vt 0.5589536 0.7396426
vt 0.5426203 0.8656071
vt 0.5589536 0.7396426
vt 0.3594179 0.8204244
vt 0.3594179 0.8204244
vt 0.4065351 0.8204244
vt 0.4065351 0.8204244
vt 0.3532808 0.8126985
vt 0.3442603 0.7394946
vt 0.4216926 0.7394946
vt 0.4126723 0.8126985
vt 0.3594179 0.8204244
vt 0.4065351 0.8204244
vt 0.4216926 0.7394946
vt 0.4126723 0.8126985
vt 0.4216926 0.7394946
vt 0.4126723 0.8126985
vt 0.4065351 0.8204244
vt 0.3442603 0.7394946
vt 0.4065351 0.8204244
vt 0.3532808 0.8126985
vt 0.3442603 0.7394946
vt 0.3594179 0.8204244
vt 0.3532808 0.8126985
vt 0.3594179 0.8204244
vt 0.4590084 0.7023669
vt 0.527115 0.6884903
vt 0.5409917 0.7023669
vt 0.472885 0.6884903
vt 0.5212401 0.6826153
vt 0.4787599 0.6826153
vt 0.4590084 0.6203837
vt 0.472885 0.6884903
vt 0.4590084 0.7023669
vt 0.472885 0.6342604
vt 0.5409917 0.6203837
vt 0.4787599 0.6826153
vt 0.527115 0.6342604
vt 0.5409917 0.7023669
vt 0.527115 0.6884903
vt 0.4787599 0.6401352
vt 0.5212401 0.6401352
vt 0.5212401 0.6826153
vt 0.6072543 0.8028725
vt 0.6072543 0.8028725
vt 0.6526974 0.8028725
vt 0.6526974 0.8028725
vt 0.6013352 0.7951466
vt 0.5935041 0.7394782
vt 0.6664475 0.7394782
vt 0.6586165 0.7951466
vt 0.6072543 0.8028725
vt 0.6526974 0.8028725
vt 0.6072543 0.8028725
vt 0.6586165 0.7951466
vt 0.6013352 0.7951466
vt 0.6526974 0.8028725
vt 0.5935041 0.7394782
vt 0.5935041 0.7394782
vt 0.6013352 0.7951466
vt 0.6664475 0.7394782
vt 0.6586165 0.7951466
vt 0.6664475 0.7394782
vt 0.4681103 0.5696146
vt 0.52104 0.5587649
vt 0.5318897 0.5696146
vt 0.4789601 0.5587649
vt 0.5164813 0.5542062
vt 0.4835187 0.5542062
vt 0.4681103 0.5058352
vt 0.4789601 0.5587649
vt 0.4681103 0.5696146
vt 0.4789601 0.516685
vt 0.5318897 0.5058352
vt 0.4835187 0.5542062
vt 0.52104 0.516685
vt 0.5318897 0.5696146
vt 0.52104 0.5587649
vt 0.4835187 0.5212436
vt 0.5164813 0.5212436
vt 0.5164813 0.5542062
vt 0.4003541 0.6476189
vt 0.3365746 0.6476189
vt 0.345135 0.6390586
vt 0.3917937 0.6390586
vt 0.3501897 0.6340039
vt 0.386739 0.6340039
vt 0.4003541 0.5838394
vt 0.4003541 0.6476189
vt 0.3917937 0.6390586
vt 0.3917937 0.5923998
vt 0.3365746 0.5838394
vt 0.386739 0.6340039
vt 0.345135 0.5923998
vt 0.3365746 0.6476189
vt 0.345135 0.6390586
vt 0.386739 0.5974545
vt 0.3501897 0.5974545
vt 0.3501897 0.6340039
vt 0.6222132 0.5420726
vt 0.6399346 0.5723407
vt 0.6397808 0.4711737
vt 0.6125743 0.5420726
vt 0.6125743 0.4711737
vt 0.5041268 0.5420726
vt 0.5523058 0.5420726
vt 0.5523058 0.4711737
vt 0.5041268 0.4711737
vt 0.6051135 0.5420726
vt 0.6125743 0.5420726
vt 0.6125743 0.4711737
vt 0.6051135 0.4711737
vt 0.5607013 0.5420726
vt 0.6051135 0.5420726
vt 0.6051135 0.4711737
vt 0.5607013 0.4711737
vt 0.5523058 0.5420726
vt 0.5607013 0.5420726
vt 0.5607013 0.4711737
vt 0.5523058 0.4711737
vt 0.5515317 0.5734376
vt 0.5515317 0.5952177
vt 0.5515317 0.5952177
vt 0.5515317 0.5734376
vt 0.5627059 0.5952177
vt 0.5627059 0.5734376
vt 0.5627059 0.5734376
vt 0.5627059 0.5952177
vt 0.3777867 0.5420726
vt 0.3602192 0.4711737
vt 0.3600653 0.5723407
vt 0.3874257 0.5420726
vt 0.3874257 0.4711737
vt 0.4958727 0.5420726
vt 0.4958727 0.4711737
vt 0.4476942 0.4711737
vt 0.4476942 0.5420726
vt 0.3948865 0.5420726
vt 0.3948865 0.4711737
vt 0.3874257 0.4711737
vt 0.3874257 0.5420726
vt 0.4392986 0.5420726
vt 0.4392986 0.4711737
vt 0.3948865 0.4711737
vt 0.3948865 0.5420726
vt 0.4476942 0.5420726
vt 0.4476942 0.4711737
vt 0.4392986 0.4711737
vt 0.4392986 0.5420726
vt 0.4484682 0.5734376
vt 0.4484682 0.5952177
vt 0.4484682 0.5952177
vt 0.4484682 0.5734376
vt 0.4372941 0.5952177
vt 0.4372941 0.5734376
vt 0.4372941 0.5734376
vt 0.4372941 0.5952177
vt 0.4958727 0.5420726
vt 0.5041268 0.5420726
vt 0.5041268 0.4711737
vt 0.4958727 0.4711737
vt 0.7060457 0.7412756
vt 0.7060457 0.7412756
vt 0.7060457 0.7412756
vt 0.7060457 0.7412756
vt 0.6832505 0.7412756
vt 0.6832505 0.7412756
vt 0.3167494 0.7412756
vt 0.3167494 0.7412756
vt 0.2939543 0.7412756
vt 0.2939543 0.7412756
vt 0.2939543 0.7412756
vt 0.2939543 0.7412756
vt 0.3167494 0.7412756
vt 0.3167494 0.7412756
vt 0.6832505 0.7412756
vt 0.6832505 0.7412756
vt 0.7060457 0.7412756
vt 0.7060457 0.7412756
vt 0.6832505 0.7412756
vt 0.3167494 0.7412756
vt 0.2939543 0.7412756
vt 0.7060457 0.7412756
vt 0.2939543 0.7412756
vt 0.3167494 0.7412756
vt 0.6832505 0.7412756
vt 0.4651934 0.8746179
vt 0.4651934 0.8746179
vt 0.4825967 0.8746179
vt 0.5 0.8746179
vt 0.2590604 0.875
vt 0.2590604 0.875
vt 0.2125596 0.8387353
vt 0.2125596 0.8387353
vt 0.2706401 0.8721381
vt 0.2590604 0.875
vt 0.2706401 0.8721381
vt 0.430454 0.7324304
vt 0.2706401 0.8721381
vt 0.430454 0.7324304
vt 0.2706401 0.8721381
vt 0.430454 0.7324304
vt 0.2865115 0.6454736
vt 0.2125142 0.8268071
vt 0.2590604 0.875
vt 0.2125596 0.8387353
vt 0.2125142 0.8268071
vt 0.2125596 0.8387353
vt 0.2706401 0.8721381
vt 0.2590604 0.875
vt 0.430454 0.7324304
vt 0.2865115 0.6454736
vt 0.2125142 0.8268071
vt 0.2865115 0.6454736
vt 0.2590604 0.875
vt 0.2125596 0.8387353
vt 0.2125596 0.8387353
vt 0.2590604 0.875
vt 0.2706401 0.8721381
vt 0.2865115 0.6454736
vt 0.430454 0.7324304
vt 0.2125142 0.8268071
vt 0.2590604 0.875
vt 0.2125596 0.8387353
vt 0.2125142 0.8268071
vt 0.2125596 0.8387353
vt 0.2706401 0.8721381
vt 0.2590604 0.875
vt 0.430454 0.7324304
vt 0.2865115 0.6454736
vt 0.2125142 0.8268071
vt 0.2865115 0.6454736
vt 0.430454 0.7324304
vt 0.430454 0.7324304
vt 0.2706401 0.8721381
vt 0.2706401 0.8721381
vt 0.2706401 0.8721381
vt 0.2590604 0.875
vt 0.2590604 0.875
vn 0.2304906 0.2782131 -0.9324546
vn -0.4894085 -5.296166E-07 -0.8720546
vn -6.854781E-07 -0.4705156 -0.8823916
vn -0.2304906 0.2782131 -0.9324546
vn 6.854781E-07 -0.4705157 -0.8823916
vn 0.4894085 -5.296166E-07 -0.8720546
vn 0.6214084 0.6214056 0.4771862
vn -0.606164 0.6061662 0.5149055
vn -0.6214083 0.6214062 0.4771856
vn 0.6061638 0.6061663 0.5149058
vn -0.1872924 0.1872913 0.9642839
vn 0.1872928 0.1872912 0.9642838
vn 0.6214032 -0.6214052 0.4771937
vn 0.6061638 0.6061663 0.5149058
vn 0.6214084 0.6214056 0.4771862
vn 0.606164 -0.606162 0.5149106
vn -0.621403 -0.6214058 0.477193
vn 0.1872928 0.1872912 0.9642838
vn -0.6061643 -0.6061619 0.5149103
vn -0.6214083 0.6214062 0.4771856
vn -0.606164 0.6061662 0.5149055
vn 0.1872921 -0.1872938 0.9642835
vn -0.1872917 -0.1872938 0.9642836
vn -0.1872924 0.1872913 0.9642839
vn -0.9976853 -0.03142931 -0.06030111
vn -0.9976133 0.03342247 0.06042086
vn -0.9976853 -0.03142931 0.0603011
vn -0.9976133 0.03342248 -0.06042086
vn -0.4371515 0.1057018 -0.893155
vn -0.2302632 0.9730662 0.01099604
vn -0.1658615 0.9861172 -0.007920592
vn -0.03922476 0.9462765 -0.3209707
vn 0 0.2569505 -0.9664246
vn 0.04245867 0.9367427 -0.3474338
vn 0.0003101218 -0.05976425 -0.9982125
vn -0.000310123 -0.05976424 -0.9982125
vn 0.04607666 0 -0.9989379
vn 0.05372269 -0.01233121 -0.9984798
vn -0.4036902 -0.09339735 -0.9101161
vn 0.4371514 0.1057017 -0.893155
vn -0.05372269 -0.01233121 -0.9984798
vn 0.4036902 -0.09339747 -0.9101161
vn 0.9976133 0.03342249 -0.06042084
vn 0.5284942 0.8485617 -0.02523764
vn 0.9976853 -0.03142931 -0.0603011
vn 0.9976133 0.03342248 0.06042085
vn 0.5365874 0.8434556 0.02562411
vn 0.9976853 -0.03142931 0.06030111
vn 0.9976133 0.03342248 0.06042085
vn 0.3204859 -0.9471346 0.01500114
vn 0.3204859 -0.9471345 -0.01500114
vn 0.3388343 -0.9406273 0.02028719
vn 0.05093649 0.03369702 0.9981332
vn 0.006232125 0.9862248 0.1652933
vn 0.05081193 -0.03175598 0.9982033
vn 0.9976853 -0.03142931 0.06030111
vn -0.05093631 0.03369705 0.9981332
vn -0.008543067 0.9739518 0.2265942
vn -0.9976133 0.03342247 0.06042086
vn -0.2302632 0.9730662 0.01099604
vn -0.05081175 -0.031756 0.9982033
vn -0.9976853 -0.03142931 0.0603011
vn 0.01198738 -0.9452135 0.3262328
vn 0.3204859 -0.9471346 0.01500114
vn -0.01198731 -0.9452135 0.3262327
vn -0.3204859 -0.9471346 0.01500113
vn 0.01752947 -0.9368042 0.3494146
vn -0.01752946 -0.9368042 0.3494146
vn -0.3204859 -0.9471346 -0.01500114
vn -0.3388343 -0.9406273 0.02028719
vn -0.01723276 -0.9895601 -0.1430867
vn -0.3388343 -0.9406273 -0.02028719
vn -0.3204859 -0.9471346 -0.01500114
vn -0.01752946 -0.9368042 -0.3494146
vn -0.05303342 -0.1161991 0.9918091
vn -0.9908338 -0.1198927 0.0622418
vn -0.9908338 -0.1198928 -0.06224178
vn -0.05303344 -0.1161991 -0.9918091
vn 0.05303347 -0.1161992 0.9918091
vn -0.09302014 -0.9956537 0.004558051
vn -0.09302013 -0.9956537 -0.004558073
vn -0.02076711 -0.8369125 0.5469427
vn 0.09302015 -0.9956537 0.004558044
vn -0.02076714 -0.836912 -0.5469432
vn 0.02076717 -0.8369126 0.5469427
vn 0.9908338 -0.1198928 0.06224179
vn 0.09302011 -0.9956537 -0.004558081
vn 0.02076709 -0.836912 -0.5469433
vn 0.05303342 -0.1161991 -0.9918091
vn 0.9908338 -0.1198928 -0.06224181
vn 0.3388343 -0.9406273 -0.02028719
vn 0.01752946 -0.9368042 -0.3494146
vn 0.01723274 -0.9895601 -0.1430867
vn 0 -0.284123 -0.9587878
vn 0 0.04717534 -0.9988866
vn -0.06737261 0.01220963 -0.9976532
vn 0 0.04717535 -0.9988866
vn 0 0.05627052 -0.9984156
vn 0.06737259 0.01220963 -0.9976532
vn -0.5578952 0.07586478 -0.8264366
vn 0 0.3205367 -0.9472361
vn 0 0.1719222 -0.9851105
vn 0 0.1467217 -0.9891778
vn 0 0.1521846 -0.9883521
vn -0.8695292 -0.2154544 -0.444408
vn 0 0.07049614 -0.9975121
vn 0 0.070495 -0.9975121
vn 0 0.1521837 -0.9883522
vn 0 0.1467219 -0.9891778
vn 0 0.1719222 -0.9851105
vn 0 0.3205366 -0.9472362
vn 0.5578952 0.07586478 -0.8264366
vn 0.8695292 -0.2154544 -0.444408
vn 0.08738313 -0.06507523 -0.9940469
vn -0.08738313 -0.06507523 -0.9940469
vn 0.3140761 -0.3800786 -0.8699979
vn 0 -0.252932 -0.9674841
vn 0 -0.1568385 -0.9876243
vn -0.3140763 -0.3800789 -0.8699979
vn 0 -0.2529323 -0.9674841
vn 0 -0.1568386 -0.9876243
vn -0.3028082 0.3655039 -0.8801785
vn 0 -0.2910602 -0.9567047
vn 0 -0.1164714 -0.993194
vn 0 -0.2758352 -0.961205
vn 0 -0.1337529 -0.9910147
vn 0 -0.07049595 -0.9975121
vn 0 -0.07049502 -0.9975121
vn 0 -0.1337519 -0.9910149
vn 0 -0.1164714 -0.993194
vn 0 -0.2910598 -0.9567049
vn 0.3028082 0.3655039 -0.8801785
vn -0.04607666 0 -0.9989379
vn -0.2304906 0.2782131 -0.9324546
vn 0.4894085 -5.296166E-07 -0.8720546
vn 6.854781E-07 -0.4705157 -0.8823916
vn -6.854781E-07 -0.4705156 -0.8823916
vn 0.2304906 0.2782131 -0.9324546
vn -0.4894085 -5.296166E-07 -0.8720546
vn 0.1712053 0.9852353 1.847072E-06
vn 0.05941655 0.9233123 0.3794258
vn -0.2821777 0.9169266 0.2821724
vn 0 1 3.096441E-07
vn -0.2821777 0.9169266 0.2821724
vn 0 0.9861915 -0.1656086
vn -0.3576098 0.9318802 -0.06094695
vn 0.6651416 0.2934615 0.6866344
vn 0.6810654 0.2688825 0.6810669
vn -0.6810654 0.2688825 0.6810669
vn -0.6731903 0.3059873 0.6731913
vn 0.05941655 0.9233123 0.3794258
vn -0.2821777 0.9169266 0.2821724
vn 0.1712053 0.9852353 1.847072E-06
vn 0.1135773 0.9876183 -0.108214
vn 0.678483 0.2822595 -0.678226
vn 0.6651416 0.2934615 0.6866344
vn 0.6810654 0.2688825 0.6810669
vn 0 0.9861915 -0.1656086
vn 0.6810654 0.2688825 -0.6810669
vn -0.6866149 0.2934789 -0.6651542
vn -0.3576098 0.9318802 -0.06094695
vn -0.2821777 0.9169266 0.2821724
vn -0.6810654 0.2688825 -0.6810669
vn -0.6731903 0.3059873 0.6731913
vn -0.6810654 0.2688825 0.6810669
vn 0.1739217 0.9692791 -0.1739234
vn 0.1739217 0.9692791 0.1739234
vn -0.1739219 0.9692791 0.1739233
vn -0.1739218 0.9692791 -0.1739234
vn 0.6798225 0.2751045 0.6798227
vn 0.6887506 0.2263736 0.6887509
vn -0.6887507 0.2263737 0.6887507
vn -0.6798224 0.2751046 0.6798228
vn 0.1739217 0.9692791 0.1739234
vn -0.1739219 0.9692791 0.1739233
vn -0.6887509 0.2263733 -0.6887506
vn -0.6798224 0.2751046 0.6798228
vn -0.6887507 0.2263737 0.6887507
vn -0.6798224 0.2751042 -0.6798229
vn -0.1739219 0.9692791 0.1739233
vn 0.6887507 0.2263732 -0.6887507
vn -0.1739218 0.9692791 -0.1739234
vn 0.6798226 0.2751041 -0.6798229
vn 0.6887506 0.2263736 0.6887509
vn 0.1739217 0.9692791 -0.1739234
vn 0.6798225 0.2751045 0.6798227
vn 0.1739217 0.9692791 0.1739234
vn 0.6431895 0.6431894 0.4154691
vn -0.6325691 0.6325679 0.4468939
vn -0.6431895 0.6431894 0.4154691
vn 0.6325691 0.6325679 0.4468939
vn -0.1713468 0.171345 0.9701965
vn 0.1713468 0.171345 0.9701965
vn 0.64319 -0.6431898 0.4154676
vn 0.6325691 0.6325679 0.4468939
vn 0.6431895 0.6431894 0.4154691
vn 0.6325701 -0.632568 0.4468924
vn -0.64319 -0.6431898 0.4154676
vn 0.1713468 0.171345 0.9701965
vn -0.63257 -0.6325679 0.4468924
vn -0.6431895 0.6431894 0.4154691
vn -0.6325691 0.6325679 0.4468939
vn 0.1713458 -0.1713464 0.9701964
vn -0.1713458 -0.1713464 0.9701964
vn -0.1713468 0.171345 0.9701965
vn 0.179355 0.967297 -0.1793557
vn 0.179355 0.9672968 0.1793564
vn -0.1793549 0.9672968 0.1793565
vn -0.1793548 0.967297 -0.1793557
vn 0.6725956 0.3085938 0.6725959
vn 0.6842387 0.2522607 0.6842383
vn -0.6842386 0.2522607 0.6842383
vn -0.6725956 0.3085938 0.6725958
vn 0.179355 0.9672968 0.1793564
vn -0.1793549 0.9672968 0.1793565
vn 0.179355 0.967297 -0.1793557
vn -0.6725954 0.3085942 -0.6725957
vn 0.6725954 0.3085942 -0.6725957
vn -0.1793548 0.967297 -0.1793557
vn 0.6842386 0.2522608 -0.6842383
vn 0.6842387 0.2522607 0.6842383
vn 0.6725956 0.3085938 0.6725959
vn -0.6842386 0.2522607 -0.6842383
vn -0.6725956 0.3085938 0.6725958
vn -0.6842386 0.2522607 0.6842383
vn 0.6434575 0.6434572 0.4146387
vn -0.6343911 0.6343924 0.4416947
vn -0.6434575 0.6434572 0.4146387
vn 0.6343911 0.6343924 0.4416947
vn -0.2120316 0.2120307 0.9539841
vn 0.2120316 0.2120307 0.9539841
vn 0.6434569 -0.6434569 0.4146401
vn 0.6343911 0.6343924 0.4416947
vn 0.6434575 0.6434572 0.4146387
vn 0.6343904 -0.6343921 0.4416961
vn -0.6434569 -0.6434569 0.4146401
vn 0.2120316 0.2120307 0.9539841
vn -0.6343904 -0.6343921 0.4416961
vn -0.6434575 0.6434572 0.4146387
vn -0.6343911 0.6343924 0.4416947
vn 0.2120313 -0.2120314 0.953984
vn -0.2120313 -0.2120314 0.953984
vn -0.2120316 0.2120307 0.9539841
vn -0.6214082 0.621405 0.4771873
vn 0.6214082 0.6214055 0.4771866
vn 0.6061641 0.6061656 0.5149062
vn -0.6061636 0.6061658 0.5149067
vn 0.1872927 0.1872913 0.9642839
vn -0.1872926 0.1872913 0.9642839
vn -0.6214036 -0.6214063 0.4771916
vn -0.6214082 0.621405 0.4771873
vn -0.6061636 0.6061658 0.5149067
vn -0.6061645 -0.6061628 0.514909
vn 0.6214036 -0.6214069 0.4771908
vn -0.1872926 0.1872913 0.9642839
vn 0.6061651 -0.6061626 0.5149086
vn 0.6214082 0.6214055 0.4771866
vn 0.6061641 0.6061656 0.5149062
vn -0.1872919 -0.1872929 0.9642838
vn 0.1872919 -0.1872929 0.9642838
vn 0.1872927 0.1872913 0.9642839
vn -0.08738313 -0.06507523 -0.9940469
vn 0.8695292 -0.2154544 -0.444408
vn 0.5578952 0.07586478 -0.8264366
vn 0 -0.2529323 -0.9674841
vn 0 0.3205366 -0.9472362
vn 0 -0.07049502 -0.9975121
vn 0 -0.1337519 -0.9910149
vn 0 0.1521837 -0.9883522
vn 0 0.070495 -0.9975121
vn 0 -0.1568386 -0.9876243
vn 0 -0.2529323 -0.9674841
vn 0 0.3205366 -0.9472362
vn 0 0.1719222 -0.9851105
vn 0 -0.1164714 -0.993194
vn 0 -0.1568386 -0.9876243
vn 0 0.1719222 -0.9851105
vn 0 0.1467219 -0.9891778
vn 0 -0.1337519 -0.9910149
vn 0 -0.1164714 -0.993194
vn 0 0.1467219 -0.9891778
vn 0 0.1521837 -0.9883522
vn 0.8897364 -0.4564746 0
vn 1 0 0
vn 0.3893513 0 -0.9210893
vn 0.3818084 -0.1958848 -0.9032449
vn -0.3893513 0 -0.9210893
vn -0.3818084 -0.1958848 -0.9032449
vn -0.8897364 -0.4564746 0
vn -1 0 0
vn 0.08738313 -0.06507523 -0.9940469
vn -0.5578952 0.07586478 -0.8264366
vn -0.8695292 -0.2154544 -0.444408
vn 0 -0.252932 -0.9674841
vn 0 0.3205367 -0.9472361
vn 0 -0.07049595 -0.9975121
vn 0 0.07049614 -0.9975121
vn 0 0.1521846 -0.9883521
vn 0 -0.1337529 -0.9910147
vn 0 -0.1568385 -0.9876243
vn 0 0.1719222 -0.9851105
vn 0 0.3205367 -0.9472361
vn 0 -0.252932 -0.9674841
vn 0 -0.1164714 -0.993194
vn 0 0.1467217 -0.9891778
vn 0 0.1719222 -0.9851105
vn 0 -0.1568385 -0.9876243
vn 0 -0.1337529 -0.9910147
vn 0 0.1521846 -0.9883521
vn 0 0.1467217 -0.9891778
vn 0 -0.1164714 -0.993194
vn -0.8897364 -0.4564746 0
vn -0.3893513 0 -0.9210893
vn -1 0 0
vn -0.3818084 -0.1958848 -0.9032449
vn 0.3893513 0 -0.9210893
vn 0.3818084 -0.1958848 -0.9032449
vn 0.8897364 -0.4564746 0
vn 1 0 0
vn 0 -0.07049595 -0.9975121
vn 0 -0.07049502 -0.9975121
vn 0 0.070495 -0.9975121
vn 0 0.07049614 -0.9975121
vn -0.1658615 0.9861172 -0.007920592
vn 3.950015E-07 1 0
vn -0.2302632 0.9730662 0.01099604
vn 3.95295E-07 1 0
vn -0.03922476 0.9462765 -0.3209707
vn 2.637602E-07 1 -1.091121E-06
vn 0.04245867 0.9367427 -0.3474338
vn 0 1 -1.039423E-06
vn 0.5284942 0.8485617 -0.02523764
vn -1.600507E-06 1 0
vn 0.5365874 0.8434556 0.02562411
vn -1.892718E-06 1 0
vn 0.006232125 0.9862248 0.1652933
vn 0 1 4.420071E-07
vn -0.008543067 0.9739518 0.2265942
vn 2.54819E-07 1 4.492018E-07
vn -0.2302632 0.9730662 0.01099604
vn 3.95295E-07 1 0
vn 2.637602E-07 1 -1.091121E-06
vn 0 1 -1.039423E-06
vn -1.600507E-06 1 0
vn 3.950015E-07 1 0
vn -1.892718E-06 1 0
vn 0 1 4.420071E-07
vn 2.54819E-07 1 4.492018E-07
vn 0.1135773 0.9876183 -0.108214
vn 0.1712053 0.9852353 1.847072E-06
vn 0 1 3.096441E-07
vn 0 0.9861915 -0.1656086
vn -0.3484518 0.9202747 -0.1779768
vn -0.3484517 0.9202747 0.177977
vn -0.632679 0.7542309 0.1756506
vn -0.632679 0.7542308 -0.1756504
vn 0.3090845 0.7040721 0.6393349
vn -0.3484517 0.9202747 0.177977
vn 0.3090846 0.7040721 -0.639335
vn 0.3118474 0.693928 0.6490108
vn 0.3090845 0.7040721 0.6393349
vn 0.3118477 0.693928 -0.6490107
vn 0.3090845 0.7040721 0.6393349
vn 0.3118474 0.693928 0.6490108
vn -0.7642551 0.04889448 0.6430578
vn -0.7715933 0.05499491 0.6337345
vn -0.3484517 0.9202747 0.177977
vn -0.632679 0.7542309 0.1756506
vn -0.7715932 0.05499477 -0.6337345
vn -0.632679 0.7542308 -0.1756504
vn 0.3090846 0.7040721 -0.639335
vn -0.3484518 0.9202747 -0.1779768
vn 0.3118477 0.693928 -0.6490107
vn -0.7642553 0.04889424 -0.6430577
vn -0.7715933 0.05499491 0.6337345
vn -0.7642551 0.04889448 0.6430578
vn 0.3484518 0.9202747 -0.1779769
vn 0.632679 0.7542309 -0.1756505
vn 0.6326789 0.7542309 0.1756505
vn 0.3484518 0.9202747 0.1779768
vn -0.3090844 0.7040722 0.639335
vn 0.7642552 0.04889466 0.6430578
vn -0.3118472 0.693928 0.6490108
vn 0.7715932 0.05499509 0.6337345
vn 0.3484518 0.9202747 0.1779768
vn 0.6326789 0.7542309 0.1756505
vn 0.7715932 0.05499491 -0.6337345
vn 0.632679 0.7542309 -0.1756505
vn -0.3090846 0.7040721 -0.639335
vn 0.3484518 0.9202747 -0.1779769
vn -0.3118476 0.693928 -0.6490108
vn 0.7642553 0.04889433 -0.6430578
vn 0.7715932 0.05499509 0.6337345
vn 0.7642552 0.04889466 0.6430578
vn -0.3118472 0.693928 0.6490108
vn -0.3118476 0.693928 -0.6490108
vn -0.3090846 0.7040721 -0.639335
vn -0.3090844 0.7040722 0.639335
vn -0.3090844 0.7040722 0.639335
vn 0.3484518 0.9202747 -0.1779769
vn 0.3484518 0.9202747 0.1779768
g ganger_model_0
f 3/3/3 2/2/2 1/1/1
f 6/6/6 5/5/5 4/4/4
f 9/9/9 8/8/8 7/7/7
f 8/8/8 10/10/10 7/7/7
f 8/8/8 11/11/11 10/10/10
f 11/11/11 12/12/12 10/10/10
f 15/15/15 14/14/14 13/13/13
f 14/14/14 16/16/16 13/13/13
f 17/17/17 13/13/13 16/16/16
f 14/14/14 18/18/18 16/16/16
f 19/19/19 17/17/17 16/16/16
f 17/17/17 19/19/19 20/20/20
f 19/19/19 21/21/21 20/20/20
f 18/18/18 22/22/22 16/16/16
f 16/16/16 22/22/22 19/19/19
f 19/19/19 23/23/23 21/21/21
f 22/22/22 23/23/23 19/19/19
f 23/23/23 22/22/22 18/18/18
f 23/23/23 24/24/24 21/21/21
f 24/24/24 23/23/23 18/18/18
f 27/27/27 26/26/26 25/25/25
f 26/26/26 28/28/28 25/25/25
f 25/25/25 28/28/28 29/29/29
f 26/26/26 30/30/30 28/28/28
f 30/30/30 31/31/31 28/28/28
f 28/28/28 31/31/31 29/29/29
f 31/31/31 32/32/32 29/29/29
f 33/33/33 29/29/29 32/32/32
f 33/33/33 32/32/32 34/34/34
f 35/35/35 29/29/29 33/33/33
f 36/36/36 35/35/35 33/33/33
f 36/36/36 37/37/37 35/35/35
f 38/38/38 29/29/29 35/35/35
f 29/29/29 38/38/38 39/39/39
f 39/39/39 25/25/25 29/29/29
f 33/33/33 34/34/34 40/40/40
f 40/40/40 36/36/36 33/33/33
f 40/40/40 41/41/41 36/36/36
f 41/41/41 40/40/40 42/42/42
f 40/40/40 34/34/34 43/43/43
f 34/34/34 44/44/44 43/43/43
f 42/42/42 40/40/40 45/45/45
f 40/40/40 43/43/43 45/45/45
f 43/43/43 44/44/44 46/46/46
f 44/44/44 47/47/47 46/46/46
f 45/45/45 43/43/43 48/48/48
f 43/43/43 49/49/49 48/48/48
f 48/48/48 50/50/50 45/45/45
f 50/50/50 51/51/51 45/45/45
f 45/45/45 51/51/51 42/42/42
f 50/50/50 52/52/52 51/51/51
f 46/46/46 47/47/47 53/53/53
f 47/47/47 54/54/54 53/53/53
f 53/53/53 55/55/55 46/46/46
f 55/55/55 56/56/56 46/46/46
f 53/53/53 54/54/54 57/57/57
f 53/53/53 57/57/57 55/55/55
f 54/54/54 58/58/58 57/57/57
f 57/57/57 58/58/58 59/59/59
f 58/58/58 60/60/60 59/59/59
f 57/57/57 59/59/59 61/61/61
f 57/57/57 61/61/61 55/55/55
f 59/59/59 62/62/62 61/61/61
f 55/55/55 63/63/63 56/56/56
f 63/63/63 64/64/64 56/56/56
f 61/61/61 65/65/65 55/55/55
f 65/65/65 63/63/63 55/55/55
f 62/62/62 66/66/66 61/61/61
f 66/66/66 65/65/65 61/61/61
f 63/63/63 67/67/67 64/64/64
f 67/67/67 52/52/52 64/64/64
f 65/65/65 68/68/68 63/63/63
f 68/68/68 67/67/67 63/63/63
f 69/69/69 66/66/66 62/62/62
f 25/25/25 69/69/69 62/62/62
f 66/66/66 70/70/70 65/65/65
f 70/70/70 68/68/68 65/65/65
f 71/71/71 69/69/69 25/25/25
f 39/39/39 71/71/71 25/25/25
f 72/72/72 70/70/70 66/66/66
f 73/73/73 72/72/72 66/66/66
f 74/74/74 72/72/72 69/69/69
f 71/71/71 74/74/74 69/69/69
f 68/68/68 75/75/75 67/67/67
f 70/70/70 76/76/76 68/68/68
f 76/76/76 75/75/75 68/68/68
f 72/72/72 77/77/77 70/70/70
f 77/77/77 76/76/76 70/70/70
f 74/74/74 78/78/78 72/72/72
f 78/78/78 77/77/77 72/72/72
f 75/75/75 79/79/79 67/67/67
f 67/67/67 79/79/79 52/52/52
f 76/76/76 80/80/80 75/75/75
f 77/77/77 81/81/81 76/76/76
f 81/81/81 80/80/80 76/76/76
f 80/80/80 82/82/82 75/75/75
f 75/75/75 82/82/82 79/79/79
f 82/82/82 80/80/80 83/83/83
f 80/80/80 81/81/81 83/83/83
f 84/84/84 81/81/81 77/77/77
f 78/78/78 84/84/84 77/77/77
f 82/82/82 85/85/85 79/79/79
f 85/85/85 82/82/82 83/83/83
f 79/79/79 85/85/85 86/86/86
f 79/79/79 86/86/86 52/52/52
f 85/85/85 83/83/83 86/86/86
f 81/81/81 84/84/84 87/87/87
f 81/81/81 87/87/87 83/83/83
f 88/88/88 84/84/84 78/78/78
f 84/84/84 88/88/88 87/87/87
f 89/89/89 88/88/88 78/78/78
f 87/87/87 88/88/88 89/89/89
f 89/89/89 78/78/78 74/74/74
f 83/83/83 87/87/87 90/90/90
f 86/86/86 83/83/83 90/90/90
f 90/90/90 87/87/87 89/89/89
f 52/52/52 86/86/86 91/91/91
f 86/86/86 90/90/90 91/91/91
f 52/52/52 91/91/91 51/51/51
f 92/92/92 89/89/89 74/74/74
f 90/90/90 89/89/89 92/92/92
f 91/91/91 90/90/90 92/92/92
f 92/92/92 74/74/74 71/71/71
f 51/51/51 91/91/91 93/93/93
f 91/91/91 92/92/92 93/93/93
f 93/93/93 92/92/92 71/71/71
f 51/51/51 93/93/93 42/42/42
f 94/94/94 93/93/93 71/71/71
f 94/94/94 42/42/42 93/93/93
f 94/94/94 71/71/71 39/39/39
f 95/95/95 42/42/42 94/94/94
f 96/96/96 42/42/42 95/95/95
f 96/96/96 41/41/41 42/42/42
f 94/94/94 39/39/39 97/97/97
f 95/95/95 94/94/94 98/98/98
f 94/94/94 97/97/97 98/98/98
f 39/39/39 99/99/99 97/97/97
f 38/38/38 99/99/99 39/39/39
f 41/41/41 96/96/96 100/100/100
f 100/100/100 96/96/96 101/101/101
f 101/101/101 96/96/96 102/102/102
f 96/96/96 95/95/95 102/102/102
f 102/102/102 95/95/95 103/103/103
f 103/103/103 95/95/95 104/104/104
f 95/95/95 98/98/98 104/104/104
f 105/105/105 41/41/41 100/100/100
f 104/104/104 98/98/98 106/106/106
f 98/98/98 107/107/107 106/106/106
f 98/98/98 108/108/108 107/107/107
f 98/98/98 97/97/97 108/108/108
f 97/97/97 109/109/109 108/108/108
f 97/97/97 110/110/110 109/109/109
f 97/97/97 99/99/99 110/110/110
f 99/99/99 111/111/111 110/110/110
f 99/99/99 112/112/112 111/111/111
f 99/99/99 38/38/38 112/112/112
f 38/38/38 113/113/113 112/112/112
f 105/105/105 114/114/114 41/41/41
f 115/115/115 113/113/113 38/38/38
f 114/114/114 116/116/116 41/41/41
f 114/114/114 117/117/117 116/116/116
f 117/117/117 118/118/118 116/116/116
f 119/119/119 115/115/115 38/38/38
f 120/120/120 115/115/115 119/119/119
f 121/121/121 120/120/120 119/119/119
f 116/116/116 122/122/122 41/41/41
f 41/41/41 122/122/122 36/36/36
f 118/118/118 123/123/123 116/116/116
f 123/123/123 122/122/122 116/116/116
f 124/124/124 123/123/123 118/118/118
f 125/125/125 123/123/123 124/124/124
f 126/126/126 125/125/125 124/124/124
f 127/127/127 125/125/125 126/126/126
f 125/125/125 127/127/127 128/128/128
f 125/125/125 128/128/128 129/129/129
f 125/125/125 129/129/129 130/130/130
f 131/131/131 130/130/130 121/121/121
f 131/131/131 125/125/125 130/130/130
f 131/131/131 121/121/121 119/119/119
f 37/37/37 123/123/123 125/125/125
f 37/37/37 122/122/122 123/123/123
f 132/132/132 131/131/131 119/119/119
f 132/132/132 119/119/119 38/38/38
f 132/132/132 38/38/38 35/35/35
f 125/125/125 131/131/131 133/133/133
f 37/37/37 125/125/125 133/133/133
f 132/132/132 133/133/133 131/131/131
f 37/37/37 133/133/133 35/35/35
f 134/134/134 122/122/122 37/37/37
f 135/135/135 134/134/134 37/37/37
f 134/134/134 136/136/136 122/122/122
f 135/135/135 37/37/37 36/36/36
f 136/136/136 36/36/36 122/122/122
f 136/136/136 135/135/135 36/36/36
f 35/35/35 137/137/137 132/132/132
f 137/137/137 138/138/138 132/132/132
f 132/132/132 138/138/138 133/133/133
f 139/139/139 137/137/137 35/35/35
f 133/133/133 139/139/139 35/35/35
f 138/138/138 139/139/139 133/133/133
f 142/142/142 141/141/141 140/140/140
f 143/143/143 142/142/142 140/140/140
f 143/143/143 145/145/145 144/144/144
f 145/145/145 146/146/146 144/144/144
f 149/149/149 148/148/148 147/147/147
f 150/150/150 149/149/149 147/147/147
f 147/147/147 151/151/151 150/150/150
f 151/151/151 152/152/152 150/150/150
f 153/153/153 151/151/151 147/147/147
f 155/155/155 154/154/154 153/153/153
f 155/155/155 153/153/153 156/156/156
f 155/155/155 156/156/156 157/157/157
f 158/158/158 154/154/154 155/155/155
f 159/159/159 155/155/155 157/157/157
f 160/160/160 158/158/158 155/155/155
f 160/160/160 155/155/155 159/159/159
f 160/160/160 161/161/161 158/158/158
f 162/162/162 161/161/161 160/160/160
f 163/163/163 160/160/160 159/159/159
f 164/164/164 162/162/162 160/160/160
f 164/164/164 160/160/160 163/163/163
f 165/165/165 164/164/164 163/163/163
f 168/168/168 167/167/167 166/166/166
f 169/169/169 168/168/168 166/166/166
f 172/172/172 171/171/171 170/170/170
f 173/173/173 172/172/172 170/170/170
f 170/170/170 174/174/174 173/173/173
f 174/174/174 175/175/175 173/173/173
f 178/178/178 177/177/177 176/176/176
f 177/177/177 179/179/179 176/176/176
f 177/177/177 180/180/180 179/179/179
f 176/176/176 179/179/179 181/181/181
f 180/180/180 182/182/182 179/179/179
f 179/179/179 183/183/183 181/181/181
f 179/179/179 182/182/182 183/183/183
f 181/181/181 183/183/183 184/184/184
f 182/182/182 185/185/185 183/183/183
f 183/183/183 186/186/186 184/184/184
f 183/183/183 185/185/185 186/186/186
f 185/185/185 187/187/187 186/186/186
f 190/190/190 189/189/189 188/188/188
f 189/189/189 191/191/191 188/188/188
f 189/189/189 192/192/192 191/191/191
f 192/192/192 193/193/193 191/191/191
f 196/196/196 195/195/195 194/194/194
f 195/195/195 197/197/197 194/194/194
f 198/198/198 194/194/194 197/197/197
f 195/195/195 199/199/199 197/197/197
f 200/200/200 198/198/198 197/197/197
f 198/198/198 200/200/200 201/201/201
f 200/200/200 202/202/202 201/201/201
f 199/199/199 203/203/203 197/197/197
f 197/197/197 203/203/203 200/200/200
f 200/200/200 204/204/204 202/202/202
f 203/203/203 204/204/204 200/200/200
f 204/204/204 203/203/203 199/199/199
f 204/204/204 205/205/205 202/202/202
f 205/205/205 204/204/204 199/199/199
f 208/208/208 207/207/207 206/206/206
f 209/209/209 208/208/208 206/206/206
f 212/212/212 211/211/211 210/210/210
f 213/213/213 212/212/212 210/210/210
f 210/210/210 214/214/214 213/213/213
f 214/214/214 215/215/215 213/213/213
f 216/216/216 214/214/214 210/210/210
f 213/213/213 215/215/215 217/217/217
f 218/218/218 216/216/216 210/210/210
f 215/215/215 219/219/219 217/217/217
f 219/219/219 216/216/216 218/218/218
f 217/217/217 219/219/219 218/218/218
f 217/217/217 218/218/218 220/220/220
f 220/220/220 218/218/218 221/221/221
f 218/218/218 222/222/222 221/221/221
f 223/223/223 217/217/217 220/220/220
f 224/224/224 217/217/217 223/223/223
f 225/225/225 224/224/224 223/223/223
f 228/228/228 227/227/227 226/226/226
f 227/227/227 229/229/229 226/226/226
f 227/227/227 230/230/230 229/229/229
f 230/230/230 231/231/231 229/229/229
f 234/234/234 233/233/233 232/232/232
f 233/233/233 235/235/235 232/232/232
f 236/236/236 232/232/232 235/235/235
f 233/233/233 237/237/237 235/235/235
f 238/238/238 236/236/236 235/235/235
f 236/236/236 238/238/238 239/239/239
f 238/238/238 240/240/240 239/239/239
f 237/237/237 241/241/241 235/235/235
f 235/235/235 241/241/241 238/238/238
f 238/238/238 242/242/242 240/240/240
f 241/241/241 242/242/242 238/238/238
f 242/242/242 241/241/241 237/237/237
f 242/242/242 243/243/243 240/240/240
f 243/243/243 242/242/242 237/237/237
f 246/246/246 245/245/245 244/244/244
f 247/247/247 246/246/246 244/244/244
f 248/248/248 246/246/246 247/247/247
f 249/249/249 248/248/248 247/247/247
f 252/252/252 251/251/251 250/250/250
f 253/253/253 252/252/252 250/250/250
f 250/250/250 254/254/254 253/253/253
f 255/255/255 252/252/252 253/253/253
f 254/254/254 256/256/256 253/253/253
f 256/256/256 254/254/254 257/257/257
f 258/258/258 256/256/256 257/257/257
f 259/259/259 255/255/255 253/253/253
f 259/259/259 253/253/253 256/256/256
f 260/260/260 256/256/256 258/258/258
f 260/260/260 259/259/259 256/256/256
f 259/259/259 260/260/260 255/255/255
f 261/261/261 260/260/260 258/258/258
f 260/260/260 261/261/261 255/255/255
f 264/264/264 263/263/263 262/262/262
f 264/264/264 262/262/262 265/265/265
f 266/266/266 264/264/264 265/265/265
f 269/269/269 268/268/268 267/267/267
f 270/270/270 269/269/269 267/267/267
f 273/273/273 272/272/272 271/271/271
f 274/274/274 273/273/273 271/271/271
f 277/277/277 276/276/276 275/275/275
f 278/278/278 277/277/277 275/275/275
f 281/281/281 280/280/280 279/279/279
f 282/282/282 281/281/281 279/279/279
f 285/285/285 284/284/284 283/283/283
f 286/286/286 285/285/285 283/283/283
f 287/287/287 285/285/285 286/286/286
f 288/288/288 286/286/286 283/283/283
f 288/288/288 287/287/287 286/286/286
f 289/289/289 288/288/288 283/283/283
f 290/290/290 287/287/287 288/288/288
f 289/289/289 290/290/290 288/288/288
f 293/293/293 292/292/292 291/291/291
f 291/291/291 292/292/292 294/294/294
f 292/292/292 295/295/295 294/294/294
f 298/298/298 297/297/297 296/296/296
f 299/299/299 298/298/298 296/296/296
f 302/302/302 301/301/301 300/300/300
f 303/303/303 302/302/302 300/300/300
f 306/306/306 305/305/305 304/304/304
f 307/307/307 306/306/306 304/304/304
f 310/310/310 309/309/309 308/308/308
f 311/311/311 310/310/310 308/308/308
f 314/314/314 313/313/313 312/312/312
f 313/313/313 315/315/315 312/312/312
f 313/313/313 316/316/316 315/315/315
f 315/315/315 317/317/317 312/312/312
f 316/316/316 317/317/317 315/315/315
f 317/317/317 318/318/318 312/312/312
f 316/316/316 319/319/319 317/317/317
f 319/319/319 318/318/318 317/317/317
f 322/322/322 321/321/321 320/320/320
f 323/323/323 322/322/322 320/320/320
f 326/326/326 325/325/325 324/324/324
f 325/325/325 327/327/327 324/324/324
f 324/324/324 327/327/327 328/328/328
f 327/327/327 329/329/329 328/328/328
f 328/328/328 329/329/329 330/330/330
f 329/329/329 331/331/331 330/330/330
f 330/330/330 331/331/331 332/332/332
f 331/331/331 333/333/333 332/332/332
f 332/332/332 333/333/333 334/334/334
f 333/333/333 335/335/335 334/334/334
f 334/334/334 335/335/335 336/336/336
f 335/335/335 337/337/337 336/336/336
f 336/336/336 337/337/337 338/338/338
f 337/337/337 339/339/339 338/338/338
f 339/339/339 325/325/325 340/340/340
f 338/338/338 339/339/339 340/340/340
f 343/343/343 342/342/342 341/341/341
f 344/344/344 343/343/343 341/341/341
f 344/344/344 341/341/341 345/345/345
f 346/346/346 344/344/344 345/345/345
f 347/347/347 346/346/346 345/345/345
f 348/348/348 347/347/347 345/345/345
f 351/351/351 350/350/350 349/349/349
f 352/352/352 351/351/351 349/349/349
f 355/355/355 354/354/354 353/353/353
f 356/356/356 355/355/355 353/353/353
f 353/353/353 358/358/358 357/357/357
f 359/359/359 353/353/353 357/357/357
f 359/359/359 361/361/361 360/360/360
f 362/362/362 359/359/359 360/360/360
f 365/365/365 364/364/364 363/363/363
f 366/366/366 365/365/365 363/363/363
f 363/363/363 367/367/367 366/366/366
f 367/367/367 368/368/368 366/366/366
f 366/366/366 368/368/368 369/369/369
f 368/368/368 370/370/370 369/369/369
f 369/369/369 370/370/370 371/371/371
f 370/370/370 372/372/372 371/371/371
f 369/369/369 371/371/371 373/373/373
f 374/374/374 369/369/369 373/373/373
f 375/375/375 369/369/369 374/374/374
f 376/376/376 375/375/375 374/374/374
f 379/379/379 378/378/378 377/377/377
f 380/380/380 379/379/379 377/377/377
f 383/383/383 382/382/382 381/381/381
f 382/382/382 384/384/384 381/381/381
f 385/385/385 381/381/381 384/384/384
f 386/386/386 385/385/385 384/384/384
f 386/386/386 384/384/384 387/387/387
f 388/388/388 386/386/386 387/387/387
f 388/388/388 387/387/387 389/389/389
f 390/390/390 388/388/388 389/389/389
f 389/389/389 387/387/387 391/391/391
f 387/387/387 392/392/392 391/391/391
f 387/387/387 393/393/393 392/392/392
f 393/393/393 394/394/394 392/392/392
f 397/397/397 396/396/396 395/395/395
f 398/398/398 397/397/397 395/395/395
f 400/400/400 397/397/397 399/399/399
f 401/401/401 400/400/400 399/399/399
